{
copyright = "Copyright (c) 2018 by Vladimir Nikolic. All rights reserved.";
designer = "Vladimir Nikolic";
designerURL = "https://www.coroflot.com/vladimirnikolic";
familyName = Vogue;
customParameters = (
{
name = glyphOrder;
value = (
.notdef,
NULL,
uni000D,
space,
exclam,
quotedbl,
numbersign,
dollar,
percent,
ampersand,
quotesingle,
parenleft,
parenright,
asterisk,
plus,
comma,
hyphen,
period,
slash,
zero,
one,
two,
three,
four,
five,
six,
seven,
eight,
nine,
colon,
semicolon,
less,
equal,
greater,
question,
at,
A,
B,
C,
D,
E,
F,
G,
H,
I,
J,
K,
L,
M,
N,
O,
P,
Q,
R,
S,
T,
U,
V,
W,
X,
Y,
Z,
bracketleft,
backslash,
bracketright,
asciicircum,
underscore,
grave,
a,
b,
c,
d,
e,
f,
g,
h,
i,
j,
k,
l,
m,
n,
o,
p,
q,
r,
s,
t,
u,
v,
w,
x,
y,
z,
braceleft,
bar,
braceright,
asciitilde,
uni00A0,
exclamdown,
cent,
sterling,
currency,
yen,
brokenbar,
section,
dieresis,
copyright,
ordfeminine,
guillemotleft,
uni00AD,
registered,
macron,
degree,
plusminus,
acute,
paragraph,
periodcentered,
cedilla,
onesuperior,
ordmasculine,
guillemotright,
questiondown,
Agrave,
Aacute,
Acircumflex,
Atilde,
Adieresis,
Aring,
AE,
Ccedilla,
Egrave,
Eacute,
Ecircumflex,
Edieresis,
Igrave,
Iacute,
Icircumflex,
Idieresis,
Eth,
Ntilde,
Ograve,
Oacute,
Ocircumflex,
Otilde,
Odieresis,
multiply,
Oslash,
Ugrave,
Uacute,
Ucircumflex,
Udieresis,
Yacute,
Thorn,
germandbls,
agrave,
aacute,
acircumflex,
atilde,
adieresis,
aring,
ae,
ccedilla,
egrave,
eacute,
ecircumflex,
edieresis,
igrave,
iacute,
icircumflex,
idieresis,
eth,
ntilde,
ograve,
oacute,
ocircumflex,
otilde,
odieresis,
divide,
oslash,
ugrave,
uacute,
ucircumflex,
udieresis,
yacute,
thorn,
ydieresis,
Amacron,
amacron,
Abreve,
abreve,
Aogonek,
aogonek,
Cacute,
cacute,
Cdotaccent,
Ccaron,
ccaron,
Dcaron,
dcaron,
Dcroat,
dcroat,
Emacron,
emacron,
Edotaccent,
edotaccent,
Eogonek,
eogonek,
Ecaron,
ecaron,
Gbreve,
gbreve,
uni0122,
Imacron,
imacron,
Iogonek,
iogonek,
Idotaccent,
dotlessi,
uni0136,
uni0137,
Lacute,
lacute,
uni013B,
uni013C,
Lcaron,

glyphs = (
{
glyphname = exclam;
layers = (
{
layerId = "DE113C6F-85E3-4DBE-A925-75822E2A0D50";
paths = (
{
nodes = (
"101 159 LINE",
"94 290 OFFCURVE",
"69 508 OFFCURVE",
"54 587 QCURVE",
"68 605 OFFCURVE",
"82 627 OFFCURVE",
"91 646 QCURVE",
"103 668 LINE",
"108 674 OFFCURVE",
"113 674 QCURVE",
"115 674 OFFCURVE",
"125 671 OFFCURVE",
"130 663 QCURVE SMOOTH",
"136 653 OFFCURVE",
"139 647 QCURVE SMOOTH",
"149 629 OFFCURVE",
"164 602 OFFCURVE",
"178 590 QCURVE",
"168 531 OFFCURVE",
"153 432 OFFCURVE",
"141 333 OFFCURVE",
"132 225 OFFCURVE",
"129 159 QCURVE"
);
},
{
nodes = (
"134 92 OFFCURVE",
"159 62 OFFCURVE",
"159 41 QCURVE SMOOTH",
"159 18 OFFCURVE",
"134 -11 OFFCURVE",
"116 -11 QCURVE SMOOTH",
"99 -11 OFFCURVE",
"74 19 OFFCURVE",
"74 41 QCURVE SMOOTH",
"74 62 OFFCURVE",
"100 92 OFFCURVE",
"117 92 QCURVE SMOOTH"
);
}
);
width = 231;
}
);
unicode = 0021;
},
{
glyphname = quotedbl;
layers = (
{
layerId = "DE113C6F-85E3-4DBE-A925-75822E2A0D50";
paths = (
{
nodes = (
"33 637 LINE",
"37 645 OFFCURVE",
"48 666 OFFCURVE",
"62 683 OFFCURVE",
"75 689 OFFCURVE",
"79 689 QCURVE SMOOTH",
"85 689 OFFCURVE",
"91 686 QCURVE SMOOTH",
"119 669 OFFCURVE",
"126 651 OFFCURVE",
"126 644 QCURVE SMOOTH",
"126 634 OFFCURVE",
"121 619 QCURVE SMOOTH",
"116 605 OFFCURVE",
"101 544 OFFCURVE",
"94 512 QCURVE SMOOTH",
"86 475 OFFCURVE",
"77 433 QCURVE",
"57 433 LINE"
);
},
{
nodes = (
"159 637 LINE",
"163 645 OFFCURVE",
"174 666 OFFCURVE",
"188 683 OFFCURVE",
"201 689 OFFCURVE",
"205 689 QCURVE SMOOTH",
"211 689 OFFCURVE",
"217 686 QCURVE SMOOTH",
"245 669 OFFCURVE",
"252 651 OFFCURVE",
"252 644 QCURVE SMOOTH",
"252 634 OFFCURVE",
"247 619 QCURVE SMOOTH",
"242 605 OFFCURVE",
"227 544 OFFCURVE",
"220 512 QCURVE SMOOTH",
"212 475 OFFCURVE",
"203 433 QCURVE",
"183 433 LINE"
);
}
);
width = 276;
}
);
unicode = 0022;
},
{
glyphname = numbersign;
layers = (
{
layerId = "DE113C6F-85E3-4DBE-A925-75822E2A0D50";
paths = (
{
nodes = (
"229 247 LINE",
"396 247 LINE",
"443 409 LINE",
"276 409 LINE"
);
},
{
nodes = (
"63 247 LINE",
"200 247 LINE",
"247 409 LINE",
"109 409 LINE",
"134 492 LINE",
"271 492 LINE",
"310 627 LINE",
"339 627 LINE",
"300 492 LINE",
"467 492 LINE",
"506 627 LINE",
"535 627 LINE",
"496 492 LINE",
"632 492 LINE",
"607 409 LINE",
"472 409 LINE",
"425 247 LINE",
"561 247 LINE",
"536 163 LINE",
"401 163 LINE",
"354 0 LINE",
"325 0 LINE",
"372 163 LINE",
"205 163 LINE",
"158 0 LINE",
"129 0 LINE",
"176 163 LINE",
"38 163 LINE"
);
}
);
width = 652;
}
);
unicode = 0023;
},
{
glyphname = dollar;
layers = (
{
layerId = "DE113C6F-85E3-4DBE-A925-75822E2A0D50";
paths = (
{
nodes = (
"51 238 LINE",
"66 238 LINE",
"70 187 OFFCURVE",
"94 104 OFFCURVE",
"139 44 OFFCURVE",
"173 28 QCURVE",
"175 26 OFFCURVE",
"178 25 QCURVE",
"178 257 LINE",
"145 275 OFFCURVE",
"116 302 QCURVE SMOOTH",
"85 330 OFFCURVE",
"46 410 OFFCURVE",
"46 468 QCURVE SMOOTH",
"46 477 OFFCURVE",
"47 499 OFFCURVE",
"49 510 QCURVE SMOOTH",
"60 591 OFFCURVE",
"104 631 QCURVE SMOOTH",
"134 657 OFFCURVE",
"178 668 QCURVE",
"178 712 LINE",
"198 712 LINE",
"198 672 LINE",
"210 673 OFFCURVE",
"223 674 QCURVE",
"241 674 OFFCURVE",
"257 672 QCURVE",
"257 712 LINE",
"277 712 LINE",
"277 667 LINE",
"286 665 OFFCURVE",
"293 661 QCURVE SMOOTH",
"321 647 OFFCURVE",
"339 634 QCURVE",
"356 620 OFFCURVE",
"367 620 QCURVE SMOOTH",
"381 620 OFFCURVE",
"387 647 OFFCURVE",
"387 659 QCURVE",
"403 659 LINE",
"403 458 LINE",
"386 458 LINE",
"379 502 OFFCURVE",
"355 575 OFFCURVE",
"316 626 OFFCURVE",
"288 640 QCURVE SMOOTH",
"283 643 OFFCURVE",
"277 645 QCURVE",
"277 387 LINE",
"288 382 OFFCURVE",
"300 377 QCURVE",
"333 360 OFFCURVE",
"390 311 OFFCURVE",
"429 241 OFFCURVE",
"434 191 QCURVE",
"434 185 OFFCURVE",
"434 179 QCURVE SMOOTH",
"434 140 OFFCURVE",
"409 70 OFFCURVE",
"360 16 OFFCURVE",
"326 2 QCURVE SMOOTH",
"302 -8 OFFCURVE",
"277 -11 QCURVE",
"277 -64 LINE",
"257 -64 LINE",
"257 -13 LINE",
"254 -13 OFFCURVE",
"251 -13 QCURVE SMOOTH",
"222 -13 OFFCURVE",
"198 -7 QCURVE",
"198 -64 LINE",
"178 -64 LINE",
"178 0 LINE",
"151 11 OFFCURVE",
"130 21 QCURVE",
"118 28 OFFCURVE",
"97 37 OFFCURVE",
"87 37 QCURVE SMOOTH",
"76 37 OFFCURVE",
"67 5 OFFCURVE",
"66 -7 QCURVE",
"51 -7 LINE"
);
},
{
nodes = (
"198 420 LINE",
"215 413 OFFCURVE",
"233 406 QCURVE SMOOTH",
"245 401 OFFCURVE",
"257 396 QCURVE",
"257 651 LINE",
"240 654 OFFCURVE",
"221 654 QCURVE SMOOTH",
"209 654 OFFCURVE",
"198 653 QCURVE"
);
},
{
nodes = (
"178 649 LINE",
"174 648 OFFCURVE",
"171 647 QCURVE SMOOTH",
"147 640 OFFCURVE",
"112 611 OFFCURVE",
"95 569 OFFCURVE",
"95 544 QCURVE SMOOTH",
"95 539 OFFCURVE",
"95 533 QCURVE",
"97 506 OFFCURVE",
"121 467 OFFCURVE",
"140 453 QCURVE SMOOTH",
"157 440 OFFCURVE",
"178 429 QCURVE"
);
},
{
nodes = (
"198 18 LINE",
"223 11 OFFCURVE",
"254 11 QCURVE",
"256 11 OFFCURVE",
"257 11 QCURVE",
"257 218 LINE",
"256 219 OFFCURVE",
"255 219 QCURVE",
"227 232 OFFCURVE",
"198 247 QCURVE"
);
},
{
nodes = (
"277 13 LINE",
"293 15 OFFCURVE",
"307 20 QCURVE SMOOTH",
"330 29 OFFCURVE",
"361 62 OFFCURVE",
"369 95 OFFCURVE",
"369 106 QCURVE SMOOTH",
"369 120 OFFCURVE",
"365 135 QCURVE SMOOTH",
"357 164 OFFCURVE",
"327 182 QCURVE SMOOTH",
"305 195 OFFCURVE",
"277 209 QCURVE"
);
}
);
width = 470;
}
);
unicode = 0024;
},
{
glyphname = percent;
layers = (
{
layerId = "DE113C6F-85E3-4DBE-A925-75822E2A0D50";
paths = (
{
nodes = (
"282 0 LINE",
"550 700 LINE",
"590 700 LINE",
"323 0 LINE"
);
},
{
nodes = (
"255 680 OFFCURVE",
"329 645 OFFCURVE",
"382 589 OFFCURVE",
"412 518 OFFCURVE",
"412 482 QCURVE SMOOTH",
"412 446 OFFCURVE",
"382 377 OFFCURVE",
"329 321 OFFCURVE",
"255 287 OFFCURVE",
"211 287 QCURVE SMOOTH",
"166 287 OFFCURVE",
"92 322 OFFCURVE",
"38 379 OFFCURVE",
"9 450 OFFCURVE",
"9 487 QCURVE SMOOTH",
"9 522 OFFCURVE",
"41 591 OFFCURVE",
"96 646 OFFCURVE",
"170 680 OFFCURVE",
"211 680 QCURVE SMOOTH"
);
},
{
nodes = (
"177 665 OFFCURVE",
"135 626 OFFCURVE",
"113 570 OFFCURVE",
"106 508 OFFCURVE",
"106 484 QCURVE SMOOTH",
"106 460 OFFCURVE",
"111 398 OFFCURVE",
"132 341 OFFCURVE",
"174 302 OFFCURVE",
"210 302 QCURVE SMOOTH",
"247 302 OFFCURVE",
"288 342 OFFCURVE",
"307 399 OFFCURVE",
"310 462 OFFCURVE",
"310 485 QCURVE SMOOTH",
"310 505 OFFCURVE",
"304 567 OFFCURVE",
"284 624 OFFCURVE",
"246 665 OFFCURVE",
"213 665 QCURVE SMOOTH"
);
},
{
nodes = (
"685 381 OFFCURVE",
"759 346 OFFCURVE",
"812 290 OFFCURVE",
"842 219 OFFCURVE",
"842 183 QCURVE SMOOTH",
"842 147 OFFCURVE",
"812 78 OFFCURVE",
"759 22 OFFCURVE",
"685 -12 OFFCURVE",
"641 -12 QCURVE SMOOTH",
"596 -12 OFFCURVE",
"522 23 OFFCURVE",
"468 80 OFFCURVE",
"439 151 OFFCURVE",
"439 188 QCURVE SMOOTH",
"439 223 OFFCURVE",
"471 292 OFFCURVE",
"526 347 OFFCURVE",
"600 381 OFFCURVE",
"641 381 QCURVE SMOOTH"
);
},
{
nodes = (
"607 366 OFFCURVE",
"565 327 OFFCURVE",
"543 271 OFFCURVE",
"536 209 OFFCURVE",
"536 185 QCURVE SMOOTH",
"536 161 OFFCURVE",
"541 99 OFFCURVE",
"562 42 OFFCURVE",
"604 3 OFFCURVE",
"640 3 QCURVE SMOOTH",
"677 3 OFFCURVE",
"718 43 OFFCURVE",
"737 100 OFFCURVE",
"740 163 OFFCURVE",
"740 186 QCURVE SMOOTH",
"740 206 OFFCURVE",
"734 268 OFFCURVE",
"714 325 OFFCURVE",
"676 366 OFFCURVE",
"643 366 QCURVE SMOOTH"
);
}
);
width = 888;
}
);
unicode = 0025;
},
{
glyphname = ampersand;
layers = (
{
layerId = "DE113C6F-85E3-4DBE-A925-75822E2A0D50";
paths = (
{
nodes = (
"410 20 LINE",
"440 20 LINE",
"417 47 LINE",
"380 25 OFFCURVE",
"302 -9 OFFCURVE",
"258 -9 QCURVE SMOOTH",
"218 -9 OFFCURVE",
"132 18 OFFCURVE",
"60 67 OFFCURVE",
"13 138 OFFCURVE",
"13 183 QCURVE SMOOTH",
"13 211 OFFCURVE",
"37 266 OFFCURVE",
"76 312 OFFCURVE",
"125 348 OFFCURVE",
"151 358 QCURVE",
"124 386 OFFCURVE",
"92 433 OFFCURVE",
"76 470 OFFCURVE",
"71 499 OFFCURVE",
"71 510 QCURVE SMOOTH",
"71 557 OFFCURVE",
"109 622 OFFCURVE",
"171 662 OFFCURVE",
"250 680 OFFCURVE",
"291 680 QCURVE SMOOTH",
"322 680 OFFCURVE",
"384 660 OFFCURVE",
"434 623 OFFCURVE",
"465 569 OFFCURVE",
"465 535 QCURVE SMOOTH",
"465 499 OFFCURVE",
"427 452 OFFCURVE",
"369 423 OFFCURVE",
"301 405 OFFCURVE",
"272 397 QCURVE",
"494 129 LINE",
"529 165 OFFCURVE",
"583 272 OFFCURVE",
"593 323 QCURVE",
"530 323 LINE",
"530 343 LINE",
"672 343 LINE",
"672 323 LINE",
"608 323 LINE",
"600 265 OFFCURVE",
"546 157 OFFCURVE",
"505 115 QCURVE",
"587 20 LINE",
"635 20 LINE",
"635 0 LINE",
"410 0 LINE"
);
},
{
nodes = (
"231 663 OFFCURVE",
"170 606 OFFCURVE",
"170 557 QCURVE SMOOTH",
"170 543 OFFCURVE",
"182 498 OFFCURVE",
"197 482 QCURVE SMOOTH",
"260 411 LINE",
"284 426 OFFCURVE",
"326 448 OFFCURVE",
"357 474 OFFCURVE",
"376 512 OFFCURVE",
"376 542 QCURVE SMOOTH",
"376 566 OFFCURVE",
"366 610 OFFCURVE",
"344 643 OFFCURVE",
"306 663 OFFCURVE",
"279 663 QCURVE SMOOTH"
);
},
{
nodes = (
"139 160 OFFCURVE",
"157 101 OFFCURVE",
"192 54 OFFCURVE",
"243 24 OFFCURVE",
"276 24 QCURVE SMOOTH",
"309 24 OFFCURVE",
"373 47 OFFCURVE",
"402 63 QCURVE",
"176 329 LINE",
"168 315 OFFCURVE",
"155 280 OFFCURVE",
"145 242 OFFCURVE",
"139 204 OFFCURVE",
"139 189 QCURVE SMOOTH"
);
}
);
width = 666;
}
);
unicode = 0026;
},
{
glyphname = quotesingle;
layers = (
{
layerId = "DE113C6F-85E3-4DBE-A925-75822E2A0D50";
paths = (
{
nodes = (
"33 637 LINE",
"37 645 OFFCURVE",
"48 666 OFFCURVE",
"62 683 OFFCURVE",
"75 689 OFFCURVE",
"79 689 QCURVE SMOOTH",
"85 689 OFFCURVE",
"91 686 QCURVE SMOOTH",
"119 669 OFFCURVE",
"126 651 OFFCURVE",
"126 644 QCURVE SMOOTH",
"126 634 OFFCURVE",
"121 619 QCURVE SMOOTH",
"116 605 OFFCURVE",
"101 544 OFFCURVE",
"94 512 QCURVE SMOOTH",
"86 475 OFFCURVE",
"77 433 QCURVE",
"57 433 LINE"
);
}
);
width = 164;
}
);
unicode = 0027;
},
{
glyphname = parenleft;
layers = (
{
layerId = "DE113C6F-85E3-4DBE-A925-75822E2A0D50";
paths = (
{
nodes = (
"145 -77 OFFCURVE",
"70 51 OFFCURVE",
"49 141 QCURVE SMOOTH",
"28 229 OFFCURVE",
"28 310 QCURVE SMOOTH",
"28 351 OFFCURVE",
"38 437 OFFCURVE",
"49 479 QCURVE SMOOTH",
"60 521 OFFCURVE",
"90 597 OFFCURVE",
"107 626 QCURVE",
"125 654 OFFCURVE",
"175 711 OFFCURVE",
"196 728 QCURVE",
"221 746 OFFCURVE",
"274 766 OFFCURVE",
"303 767 QCURVE",
"303 746 LINE",
"265 745 OFFCURVE",
"241 724 QCURVE",
"218 708 OFFCURVE",
"188 650 OFFCURVE",
"168 576 OFFCURVE",
"157 493 OFFCURVE",
"151 411 OFFCURVE",
"150 335 OFFCURVE",
"150 305 QCURVE SMOOTH",
"150 289 OFFCURVE",
"151 246 OFFCURVE",
"153 198 OFFCURVE",
"157 148 OFFCURVE",
"160 124 QCURVE SMOOTH",
"165 78 OFFCURVE",
"174 31 QCURVE SMOOTH",
"183 -12 OFFCURVE",
"219 -88 OFFCURVE",
"243 -111 QCURVE SMOOTH",
"254 -121 OFFCURVE",
"285 -133 OFFCURVE",
"303 -134 QCURVE",
"303 -155 LINE",
"247 -154 OFFCURVE",
"196 -115 QCURVE SMOOTH"
);
}
);
width = 283;
}
);
unicode = 0028;
},
{
glyphname = parenright;
layers = (
{
layerId = "DE113C6F-85E3-4DBE-A925-75822E2A0D50";
paths = (
{
nodes = (
"127 689 OFFCURVE",
"202 561 OFFCURVE",
"223 471 QCURVE SMOOTH",
"244 382 OFFCURVE",
"244 302 QCURVE SMOOTH",
"244 261 OFFCURVE",
"234 175 OFFCURVE",
"223 133 QCURVE SMOOTH",
"212 91 OFFCURVE",
"182 15 OFFCURVE",
"165 -14 QCURVE",
"147 -42 OFFCURVE",
"97 -99 OFFCURVE",
"76 -116 QCURVE",
"51 -134 OFFCURVE",
"-2 -154 OFFCURVE",
"-31 -155 QCURVE",
"-31 -134 LINE",
"7 -133 OFFCURVE",
"31 -112 QCURVE",
"53 -96 OFFCURVE",
"84 -38 OFFCURVE",
"104 36 OFFCURVE",
"115 119 OFFCURVE",
"121 201 OFFCURVE",
"122 277 OFFCURVE",
"122 307 QCURVE SMOOTH",
"122 323 OFFCURVE",
"121 366 OFFCURVE",
"119 414 OFFCURVE",
"115 464 OFFCURVE",
"112 488 QCURVE SMOOTH",
"107 534 OFFCURVE",
"98 581 QCURVE SMOOTH",
"89 624 OFFCURVE",
"53 700 OFFCURVE",
"29 723 QCURVE SMOOTH",
"18 733 OFFCURVE",
"-13 745 OFFCURVE",
"-31 746 QCURVE",
"-31 767 LINE",
"25 766 OFFCURVE",
"76 727 QCURVE SMOOTH"
);
}
);
width = 283;
}
);
unicode = 0029;
},
{
glyphname = asterisk;
layers = (
{
layerId = "DE113C6F-85E3-4DBE-A925-75822E2A0D50";
paths = (
{
nodes = (
"263 439 LINE",
"283 428 OFFCURVE",
"291 407 OFFCURVE",
"291 403 QCURVE SMOOTH",
"291 393 OFFCURVE",
"281 385 QCURVE SMOOTH",
"261 371 OFFCURVE",
"241 371 OFFCURVE",
"227 382 QCURVE SMOOTH",
"218 389 OFFCURVE",
"193 416 OFFCURVE",
"179 430 QCURVE",
"194 358 LINE",
"194 335 OFFCURVE",
"177 315 OFFCURVE",
"167 315 QCURVE SMOOTH",
"163 315 OFFCURVE",
"158 316 QCURVE",
"135 325 OFFCURVE",
"126 339 OFFCURVE",
"126 346 QCURVE SMOOTH",
"126 353 OFFCURVE",
"128 361 QCURVE",
"130 375 OFFCURVE",
"142 425 OFFCURVE",
"149 445 QCURVE",
"89 385 LINE",
"72 374 OFFCURVE",
"56 374 QCURVE",
"56 374 OFFCURVE",
"39 375 OFFCURVE",
"32 391 QCURVE",
"31 399 OFFCURVE",
"31 406 QCURVE SMOOTH",
"31 419 OFFCURVE",
"38 435 OFFCURVE",
"56 442 QCURVE SMOOTH",
"67 447 OFFCURVE",
"107 459 OFFCURVE",
"125 466 QCURVE",
"62 490 LINE",
"44 499 OFFCURVE",
"35 520 OFFCURVE",
"35 524 QCURVE SMOOTH",
"35 534 OFFCURVE",
"44 541 QCURVE SMOOTH",
"64 555 OFFCURVE",
"84 555 OFFCURVE",
"98 544 QCURVE",
"149 493 LINE",
"131 577 LINE",
"131 600 OFFCURVE",
"148 620 OFFCURVE",
"158 620 QCURVE SMOOTH",
"162 620 OFFCURVE",
"167 619 QCURVE",
"190 610 OFFCURVE",
"199 596 OFFCURVE",
"199 589 QCURVE SMOOTH",
"199 582 OFFCURVE",
"197 574 QCURVE SMOOTH",
"196 566 OFFCURVE",
"190 541 OFFCURVE",
"182 513 OFFCURVE",
"175 485 OFFCURVE",
"173 475 QCURVE",
"233 538 LINE",
"250 548 OFFCURVE",
"265 548 QCURVE",
"267 548 OFFCURVE",
"285 547 OFFCURVE",
"290 529 QCURVE",
"291 521 OFFCURVE",
"291 514 QCURVE SMOOTH",
"291 501 OFFCURVE",
"284 488 OFFCURVE",
"266 481 QCURVE",
"257 476 OFFCURVE",
"224 464 OFFCURVE",
"206 457 QCURVE"
);
}
);
width = 343;
}
);
unicode = 002A;
},
{
glyphname = plus;
layers = (
{
layerId = "DE113C6F-85E3-4DBE-A925-75822E2A0D50";
paths = (
{
nodes = (
"234 547 LINE",
"234 377 LINE",
"407 377 LINE",
"407 340 LINE",
"234 340 LINE",
"234 161 LINE",
"197 161 LINE",
"197 340 LINE",
"21 340 LINE",
"21 377 LINE",
"197 377 LINE",
"197 547 LINE"
);
}
);
width = 431;
}
);
unicode = 002B;
},
{
glyphname = comma;
layers = (
{
layerId = "DE113C6F-85E3-4DBE-A925-75822E2A0D50";
paths = (
{
nodes = (
"90 -155 LINE",
"98 -145 OFFCURVE",
"117 -116 OFFCURVE",
"133 -83 OFFCURVE",
"143 -46 OFFCURVE",
"143 -26 QCURVE SMOOTH",
"143 -9 OFFCURVE",
"133 29 OFFCURVE",
"121 49 QCURVE",
"114 43 LINE",
"118 32 OFFCURVE",
"118 24 QCURVE SMOOTH",
"118 13 OFFCURVE",
"102 -9 OFFCURVE",
"80 -9 QCURVE SMOOTH",
"63 -9 OFFCURVE",
"41 18 OFFCURVE",
"41 38 QCURVE SMOOTH",
"41 62 OFFCURVE",
"72 91 OFFCURVE",
"91 91 QCURVE SMOOTH",
"109 91 OFFCURVE",
"136 72 OFFCURVE",
"155 42 OFFCURVE",
"164 4 OFFCURVE",
"164 -15 QCURVE SMOOTH",
"164 -43 OFFCURVE",
"157 -85 OFFCURVE",
"141 -120 OFFCURVE",
"117 -152 OFFCURVE",
"100 -169 QCURVE"
);
}
);
width = 209;
}
);
unicode = 002C;
},
{
glyphname = hyphen;
layers = (
{
layerId = "DE113C6F-85E3-4DBE-A925-75822E2A0D50";
paths = (
{
nodes = (
"45 359 LINE",
"348 359 LINE",
"348 317 LINE",
"45 317 LINE"
);
}
);
width = 394;
}
);
unicode = 002D;
},
{
glyphname = period;
layers = (
{
layerId = "DE113C6F-85E3-4DBE-A925-75822E2A0D50";
paths = (
{
nodes = (
"124 92 OFFCURVE",
"149 62 OFFCURVE",
"149 41 QCURVE SMOOTH",
"149 18 OFFCURVE",
"124 -11 OFFCURVE",
"106 -11 QCURVE SMOOTH",
"89 -11 OFFCURVE",
"64 19 OFFCURVE",
"64 41 QCURVE SMOOTH",
"64 62 OFFCURVE",
"90 92 OFFCURVE",
"107 92 QCURVE SMOOTH"
);
}
);
width = 208;
}
);
unicode = 002E;
},
{
glyphname = slash;
layers = (
{
layerId = "DE113C6F-85E3-4DBE-A925-75822E2A0D50";
paths = (
{
nodes = (
"416 785 LINE",
"452 785 LINE",
"63 -130 LINE",
"27 -130 LINE"
);
}
);
width = 485;
}
);
unicode = 002F;
},
{
glyphname = zero;
layers = (
{
layerId = "DE113C6F-85E3-4DBE-A925-75822E2A0D50";
paths = (
{
nodes = (
"270 670 OFFCURVE",
"332 627 OFFCURVE",
"356 592 QCURVE SMOOTH",
"393 539 OFFCURVE",
"420 403 OFFCURVE",
"420 337 QCURVE SMOOTH",
"420 299 OFFCURVE",
"412 221 OFFCURVE",
"392 148 OFFCURVE",
"361 81 OFFCURVE",
"337 54 QCURVE SMOOTH",
"314 28 OFFCURVE",
"259 -6 OFFCURVE",
"227 -6 QCURVE SMOOTH",
"189 -6 OFFCURVE",
"132 30 OFFCURVE",
"108 63 QCURVE SMOOTH",
"87 91 OFFCURVE",
"60 157 OFFCURVE",
"44 229 OFFCURVE",
"37 303 OFFCURVE",
"37 339 QCURVE SMOOTH",
"37 414 OFFCURVE",
"73 552 OFFCURVE",
"118 606 QCURVE SMOOTH",
"141 634 OFFCURVE",
"197 670 OFFCURVE",
"231 670 QCURVE SMOOTH"
);
},
{
nodes = (
"198 655 OFFCURVE",
"164 614 OFFCURVE",
"154 579 QCURVE SMOOTH",
"148 556 OFFCURVE",
"141 498 OFFCURVE",
"138 436 OFFCURVE",
"137 377 OFFCURVE",
"137 353 QCURVE SMOOTH",
"137 330 LINE SMOOTH",
"137 303 OFFCURVE",
"138 233 OFFCURVE",
"141 161 OFFCURVE",
"148 97 OFFCURVE",
"154 78 QCURVE SMOOTH",
"164 49 OFFCURVE",
"197 9 OFFCURVE",
"224 9 QCURVE SMOOTH",
"259 9 OFFCURVE",
"291 53 OFFCURVE",
"300 91 QCURVE SMOOTH",
"306 117 OFFCURVE",
"312 180 OFFCURVE",
"315 245 OFFCURVE",
"315 278 QCURVE",
"315 280 LINE",
"315 282 OFFCURVE",
"315 283 QCURVE",
"315 285 LINE",
"315 287 OFFCURVE",
"315 288 QCURVE",
"315 295 LINE",
"315 296 OFFCURVE",
"315 297 QCURVE",
"315 303 LINE",
"315 304 OFFCURVE",
"315 305 QCURVE",
"315 340 LINE",
"315 342 OFFCURVE",
"315 343 QCURVE",
"315 344 LINE",
"315 346 OFFCURVE",
"315 347 QCURVE",
"315 353 LINE",
"315 354 OFFCURVE",
"315 355 QCURVE",
"315 360 LINE",
"315 361 OFFCURVE",
"315 361 QCURVE",
"315 396 LINE SMOOTH",
"315 427 OFFCURVE",
"312 491 OFFCURVE",
"306 553 OFFCURVE",
"301 577 QCURVE SMOOTH",
"293 614 OFFCURVE",
"262 655 OFFCURVE",
"230 655 QCURVE SMOOTH"
);
}
);
width = 454;
}
);
unicode = 0030;
},
{
glyphname = one;
layers = (
{
layerId = "DE113C6F-85E3-4DBE-A925-75822E2A0D50";
paths = (
{
nodes = (
"305 667 LINE",
"305 17 LINE",
"377 17 LINE",
"377 0 LINE",
"138 0 LINE",
"138 5 OFFCURVE",
"137 13 OFFCURVE",
"137 17 QCURVE",
"211 17 LINE",
"210 580 LINE",
"181 560 OFFCURVE",
"111 509 OFFCURVE",
"81 489 QCURVE",
"81 511 LINE",
"129 546 OFFCURVE",
"221 625 OFFCURVE",
"263 667 QCURVE"
);
}
);
width = 454;
}
);
unicode = 0031;
},
{
glyphname = two;
layers = (
{
layerId = "DE113C6F-85E3-4DBE-A925-75822E2A0D50";
paths = (
{
nodes = (
"400 185 LINE",
"415 185 LINE",
"409 145 OFFCURVE",
"402 73 OFFCURVE",
"398 33 QCURVE",
"398 25 OFFCURVE",
"395 8 OFFCURVE",
"394 0 QCURVE",
"26 0 LINE",
"33 30 OFFCURVE",
"59 79 OFFCURVE",
"91 122 OFFCURVE",
"128 161 OFFCURVE",
"148 181 QCURVE SMOOTH",
"175 209 OFFCURVE",
"226 268 OFFCURVE",
"267 338 OFFCURVE",
"292 424 OFFCURVE",
"292 480 QCURVE SMOOTH",
"292 512 OFFCURVE",
"279 574 OFFCURVE",
"251 622 OFFCURVE",
"208 652 OFFCURVE",
"178 652 QCURVE SMOOTH",
"160 652 OFFCURVE",
"118 634 OFFCURVE",
"83 602 OFFCURVE",
"60 558 OFFCURVE",
"60 533 QCURVE SMOOTH",
"60 516 OFFCURVE",
"68 511 OFFCURVE",
"73 511 QCURVE",
"75 511 OFFCURVE",
"77 511 QCURVE",
"83 511 LINE SMOOTH",
"103 511 OFFCURVE",
"127 489 OFFCURVE",
"127 463 QCURVE SMOOTH",
"127 442 OFFCURVE",
"104 414 OFFCURVE",
"87 414 QCURVE SMOOTH",
"73 414 OFFCURVE",
"54 429 OFFCURVE",
"41 453 OFFCURVE",
"35 482 OFFCURVE",
"35 496 QCURVE SMOOTH",
"35 539 OFFCURVE",
"64 605 OFFCURVE",
"112 649 OFFCURVE",
"174 671 OFFCURVE",
"207 671 QCURVE SMOOTH",
"243 671 OFFCURVE",
"312 648 OFFCURVE",
"366 601 OFFCURVE",
"399 531 OFFCURVE",
"399 484 QCURVE SMOOTH",
"399 436 OFFCURVE",
"367 359 OFFCURVE",
"315 295 OFFCURVE",
"250 239 OFFCURVE",
"217 212 QCURVE SMOOTH",
"186 187 OFFCURVE",
"127 136 OFFCURVE",
"98 101 QCURVE",
"385 100 LINE"
);
}
);
width = 454;
}
);
unicode = 0032;
},
{
glyphname = three;
layers = (
{
layerId = "DE113C6F-85E3-4DBE-A925-75822E2A0D50";
paths = (
{
nodes = (
"94 372 OFFCURVE",
"94 382 QCURVE",
"109 382 LINE SMOOTH",
"145 382 OFFCURVE",
"212 386 OFFCURVE",
"264 414 OFFCURVE",
"295 474 OFFCURVE",
"295 530 QCURVE SMOOTH",
"295 585 OFFCURVE",
"247 654 OFFCURVE",
"199 654 QCURVE SMOOTH",
"188 654 OFFCURVE",
"155 646 OFFCURVE",
"123 630 OFFCURVE",
"98 606 OFFCURVE",
"97 591 QCURVE",
"99 579 LINE",
"115 582 LINE",
"131 575 OFFCURVE",
"149 559 OFFCURVE",
"149 539 QCURVE SMOOTH",
"149 520 OFFCURVE",
"125 493 OFFCURVE",
"110 493 QCURVE SMOOTH",
"91 493 OFFCURVE",
"69 528 OFFCURVE",
"69 550 QCURVE SMOOTH",
"69 583 OFFCURVE",
"98 629 OFFCURVE",
"142 658 OFFCURVE",
"194 671 OFFCURVE",
"217 671 QCURVE SMOOTH",
"244 671 OFFCURVE",
"306 655 OFFCURVE",
"359 621 OFFCURVE",
"393 566 OFFCURVE",
"393 526 QCURVE SMOOTH",
"393 494 OFFCURVE",
"372 446 OFFCURVE",
"337 411 OFFCURVE",
"289 385 OFFCURVE",
"262 375 QCURVE",
"293 364 OFFCURVE",
"350 333 OFFCURVE",
"392 290 OFFCURVE",
"417 233 OFFCURVE",
"417 194 QCURVE SMOOTH",
"417 144 OFFCURVE",
"374 69 OFFCURVE",
"308 19 OFFCURVE",
"229 -6 OFFCURVE",
"193 -6 QCURVE SMOOTH",
"169 -6 OFFCURVE",
"113 6 OFFCURVE",
"65 35 OFFCURVE",
"32 82 OFFCURVE",
"32 117 QCURVE SMOOTH",
"32 146 OFFCURVE",
"58 191 OFFCURVE",
"84 191 QCURVE SMOOTH",
"102 191 OFFCURVE",
"125 163 OFFCURVE",
"125 142 QCURVE SMOOTH",
"125 115 OFFCURVE",
"96 94 OFFCURVE",
"82 94 QCURVE SMOOTH",
"75 94 OFFCURVE",
"68 96 QCURVE",
"60 86 LINE",
"61 63 OFFCURVE",
"92 35 OFFCURVE",
"134 19 OFFCURVE",
"176 13 OFFCURVE",
"188 13 QCURVE SMOOTH",
"215 13 OFFCURVE",
"260 43 OFFCURVE",
"291 91 OFFCURVE",
"308 151 OFFCURVE",
"308 181 QCURVE SMOOTH",
"308 247 OFFCURVE",
"273 322 OFFCURVE",
"214 359 OFFCURVE",
"136 367 OFFCURVE",
"93 367 QCURVE"
);
}
);
width = 454;
}
);
unicode = 0033;
},
{
glyphname = four;
layers = (
{
layerId = "DE113C6F-85E3-4DBE-A925-75822E2A0D50";
paths = (
{
nodes = (
"418 304 LINE",
"418 235 LINE",
"339 235 LINE",
"339 17 LINE",
"416 17 LINE",
"416 0 LINE",
"165 0 LINE",
"165 17 LINE",
"240 17 LINE",
"240 235 LINE",
"19 235 LINE SMOOTH",
"12 235 OFFCURVE",
"12 239 QCURVE",
"15 245 LINE",
"15 244 LINE",
"304 683 LINE",
"321 683 LINE",
"77 304 LINE",
"242 304 LINE",
"242 457 LINE",
"339 589 LINE",
"339 304 LINE"
);
}
);
width = 454;
}
);
unicode = 0034;
},
{
glyphname = five;
layers = (
{
layerId = "DE113C6F-85E3-4DBE-A925-75822E2A0D50";
paths = (
{
nodes = (
"68 357 LINE",
"83 421 OFFCURVE",
"83 490 QCURVE SMOOTH",
"83 511 OFFCURVE",
"78 554 OFFCURVE",
"76 575 QCURVE",
"73 595 OFFCURVE",
"69 633 OFFCURVE",
"69 650 QCURVE SMOOTH",
"69 658 OFFCURVE",
"96 667 OFFCURVE",
"132 672 OFFCURVE",
"166 673 OFFCURVE",
"172 673 QCURVE SMOOTH",
"192 673 OFFCURVE",
"233 668 OFFCURVE",
"253 664 QCURVE",
"274 661 OFFCURVE",
"314 655 OFFCURVE",
"335 655 QCURVE SMOOTH",
"344 655 OFFCURVE",
"349 675 OFFCURVE",
"349 683 QCURVE",
"363 683 LINE",
"363 666 LINE SMOOTH",
"363 617 OFFCURVE",
"313 555 OFFCURVE",
"271 555 QCURVE SMOOTH",
"257 555 OFFCURVE",
"227 559 OFFCURVE",
"212 562 QCURVE SMOOTH",
"197 565 OFFCURVE",
"166 570 OFFCURVE",
"150 570 QCURVE SMOOTH",
"138 570 OFFCURVE",
"112 563 OFFCURVE",
"97 555 QCURVE",
"98 545 OFFCURVE",
"99 522 OFFCURVE",
"99 512 QCURVE SMOOTH",
"99 499 OFFCURVE",
"96 471 OFFCURVE",
"95 457 QCURVE SMOOTH",
"93 443 OFFCURVE",
"91 415 OFFCURVE",
"91 400 QCURVE SMOOTH",
"91 385 LINE",
"147 413 OFFCURVE",
"200 413 QCURVE SMOOTH",
"239 413 OFFCURVE",
"318 389 OFFCURVE",
"381 338 OFFCURVE",
"421 261 OFFCURVE",
"421 208 QCURVE SMOOTH",
"421 148 OFFCURVE",
"380 66 OFFCURVE",
"313 16 OFFCURVE",
"229 -6 OFFCURVE",
"187 -6 QCURVE SMOOTH",
"161 -6 OFFCURVE",
"106 8 OFFCURVE",
"61 40 OFFCURVE",
"32 90 OFFCURVE",
"32 126 QCURVE SMOOTH",
"32 152 OFFCURVE",
"58 192 OFFCURVE",
"81 192 QCURVE SMOOTH",
"98 192 OFFCURVE",
"122 166 OFFCURVE",
"122 146 QCURVE SMOOTH",
"122 118 OFFCURVE",
"91 104 OFFCURVE",
"72 104 QCURVE SMOOTH",
"64 104 OFFCURVE",
"60 92 OFFCURVE",
"60 84 QCURVE SMOOTH",
"60 63 OFFCURVE",
"89 34 OFFCURVE",
"128 17 OFFCURVE",
"170 10 OFFCURVE",
"182 10 QCURVE SMOOTH",
"215 10 OFFCURVE",
"264 42 OFFCURVE",
"297 95 OFFCURVE",
"313 163 OFFCURVE",
"313 200 QCURVE SMOOTH",
"313 237 OFFCURVE",
"300 307 OFFCURVE",
"270 361 OFFCURVE",
"221 394 OFFCURVE",
"185 394 QCURVE SMOOTH",
"155 394 OFFCURVE",
"101 374 OFFCURVE",
"77 351 QCURVE"
);
}
);
width = 454;
}
);
unicode = 0035;
},
{
glyphname = six;
layers = (
{
layerId = "DE113C6F-85E3-4DBE-A925-75822E2A0D50";
paths = (
{
nodes = (
"380 670 LINE",
"326 655 OFFCURVE",
"246 607 OFFCURVE",
"220 575 QCURVE SMOOTH",
"166 508 OFFCURVE",
"150 390 QCURVE",
"204 423 OFFCURVE",
"247 423 QCURVE SMOOTH",
"323 423 OFFCURVE",
"373 367 QCURVE",
"422 309 OFFCURVE",
"422 222 QCURVE SMOOTH",
"422 129 OFFCURVE",
"365 62 QCURVE",
"311 -5 OFFCURVE",
"232 -5 QCURVE SMOOTH",
"147 -5 OFFCURVE",
"94 70 QCURVE",
"37 143 OFFCURVE",
"37 259 QCURVE SMOOTH",
"37 338 OFFCURVE",
"68 420 QCURVE",
"82 462 OFFCURVE",
"131 536 OFFCURVE",
"165 573 QCURVE",
"228 645 OFFCURVE",
"378 684 QCURVE"
);
},
{
nodes = (
"274 10 OFFCURVE",
"329 107 OFFCURVE",
"332 215 QCURVE",
"326 399 OFFCURVE",
"237 404 QCURVE",
"175 404 OFFCURVE",
"154 345 QCURVE",
"146 318 OFFCURVE",
"134 252 OFFCURVE",
"134 217 QCURVE",
"138 107 OFFCURVE",
"183 10 OFFCURVE",
"235 10 QCURVE SMOOTH"
);
}
);
width = 454;
}
);
unicode = 0036;
},
{
glyphname = seven;
layers = (
{
layerId = "DE113C6F-85E3-4DBE-A925-75822E2A0D50";
paths = (
{
nodes = (
"32 506 LINE",
"36 538 OFFCURVE",
"41 597 OFFCURVE",
"44 629 QCURVE SMOOTH",
"45 639 OFFCURVE",
"48 658 OFFCURVE",
"49 667 QCURVE",
"436 667 LINE",
"326 396 LINE",
"327 396 LINE",
"321 382 OFFCURVE",
"302 333 OFFCURVE",
"279 273 OFFCURVE",
"256 208 OFFCURVE",
"237 148 OFFCURVE",
"225 99 OFFCURVE",
"225 86 QCURVE SMOOTH",
"225 76 OFFCURVE",
"232 76 QCURVE",
"234 76 OFFCURVE",
"240 78 QCURVE",
"245 82 OFFCURVE",
"252 82 QCURVE SMOOTH",
"268 82 OFFCURVE",
"289 56 OFFCURVE",
"289 38 QCURVE SMOOTH",
"289 -6 OFFCURVE",
"251 -6 QCURVE SMOOTH",
"225 -6 OFFCURVE",
"203 40 OFFCURVE",
"203 68 QCURVE SMOOTH",
"203 89 OFFCURVE",
"220 167 OFFCURVE",
"248 263 OFFCURVE",
"281 368 OFFCURVE",
"314 464 OFFCURVE",
"341 542 OFFCURVE",
"349 563 QCURVE",
"66 563 LINE",
"58 553 OFFCURVE",
"50 521 OFFCURVE",
"47 508 QCURVE",
"47 506 LINE"
);
}
);
width = 454;
}
);
unicode = 0037;
},
{
glyphname = eight;
layers = (
{
layerId = "DE113C6F-85E3-4DBE-A925-75822E2A0D50";
paths = (
{
nodes = (
"188 364 LINE",
"165 372 OFFCURVE",
"120 397 OFFCURVE",
"83 432 OFFCURVE",
"60 479 OFFCURVE",
"60 511 QCURVE SMOOTH",
"60 551 OFFCURVE",
"91 611 OFFCURVE",
"141 650 OFFCURVE",
"202 670 OFFCURVE",
"232 670 QCURVE SMOOTH",
"261 670 OFFCURVE",
"320 651 OFFCURVE",
"367 613 OFFCURVE",
"397 555 OFFCURVE",
"397 515 QCURVE SMOOTH",
"397 483 OFFCURVE",
"371 434 OFFCURVE",
"329 396 OFFCURVE",
"278 368 OFFCURVE",
"253 358 QCURVE",
"282 346 OFFCURVE",
"343 313 OFFCURVE",
"392 268 OFFCURVE",
"424 210 OFFCURVE",
"424 172 QCURVE SMOOTH",
"424 126 OFFCURVE",
"387 59 OFFCURVE",
"330 15 OFFCURVE",
"259 -6 OFFCURVE",
"226 -6 QCURVE SMOOTH",
"193 -6 OFFCURVE",
"124 13 OFFCURVE",
"69 53 OFFCURVE",
"33 118 OFFCURVE",
"33 164 QCURVE SMOOTH",
"33 203 OFFCURVE",
"61 262 OFFCURVE",
"106 307 OFFCURVE",
"162 339 OFFCURVE",
"189 351 QCURVE"
);
},
{
nodes = (
"257 365 OFFCURVE",
"285 396 OFFCURVE",
"299 442 OFFCURVE",
"302 495 OFFCURVE",
"302 517 QCURVE SMOOTH",
"302 538 OFFCURVE",
"297 586 OFFCURVE",
"282 627 OFFCURVE",
"254 655 OFFCURVE",
"232 655 QCURVE SMOOTH",
"208 655 OFFCURVE",
"176 630 OFFCURVE",
"158 590 OFFCURVE",
"151 541 OFFCURVE",
"151 517 QCURVE SMOOTH",
"151 491 OFFCURVE",
"155 438 OFFCURVE",
"171 393 OFFCURVE",
"203 365 OFFCURVE",
"232 365 QCURVE SMOOTH"
);
},
{
nodes = (
"197 349 OFFCURVE",
"158 317 OFFCURVE",
"137 266 OFFCURVE",
"131 203 OFFCURVE",
"131 173 QCURVE SMOOTH",
"131 140 OFFCURVE",
"138 81 OFFCURVE",
"159 36 OFFCURVE",
"199 9 OFFCURVE",
"232 9 QCURVE SMOOTH",
"262 9 OFFCURVE",
"299 35 OFFCURVE",
"321 78 OFFCURVE",
"329 135 OFFCURVE",
"329 165 QCURVE SMOOTH",
"329 195 OFFCURVE",
"323 260 OFFCURVE",
"303 314 OFFCURVE",
"264 349 OFFCURVE",
"230 349 QCURVE SMOOTH"
);
}
);
width = 454;
}
);
unicode = 0038;
},
{
glyphname = nine;
layers = (
{
layerId = "DE113C6F-85E3-4DBE-A925-75822E2A0D50";
paths = (
{
nodes = (
"77 -5 LINE",
"132 10 OFFCURVE",
"211 58 OFFCURVE",
"237 90 QCURVE SMOOTH",
"263 122 OFFCURVE",
"298 214 OFFCURVE",
"306 274 QCURVE",
"253 242 OFFCURVE",
"210 242 QCURVE SMOOTH",
"134 242 OFFCURVE",
"83 298 QCURVE",
"59 327 OFFCURVE",
"34 398 OFFCURVE",
"34 443 QCURVE SMOOTH",
"34 534 OFFCURVE",
"91 603 QCURVE SMOOTH",
"146 670 OFFCURVE",
"224 670 QCURVE SMOOTH",
"309 670 OFFCURVE",
"363 595 QCURVE SMOOTH",
"419 519 OFFCURVE",
"419 406 QCURVE SMOOTH",
"419 322 OFFCURVE",
"358 166 OFFCURVE",
"291 92 QCURVE SMOOTH",
"224 20 OFFCURVE",
"80 -19 QCURVE"
);
},
{
nodes = (
"182 655 OFFCURVE",
"128 558 OFFCURVE",
"124 450 QCURVE",
"131 266 OFFCURVE",
"219 261 QCURVE",
"282 261 OFFCURVE",
"302 320 QCURVE",
"312 346 OFFCURVE",
"322 407 OFFCURVE",
"322 437 QCURVE SMOOTH",
"322 442 OFFCURVE",
"322 448 QCURVE",
"318 558 OFFCURVE",
"273 655 OFFCURVE",
"222 655 QCURVE SMOOTH"
);
}
);
width = 454;
}
);
unicode = 0039;
},
{
glyphname = colon;
layers = (
{
layerId = "DE113C6F-85E3-4DBE-A925-75822E2A0D50";
paths = (
{
nodes = (
"121 359 OFFCURVE",
"146 330 OFFCURVE",
"146 309 QCURVE SMOOTH",
"146 286 OFFCURVE",
"121 257 OFFCURVE",
"103 257 QCURVE SMOOTH",
"86 257 OFFCURVE",
"61 287 OFFCURVE",
"61 309 QCURVE SMOOTH",
"61 330 OFFCURVE",
"87 359 OFFCURVE",
"104 359 QCURVE SMOOTH"
);
},
{
nodes = (
"122 94 OFFCURVE",
"148 64 OFFCURVE",
"148 43 QCURVE SMOOTH",
"148 20 OFFCURVE",
"123 -9 OFFCURVE",
"105 -9 QCURVE SMOOTH",
"87 -9 OFFCURVE",
"62 21 OFFCURVE",
"62 43 QCURVE SMOOTH",
"62 64 OFFCURVE",
"88 94 OFFCURVE",
"105 94 QCURVE SMOOTH"
);
}
);
width = 208;
}
);
unicode = 003A;
},
{
glyphname = semicolon;
layers = (
{
layerId = "DE113C6F-85E3-4DBE-A925-75822E2A0D50";
paths = (
{
nodes = (
"115 359 OFFCURVE",
"140 330 OFFCURVE",
"140 309 QCURVE SMOOTH",
"140 286 OFFCURVE",
"115 257 OFFCURVE",
"97 257 QCURVE SMOOTH",
"79 257 OFFCURVE",
"55 287 OFFCURVE",
"55 309 QCURVE SMOOTH",
"55 330 OFFCURVE",
"81 359 OFFCURVE",
"98 359 QCURVE SMOOTH"
);
},
{
nodes = (
"90 -155 LINE",
"98 -145 OFFCURVE",
"117 -116 OFFCURVE",
"133 -83 OFFCURVE",
"143 -46 OFFCURVE",
"143 -26 QCURVE SMOOTH",
"143 -9 OFFCURVE",
"133 29 OFFCURVE",
"121 49 QCURVE",
"114 43 LINE",
"118 32 OFFCURVE",
"118 24 QCURVE SMOOTH",
"118 13 OFFCURVE",
"102 -9 OFFCURVE",
"80 -9 QCURVE SMOOTH",
"63 -9 OFFCURVE",
"41 18 OFFCURVE",
"41 38 QCURVE SMOOTH",
"41 62 OFFCURVE",
"72 91 OFFCURVE",
"91 91 QCURVE SMOOTH",
"109 91 OFFCURVE",
"136 72 OFFCURVE",
"155 42 OFFCURVE",
"164 4 OFFCURVE",
"164 -15 QCURVE SMOOTH",
"164 -43 OFFCURVE",
"157 -85 OFFCURVE",
"141 -120 OFFCURVE",
"117 -152 OFFCURVE",
"100 -169 QCURVE"
);
}
);
width = 209;
}
);
unicode = 003B;
},
{
glyphname = less;
layers = (
{
layerId = "DE113C6F-85E3-4DBE-A925-75822E2A0D50";
paths = (
{
nodes = (
"28 356 LINE",
"215 501 LINE",
"238 462 LINE",
"63 327 LINE",
"238 191 LINE",
"215 152 LINE",
"28 297 LINE"
);
}
);
width = 250;
}
);
unicode = 003C;
},
{
glyphname = equal;
layers = (
{
layerId = "DE113C6F-85E3-4DBE-A925-75822E2A0D50";
paths = (
{
nodes = (
"45 299 LINE",
"348 299 LINE",
"348 257 LINE",
"45 257 LINE"
);
},
{
nodes = (
"45 439 LINE",
"348 439 LINE",
"348 397 LINE",
"45 397 LINE"
);
}
);
width = 388;
}
);
unicode = 003D;
},
{
glyphname = greater;
layers = (
{
layerId = "DE113C6F-85E3-4DBE-A925-75822E2A0D50";
paths = (
{
nodes = (
"238 297 LINE",
"51 152 LINE",
"28 191 LINE",
"203 326 LINE",
"28 462 LINE",
"51 501 LINE",
"238 356 LINE"
);
}
);
width = 250;
}
);
unicode = 003E;
},
{
glyphname = question;
layers = (
{
layerId = "DE113C6F-85E3-4DBE-A925-75822E2A0D50";
paths = (
{
nodes = (
"112 184 OFFCURVE",
"114 166 OFFCURVE",
"116 156 QCURVE",
"101 153 LINE",
"89 184 OFFCURVE",
"75 245 OFFCURVE",
"75 268 QCURVE SMOOTH",
"75 300 OFFCURVE",
"96 353 OFFCURVE",
"128 397 OFFCURVE",
"168 433 OFFCURVE",
"188 450 QCURVE SMOOTH",
"204 463 OFFCURVE",
"233 489 OFFCURVE",
"256 517 OFFCURVE",
"270 547 OFFCURVE",
"270 564 QCURVE SMOOTH",
"270 590 OFFCURVE",
"250 629 OFFCURVE",
"218 654 OFFCURVE",
"179 667 OFFCURVE",
"161 667 QCURVE SMOOTH",
"152 667 OFFCURVE",
"124 660 OFFCURVE",
"96 647 OFFCURVE",
"76 625 OFFCURVE",
"76 610 QCURVE SMOOTH",
"76 603 OFFCURVE",
"90 597 OFFCURVE",
"94 597 QCURVE",
"129 590 OFFCURVE",
"129 550 QCURVE SMOOTH",
"129 530 OFFCURVE",
"107 505 OFFCURVE",
"90 505 QCURVE SMOOTH",
"79 505 OFFCURVE",
"63 517 OFFCURVE",
"52 537 OFFCURVE",
"46 560 OFFCURVE",
"46 572 QCURVE SMOOTH",
"46 598 OFFCURVE",
"67 640 OFFCURVE",
"100 669 OFFCURVE",
"141 684 OFFCURVE",
"161 684 QCURVE SMOOTH",
"222 684 OFFCURVE",
"297 594 OFFCURVE",
"297 520 QCURVE SMOOTH",
"297 502 OFFCURVE",
"294 464 OFFCURVE",
"288 446 QCURVE SMOOTH",
"273 400 OFFCURVE",
"213 336 OFFCURVE",
"186 313 QCURVE SMOOTH",
"171 301 OFFCURVE",
"145 276 OFFCURVE",
"124 248 OFFCURVE",
"112 215 OFFCURVE",
"112 194 QCURVE SMOOTH"
);
},
{
nodes = (
"127 159 LINE",
"119 149 LINE",
"116 156 LINE"
);
},
{
nodes = (
"134 92 OFFCURVE",
"159 62 OFFCURVE",
"159 41 QCURVE SMOOTH",
"159 18 OFFCURVE",
"133 -11 OFFCURVE",
"116 -11 QCURVE SMOOTH",
"98 -11 OFFCURVE",
"74 19 OFFCURVE",
"74 41 QCURVE SMOOTH",
"74 62 OFFCURVE",
"99 92 OFFCURVE",
"117 92 QCURVE SMOOTH"
);
}
);
width = 330;
}
);
unicode = 003F;
},
{
glyphname = at;
layers = (
{
layerId = "DE113C6F-85E3-4DBE-A925-75822E2A0D50";
paths = (
{
nodes = (
"775 240 OFFCURVE",
"768 209 QCURVE SMOOTH",
"765 194 OFFCURVE",
"753 155 OFFCURVE",
"740 135 QCURVE",
"731 117 OFFCURVE",
"714 103 QCURVE SMOOTH",
"700 90 OFFCURVE",
"654 68 OFFCURVE",
"621 64 QCURVE SMOOTH",
"597 61 OFFCURVE",
"565 60 OFFCURVE",
"562 60 QCURVE SMOOTH",
"536 60 OFFCURVE",
"487 70 OFFCURVE",
"449 96 OFFCURVE",
"446 122 QCURVE",
"446 123 LINE",
"429 114 OFFCURVE",
"384 95 OFFCURVE",
"330 83 OFFCURVE",
"296 82 OFFCURVE",
"291 82 QCURVE SMOOTH",
"265 82 OFFCURVE",
"237 87 QCURVE SMOOTH",
"202 94 OFFCURVE",
"163 144 OFFCURVE",
"156 194 OFFCURVE",
"156 210 QCURVE SMOOTH",
"156 232 OFFCURVE",
"167 296 OFFCURVE",
"200 371 OFFCURVE",
"250 433 OFFCURVE",
"281 448 QCURVE SMOOTH",
"322 469 OFFCURVE",
"368 471 OFFCURVE",
"375 471 QCURVE SMOOTH",
"406 471 OFFCURVE",
"463 458 OFFCURVE",
"506 436 OFFCURVE",
"514 431 QCURVE",
"514 433 LINE",
"515 434 LINE",
"612 441 LINE",
"548 171 LINE SMOOTH",
"544 155 OFFCURVE",
"544 141 QCURVE",
"544 139 OFFCURVE",
"544 136 QCURVE",
"545 122 OFFCURVE",
"559 98 OFFCURVE",
"579 95 QCURVE SMOOTH",
"593 93 OFFCURVE",
"608 93 QCURVE SMOOTH",
"613 93 OFFCURVE",
"637 94 OFFCURVE",
"674 108 OFFCURVE",
"707 135 OFFCURVE",
"719 157 QCURVE SMOOTH",
"733 181 OFFCURVE",
"748 242 OFFCURVE",
"748 273 QCURVE SMOOTH",
"748 341 OFFCURVE",
"693 461 OFFCURVE",
"598 550 OFFCURVE",
"470 602 OFFCURVE",
"398 602 QCURVE SMOOTH",
"326 602 OFFCURVE",
"198 550 OFFCURVE",
"103 461 OFFCURVE",
"48 341 OFFCURVE",
"48 273 QCURVE SMOOTH",
"48 205 OFFCURVE",
"103 85 OFFCURVE",
"198 -4 OFFCURVE",
"326 -56 OFFCURVE",
"398 -56 QCURVE SMOOTH",
"480 -56 OFFCURVE",
"555 -21 QCURVE",
"559 -19 LINE",
"563 -21 LINE",
"565 -23 OFFCURVE",
"571 -26 OFFCURVE",
"573 -28 QCURVE",
"585 -35 LINE",
"573 -41 LINE",
"565 -44 OFFCURVE",
"552 -51 OFFCURVE",
"545 -53 QCURVE",
"476 -81 OFFCURVE",
"398 -81 QCURVE SMOOTH",
"320 -81 OFFCURVE",
"251 -53 QCURVE SMOOTH",
"183 -26 OFFCURVE",
"131 23 QCURVE SMOOTH",
"80 71 OFFCURVE",
"51 135 QCURVE SMOOTH",
"21 201 OFFCURVE",
"21 273 QCURVE SMOOTH",
"21 345 OFFCURVE",
"51 411 QCURVE SMOOTH",
"80 475 OFFCURVE",
"131 523 QCURVE SMOOTH",
"183 572 OFFCURVE",
"251 599 QCURVE SMOOTH",
"320 627 OFFCURVE",
"398 627 QCURVE SMOOTH",
"476 627 OFFCURVE",
"545 599 QCURVE SMOOTH",
"613 572 OFFCURVE",
"665 523 QCURVE SMOOTH",
"718 473 OFFCURVE",
"746 411 QCURVE SMOOTH",
"775 344 OFFCURVE",
"775 273 QCURVE SMOOTH"
);
},
{
nodes = (
"317 112 OFFCURVE",
"327 112 QCURVE SMOOTH",
"334 112 OFFCURVE",
"363 116 OFFCURVE",
"403 130 OFFCURVE",
"437 145 OFFCURVE",
"446 150 QCURVE",
"448 176 OFFCURVE",
"463 248 OFFCURVE",
"481 321 OFFCURVE",
"501 387 OFFCURVE",
"507 408 QCURVE",
"450 433 OFFCURVE",
"410 434 OFFCURVE",
"409 434 QCURVE",
"372 434 OFFCURVE",
"322 404 OFFCURVE",
"292 351 OFFCURVE",
"282 322 QCURVE SMOOTH",
"272 292 OFFCURVE",
"265 236 OFFCURVE",
"265 216 QCURVE SMOOTH",
"265 204 OFFCURVE",
"268 163 OFFCURVE",
"289 119 OFFCURVE",
"308 114 QCURVE SMOOTH"
);
}
);
width = 796;
}
);
unicode = 0040;
},
{
glyphname = A;
layers = (
{
layerId = "DE113C6F-85E3-4DBE-A925-75822E2A0D50";
paths = (
{
nodes = (
"-5 17 LINE",
"17 17 OFFCURVE",
"45 23 OFFCURVE",
"63 39 OFFCURVE",
"75 70 OFFCURVE",
"83 94 QCURVE",
"126 240 OFFCURVE",
"214 531 OFFCURVE",
"258 677 QCURVE",
"292 677 LINE",
"505 17 LINE",
"549 17 LINE",
"549 0 LINE",
"310 0 LINE",
"310 17 LINE",
"377 17 LINE",
"313 218 LINE",
"139 218 LINE",
"132 198 LINE SMOOTH",
"127 183 OFFCURVE",
"113 137 OFFCURVE",
"100 91 OFFCURVE",
"90 53 OFFCURVE",
"90 46 QCURVE SMOOTH",
"90 34 OFFCURVE",
"109 22 OFFCURVE",
"135 17 OFFCURVE",
"149 17 QCURVE SMOOTH",
"154 17 LINE",
"155 17 OFFCURVE",
"156 17 QCURVE",
"157 17 LINE",
"157 17 OFFCURVE",
"158 17 QCURVE",
"159 17 OFFCURVE",
"159 17 QCURVE",
"160 17 LINE",
"160 17 OFFCURVE",
"160 17 QCURVE",
"172 17 LINE",
"172 0 LINE",
"-5 0 LINE"
);
},
{
nodes = (
"144 235 LINE",
"308 235 LINE",
"224 497 LINE"
);
}
);
width = 536;
}
);
unicode = 0041;
},
{
glyphname = B;
layers = (
{
layerId = "DE113C6F-85E3-4DBE-A925-75822E2A0D50";
paths = (
{
nodes = (
"27 667 LINE",
"228 667 LINE SMOOTH",
"265 667 OFFCURVE",
"353 661 OFFCURVE",
"429 630 OFFCURVE",
"480 565 OFFCURVE",
"480 506 QCURVE SMOOTH",
"480 447 OFFCURVE",
"419 370 OFFCURVE",
"371 357 QCURVE",
"371 347 LINE",
"398 339 OFFCURVE",
"446 313 OFFCURVE",
"482 273 OFFCURVE",
"502 218 OFFCURVE",
"502 181 QCURVE SMOOTH",
"502 121 OFFCURVE",
"460 49 OFFCURVE",
"394 11 OFFCURVE",
"312 0 OFFCURVE",
"273 0 QCURVE SMOOTH",
"27 0 LINE",
"27 17 LINE",
"81 17 LINE",
"81 650 LINE",
"27 650 LINE"
);
},
{
nodes = (
"192 363 LINE",
"206 363 LINE SMOOTH",
"234 363 OFFCURVE",
"292 372 OFFCURVE",
"340 402 OFFCURVE",
"370 456 OFFCURVE",
"370 501 QCURVE SMOOTH",
"370 536 OFFCURVE",
"345 593 OFFCURVE",
"305 633 OFFCURVE",
"254 654 OFFCURVE",
"227 654 QCURVE SMOOTH",
"219 654 OFFCURVE",
"202 651 OFFCURVE",
"192 649 QCURVE"
);
},
{
nodes = (
"192 17 LINE",
"247 17 LINE SMOOTH",
"308 17 OFFCURVE",
"384 100 OFFCURVE",
"384 174 QCURVE SMOOTH",
"384 229 OFFCURVE",
"356 297 OFFCURVE",
"305 334 OFFCURVE",
"235 347 OFFCURVE",
"192 347 QCURVE"
);
}
);
width = 535;
}
);
unicode = 0042;
},
{
glyphname = C;
layers = (
{
layerId = "DE113C6F-85E3-4DBE-A925-75822E2A0D50";
paths = (
{
nodes = (
"484 0 LINE",
"484 9 OFFCURVE",
"482 29 OFFCURVE",
"476 46 OFFCURVE",
"465 58 OFFCURVE",
"456 58 QCURVE SMOOTH",
"451 58 OFFCURVE",
"434 48 OFFCURVE",
"423 40 QCURVE SMOOTH",
"403 24 OFFCURVE",
"340 -11 OFFCURVE",
"297 -11 QCURVE SMOOTH",
"238 -11 OFFCURVE",
"143 42 OFFCURVE",
"77 132 OFFCURVE",
"41 253 OFFCURVE",
"41 321 QCURVE SMOOTH",
"41 389 OFFCURVE",
"76 518 OFFCURVE",
"142 617 OFFCURVE",
"238 677 OFFCURVE",
"300 677 QCURVE SMOOTH",
"327 677 OFFCURVE",
"369 660 OFFCURVE",
"405 640 OFFCURVE",
"437 623 OFFCURVE",
"455 623 QCURVE SMOOTH",
"467 623 OFFCURVE",
"479 636 OFFCURVE",
"481 650 QCURVE",
"499 650 LINE",
"499 448 LINE",
"479 448 LINE",
"477 484 OFFCURVE",
"450 557 OFFCURVE",
"408 616 OFFCURVE",
"351 653 OFFCURVE",
"319 653 QCURVE SMOOTH",
"287 653 OFFCURVE",
"241 619 OFFCURVE",
"209 563 OFFCURVE",
"190 492 OFFCURVE",
"179 419 OFFCURVE",
"176 348 OFFCURVE",
"176 321 QCURVE SMOOTH",
"176 270 OFFCURVE",
"188 165 OFFCURVE",
"224 78 OFFCURVE",
"290 23 OFFCURVE",
"344 23 QCURVE SMOOTH",
"373 23 OFFCURVE",
"421 66 OFFCURVE",
"457 131 OFFCURVE",
"480 206 OFFCURVE",
"484 238 QCURVE",
"499 238 LINE",
"499 0 LINE"
);
}
);
width = 551;
}
);
unicode = 0043;
},
{
glyphname = D;
layers = (
{
layerId = "DE113C6F-85E3-4DBE-A925-75822E2A0D50";
paths = (
{
nodes = (
"27 667 LINE",
"234 667 LINE SMOOTH",
"304 667 OFFCURVE",
"430 635 OFFCURVE",
"525 558 OFFCURVE",
"581 428 OFFCURVE",
"581 331 QCURVE SMOOTH",
"581 236 OFFCURVE",
"528 109 OFFCURVE",
"437 33 OFFCURVE",
"316 0 OFFCURVE",
"247 0 QCURVE SMOOTH",
"27 0 LINE",
"27 17 LINE",
"84 17 LINE",
"84 649 LINE",
"27 649 LINE"
);
},
{
nodes = (
"202 649 LINE",
"202 17 LINE",
"274 17 OFFCURVE",
"372 56 OFFCURVE",
"432 136 OFFCURVE",
"458 257 OFFCURVE",
"458 339 QCURVE SMOOTH",
"458 406 OFFCURVE",
"430 520 OFFCURVE",
"373 603 OFFCURVE",
"286 650 OFFCURVE",
"227 650 QCURVE"
);
}
);
width = 616;
}
);
unicode = 0044;
},
{
glyphname = E;
layers = (
{
layerId = "DE113C6F-85E3-4DBE-A925-75822E2A0D50";
paths = (
{
nodes = (
"198 20 LINE",
"295 20 LINE SMOOTH",
"341 20 OFFCURVE",
"420 25 OFFCURVE",
"478 58 OFFCURVE",
"512 130 OFFCURVE",
"512 197 QCURVE",
"529 197 LINE",
"529 0 LINE",
"27 0 LINE",
"27 17 LINE",
"77 17 LINE",
"77 650 LINE",
"27 650 LINE",
"27 667 LINE",
"528 667 LINE",
"529 503 LINE",
"512 503 LINE",
"504 558 OFFCURVE",
"463 617 OFFCURVE",
"404 644 OFFCURVE",
"329 647 OFFCURVE",
"286 647 QCURVE SMOOTH",
"198 647 LINE",
"198 352 LINE",
"224 352 LINE SMOOTH",
"255 352 OFFCURVE",
"302 356 OFFCURVE",
"334 378 OFFCURVE",
"350 425 OFFCURVE",
"351 467 QCURVE",
"367 467 LINE",
"367 215 LINE",
"351 215 LINE",
"350 253 OFFCURVE",
"337 298 OFFCURVE",
"313 321 OFFCURVE",
"279 328 OFFCURVE",
"257 328 QCURVE SMOOTH",
"198 328 LINE"
);
}
);
width = 558;
}
);
unicode = 0045;
},
{
glyphname = F;
layers = (
{
layerId = "DE113C6F-85E3-4DBE-A925-75822E2A0D50";
paths = (
{
nodes = (
"490 491 LINE",
"472 491 LINE",
"470 550 OFFCURVE",
"442 615 OFFCURVE",
"393 645 OFFCURVE",
"326 650 OFFCURVE",
"286 650 QCURVE SMOOTH",
"192 650 LINE",
"192 353 LINE",
"225 353 LINE SMOOTH",
"259 353 OFFCURVE",
"311 356 OFFCURVE",
"346 379 OFFCURVE",
"363 428 OFFCURVE",
"363 475 QCURVE",
"379 475 LINE",
"379 213 LINE",
"363 213 LINE",
"362 252 OFFCURVE",
"346 299 OFFCURVE",
"318 324 OFFCURVE",
"280 332 OFFCURVE",
"256 332 QCURVE SMOOTH",
"228 332 LINE SMOOTH",
"220 332 OFFCURVE",
"200 331 OFFCURVE",
"192 331 QCURVE",
"192 17 LINE",
"251 17 LINE",
"251 0 LINE",
"27 0 LINE",
"27 17 LINE",
"76 17 LINE",
"76 650 LINE",
"27 650 LINE",
"27 667 LINE",
"489 667 LINE"
);
}
);
width = 509;
}
);
unicode = 0046;
},
{
glyphname = G;
layers = (
{
layerId = "DE113C6F-85E3-4DBE-A925-75822E2A0D50";
paths = (
{
nodes = (
"502 453 LINE",
"482 453 LINE",
"477 490 OFFCURVE",
"454 560 OFFCURVE",
"418 614 OFFCURVE",
"366 646 OFFCURVE",
"332 646 QCURVE SMOOTH",
"277 646 OFFCURVE",
"213 581 OFFCURVE",
"180 485 OFFCURVE",
"170 376 OFFCURVE",
"169 332 QCURVE",
"169 323 OFFCURVE",
"169 313 QCURVE SMOOTH",
"169 293 OFFCURVE",
"172 236 OFFCURVE",
"184 167 OFFCURVE",
"205 101 OFFCURVE",
"239 50 OFFCURVE",
"287 19 OFFCURVE",
"319 19 QCURVE SMOOTH",
"364 19 OFFCURVE",
"428 73 OFFCURVE",
"428 133 QCURVE SMOOTH",
"428 299 LINE",
"369 299 LINE",
"369 316 LINE",
"603 316 LINE",
"603 299 LINE",
"545 299 LINE",
"543 5 LINE",
"531 31 OFFCURVE",
"512 45 OFFCURVE",
"502 45 QCURVE SMOOTH",
"499 45 OFFCURVE",
"484 42 OFFCURVE",
"455 26 OFFCURVE",
"437 20 QCURVE",
"408 8 OFFCURVE",
"347 -9 OFFCURVE",
"314 -9 QCURVE SMOOTH",
"252 -9 OFFCURVE",
"152 39 OFFCURVE",
"80 127 OFFCURVE",
"41 248 OFFCURVE",
"41 322 QCURVE SMOOTH",
"41 391 OFFCURVE",
"80 519 OFFCURVE",
"152 616 OFFCURVE",
"251 674 OFFCURVE",
"311 674 QCURVE SMOOTH",
"335 674 OFFCURVE",
"375 658 OFFCURVE",
"411 639 OFFCURVE",
"443 623 OFFCURVE",
"460 623 QCURVE SMOOTH",
"474 623 OFFCURVE",
"482 642 OFFCURVE",
"483 656 QCURVE",
"502 656 LINE"
);
}
);
width = 605;
}
);
unicode = 0047;
},
{
glyphname = H;
layers = (
{
layerId = "DE113C6F-85E3-4DBE-A925-75822E2A0D50";
paths = (
{
nodes = (
"206 330 LINE",
"206 17 LINE",
"271 17 LINE",
"271 0 LINE",
"27 0 LINE",
"27 17 LINE",
"87 17 LINE",
"82 650 LINE",
"27 650 LINE",
"27 667 LINE",
"271 667 LINE",
"271 650 LINE",
"206 650 LINE",
"206 351 LINE",
"477 351 LINE",
"477 650 LINE",
"414 650 LINE",
"414 667 LINE",
"658 667 LINE",
"658 650 LINE",
"595 650 LINE",
"595 17 LINE",
"658 17 LINE",
"658 0 LINE",
"414 0 LINE",
"414 17 LINE",
"477 17 LINE",
"477 330 LINE"
);
}
);
width = 678;
}
);
unicode = 0048;
},
{
glyphname = I;
layers = (
{
layerId = "DE113C6F-85E3-4DBE-A925-75822E2A0D50";
paths = (
{
nodes = (
"31 667 LINE",
"280 667 LINE",
"280 650 LINE",
"208 650 LINE",
"208 17 LINE",
"280 17 LINE",
"280 0 LINE",
"31 0 LINE",
"31 17 LINE",
"94 17 LINE",
"94 650 LINE",
"31 650 LINE"
);
}
);
width = 308;
}
);
unicode = 0049;
},
{
glyphname = J;
layers = (
{
layerId = "DE113C6F-85E3-4DBE-A925-75822E2A0D50";
paths = (
{
nodes = (
"301 650 LINE",
"238 650 LINE",
"238 111 LINE SMOOTH",
"238 72 OFFCURVE",
"224 6 OFFCURVE",
"193 -42 OFFCURVE",
"144 -70 OFFCURVE",
"110 -70 QCURVE SMOOTH",
"94 -70 OFFCURVE",
"62 -60 OFFCURVE",
"37 -40 OFFCURVE",
"22 -9 OFFCURVE",
"22 12 QCURVE SMOOTH",
"22 35 OFFCURVE",
"45 70 OFFCURVE",
"66 70 QCURVE SMOOTH",
"81 70 OFFCURVE",
"98 44 OFFCURVE",
"98 24 QCURVE SMOOTH",
"98 4 OFFCURVE",
"75 -13 OFFCURVE",
"55 -22 QCURVE",
"82 -51 OFFCURVE",
"105 -51 QCURVE SMOOTH",
"123 -51 OFFCURVE",
"148 -21 OFFCURVE",
"148 11 QCURVE SMOOTH",
"148 22 OFFCURVE",
"142 44 OFFCURVE",
"137 56 QCURVE SMOOTH",
"131 71 OFFCURVE",
"122 107 OFFCURVE",
"122 124 QCURVE SMOOTH",
"122 650 LINE",
"54 650 LINE",
"54 667 LINE",
"301 667 LINE"
);
}
);
width = 318;
}
);
unicode = 004A;
},
{
glyphname = K;
layers = (
{
layerId = "DE113C6F-85E3-4DBE-A925-75822E2A0D50";
paths = (
{
nodes = (
"550 17 LINE",
"609 17 LINE",
"609 0 LINE",
"345 0 LINE",
"345 17 LINE",
"415 17 LINE",
"207 341 LINE",
"200 321 LINE",
"200 17 LINE",
"256 17 LINE",
"256 0 LINE",
"27 0 LINE",
"27 17 LINE",
"85 17 LINE",
"85 650 LINE",
"27 650 LINE",
"27 667 LINE",
"252 667 LINE",
"252 650 LINE",
"200 650 LINE",
"200 348 LINE",
"401 567 LINE",
"401 566 LINE",
"443 611 OFFCURVE",
"443 630 QCURVE SMOOTH",
"443 642 OFFCURVE",
"424 650 OFFCURVE",
"405 650 QCURVE SMOOTH",
"364 650 LINE",
"364 667 LINE",
"594 667 LINE",
"594 650 LINE",
"586 650 OFFCURVE",
"579 650 QCURVE SMOOTH",
"511 650 OFFCURVE",
"473 617 QCURVE",
"435 579 OFFCURVE",
"345 479 OFFCURVE",
"294 420 QCURVE"
);
}
);
width = 599;
}
);
unicode = 004B;
},
{
glyphname = L;
layers = (
{
layerId = "DE113C6F-85E3-4DBE-A925-75822E2A0D50";
paths = (
{
nodes = (
"520 221 LINE",
"520 0 LINE",
"27 0 LINE",
"27 17 LINE",
"90 17 LINE",
"90 650 LINE",
"27 650 LINE",
"27 667 LINE",
"273 667 LINE",
"273 650 LINE",
"203 650 LINE",
"203 17 LINE",
"320 17 LINE SMOOTH",
"366 17 OFFCURVE",
"435 26 OFFCURVE",
"481 66 OFFCURVE",
"504 148 OFFCURVE",
"504 221 QCURVE"
);
}
);
width = 540;
}
);
unicode = 004C;
},
{
glyphname = M;
layers = (
{
layerId = "DE113C6F-85E3-4DBE-A925-75822E2A0D50";
paths = (
{
nodes = (
"21 0 LINE",
"21 18 LINE",
"33 18 LINE SMOOTH",
"38 18 OFFCURVE",
"43 18 QCURVE SMOOTH",
"62 18 OFFCURVE",
"97 25 OFFCURVE",
"100 52 QCURVE SMOOTH",
"101 61 OFFCURVE",
"103 118 OFFCURVE",
"104 199 OFFCURVE",
"104 249 QCURVE SMOOTH",
"104 252 OFFCURVE",
"104 255 QCURVE SMOOTH",
"104 270 LINE SMOOTH",
"104 274 OFFCURVE",
"104 279 QCURVE SMOOTH",
"104 295 LINE",
"104 296 OFFCURVE",
"104 298 QCURVE",
"104 333 LINE",
"104 335 OFFCURVE",
"104 336 QCURVE",
"104 349 LINE SMOOTH",
"104 404 OFFCURVE",
"103 511 OFFCURVE",
"102 595 OFFCURVE",
"99 648 OFFCURVE",
"97 650 QCURVE",
"24 650 LINE",
"24 667 LINE",
"217 667 LINE",
"374 216 LINE",
"530 667 LINE",
"694 667 LINE",
"694 650 LINE",
"640 650 LINE",
"640 17 LINE",
"694 17 LINE",
"694 0 LINE",
"463 0 LINE",
"463 18 LINE",
"519 18 LINE",
"520 552 LINE",
"512 554 LINE",
"466 418 OFFCURVE",
"373 147 OFFCURVE",
"325 11 QCURVE",
"129 566 LINE",
"121 564 LINE",
"121 107 LINE SMOOTH",
"121 103 OFFCURVE",
"121 100 QCURVE SMOOTH",
"121 97 LINE",
"121 95 OFFCURVE",
"121 93 QCURVE",
"121 89 LINE",
"121 88 OFFCURVE",
"121 87 QCURVE",
"121 86 LINE",
"121 85 OFFCURVE",
"121 85 QCURVE",
"121 72 LINE",
"121 71 OFFCURVE",
"121 71 QCURVE",
"121 68 LINE SMOOTH",
"121 56 OFFCURVE",
"123 48 QCURVE",
"124 36 OFFCURVE",
"140 23 OFFCURVE",
"163 17 OFFCURVE",
"176 17 QCURVE SMOOTH",
"181 17 LINE",
"182 17 OFFCURVE",
"183 17 QCURVE",
"184 17 LINE",
"184 17 OFFCURVE",
"185 17 QCURVE",
"186 17 OFFCURVE",
"186 17 QCURVE",
"187 17 LINE",
"187 17 OFFCURVE",
"188 17 QCURVE",
"207 17 LINE",
"207 0 LINE"
);
},
{
nodes = (
"17 18 LINE",
"21 24 LINE",
"21 18 LINE"
);
}
);
width = 714;
}
);
unicode = 004D;
},
{
glyphname = N;
layers = (
{
layerId = "DE113C6F-85E3-4DBE-A925-75822E2A0D50";
paths = (
{
nodes = (
"21 17 LINE",
"51 17 OFFCURVE",
"85 20 OFFCURVE",
"100 37 OFFCURVE",
"103 72 OFFCURVE",
"103 105 QCURVE SMOOTH",
"103 637 LINE",
"90 650 LINE",
"21 650 LINE",
"21 667 LINE",
"222 667 LINE",
"512 191 LINE",
"512 567 LINE SMOOTH",
"512 599 OFFCURVE",
"509 633 OFFCURVE",
"497 648 OFFCURVE",
"474 650 OFFCURVE",
"454 650 QCURVE SMOOTH",
"432 650 LINE",
"432 667 LINE",
"613 667 LINE",
"613 650 LINE",
"590 650 LINE SMOOTH",
"570 650 OFFCURVE",
"546 648 OFFCURVE",
"534 633 OFFCURVE",
"531 599 OFFCURVE",
"531 567 QCURVE SMOOTH",
"531 -5 LINE",
"481 -5 LINE",
"122 589 LINE",
"122 122 LINE SMOOTH",
"122 82 OFFCURVE",
"124 39 OFFCURVE",
"139 20 OFFCURVE",
"173 17 OFFCURVE",
"205 17 QCURVE",
"205 0 LINE",
"21 0 LINE"
);
}
);
width = 626;
}
);
unicode = 004E;
},
{
glyphname = O;
layers = (
{
layerId = "DE113C6F-85E3-4DBE-A925-75822E2A0D50";
paths = (
{
nodes = (
"358 680 OFFCURVE",
"453 619 OFFCURVE",
"522 520 OFFCURVE",
"560 395 OFFCURVE",
"560 332 QCURVE SMOOTH",
"560 268 OFFCURVE",
"522 145 OFFCURVE",
"453 48 OFFCURVE",
"358 -12 OFFCURVE",
"301 -12 QCURVE SMOOTH",
"243 -12 OFFCURVE",
"147 49 OFFCURVE",
"79 149 OFFCURVE",
"41 275 OFFCURVE",
"41 340 QCURVE SMOOTH",
"41 402 OFFCURVE",
"82 524 OFFCURVE",
"153 620 OFFCURVE",
"247 680 OFFCURVE",
"301 680 QCURVE SMOOTH"
);
},
{
nodes = (
"271 664 OFFCURVE",
"225 631 OFFCURVE",
"193 576 OFFCURVE",
"174 507 OFFCURVE",
"163 434 OFFCURVE",
"159 363 OFFCURVE",
"159 335 QCURVE SMOOTH",
"159 306 OFFCURVE",
"162 235 OFFCURVE",
"172 162 OFFCURVE",
"190 92 OFFCURVE",
"221 37 OFFCURVE",
"267 4 OFFCURVE",
"300 4 QCURVE SMOOTH",
"333 4 OFFCURVE",
"379 38 OFFCURVE",
"409 93 OFFCURVE",
"425 164 OFFCURVE",
"433 237 OFFCURVE",
"435 308 OFFCURVE",
"435 336 QCURVE SMOOTH",
"435 361 OFFCURVE",
"432 429 OFFCURVE",
"422 501 OFFCURVE",
"405 573 OFFCURVE",
"375 629 OFFCURVE",
"333 664 OFFCURVE",
"303 664 QCURVE SMOOTH"
);
}
);
width = 595;
}
);
unicode = 004F;
},
{
glyphname = P;
layers = (
{
layerId = "DE113C6F-85E3-4DBE-A925-75822E2A0D50";
paths = (
{
nodes = (
"201 17 LINE",
"265 17 LINE",
"265 0 LINE",
"27 0 LINE",
"27 17 LINE",
"87 17 LINE",
"87 650 LINE",
"27 650 LINE",
"27 667 LINE",
"261 667 LINE SMOOTH",
"299 667 OFFCURVE",
"383 653 OFFCURVE",
"453 613 OFFCURVE",
"499 541 OFFCURVE",
"499 484 QCURVE SMOOTH",
"499 432 OFFCURVE",
"458 359 OFFCURVE",
"395 314 OFFCURVE",
"318 293 OFFCURVE",
"281 293 QCURVE SMOOTH",
"261 293 OFFCURVE",
"222 299 OFFCURVE",
"202 313 QCURVE"
);
},
{
nodes = (
"202 332 LINE",
"229 312 OFFCURVE",
"263 312 QCURVE SMOOTH",
"292 312 OFFCURVE",
"340 336 OFFCURVE",
"374 380 OFFCURVE",
"392 438 OFFCURVE",
"392 473 QCURVE SMOOTH",
"392 521 OFFCURVE",
"369 589 OFFCURVE",
"325 632 OFFCURVE",
"264 652 OFFCURVE",
"227 652 QCURVE SMOOTH",
"224 652 OFFCURVE",
"211 650 OFFCURVE",
"203 649 QCURVE"
);
}
);
width = 515;
}
);
unicode = 0050;
},
{
glyphname = Q;
layers = (
{
layerId = "DE113C6F-85E3-4DBE-A925-75822E2A0D50";
paths = (
{
nodes = (
"355 -103 LINE",
"355 -128 OFFCURVE",
"369 -159 OFFCURVE",
"393 -176 OFFCURVE",
"424 -182 OFFCURVE",
"441 -182 QCURVE SMOOTH",
"453 -182 OFFCURVE",
"474 -180 OFFCURVE",
"485 -179 QCURVE",
"485 -198 LINE",
"471 -199 OFFCURVE",
"450 -200 OFFCURVE",
"436 -200 QCURVE SMOOTH",
"423 -200 OFFCURVE",
"379 -194 OFFCURVE",
"332 -184 OFFCURVE",
"290 -170 OFFCURVE",
"281 -161 QCURVE SMOOTH",
"269 -151 OFFCURVE",
"257 -118 OFFCURVE",
"252 -80 OFFCURVE",
"251 -41 OFFCURVE",
"251 -25 QCURVE SMOOTH",
"251 -8 LINE",
"203 8 OFFCURVE",
"125 77 OFFCURVE",
"70 169 OFFCURVE",
"41 279 OFFCURVE",
"41 337 QCURVE SMOOTH",
"41 399 OFFCURVE",
"81 522 OFFCURVE",
"151 619 OFFCURVE",
"245 680 OFFCURVE",
"300 680 QCURVE SMOOTH",
"357 680 OFFCURVE",
"452 619 OFFCURVE",
"521 520 OFFCURVE",
"560 396 OFFCURVE",
"560 332 QCURVE SMOOTH",
"560 275 OFFCURVE",
"531 168 OFFCURVE",
"478 78 OFFCURVE",
"403 10 OFFCURVE",
"356 -8 QCURVE"
);
},
{
nodes = (
"270 664 OFFCURVE",
"223 631 OFFCURVE",
"190 578 OFFCURVE",
"170 508 OFFCURVE",
"159 435 OFFCURVE",
"156 364 OFFCURVE",
"156 335 QCURVE SMOOTH",
"156 306 OFFCURVE",
"160 234 OFFCURVE",
"171 161 OFFCURVE",
"192 91 OFFCURVE",
"225 37 OFFCURVE",
"273 4 OFFCURVE",
"306 4 QCURVE SMOOTH",
"336 4 OFFCURVE",
"379 39 OFFCURVE",
"409 96 OFFCURVE",
"426 168 OFFCURVE",
"435 242 OFFCURVE",
"438 310 OFFCURVE",
"438 335 QCURVE SMOOTH",
"438 361 OFFCURVE",
"434 430 OFFCURVE",
"423 503 OFFCURVE",
"405 574 OFFCURVE",
"375 630 OFFCURVE",
"332 664 OFFCURVE",
"303 664 QCURVE SMOOTH"
);
}
);
width = 595;
}
);
unicode = 0051;
},
{
glyphname = R;
layers = (
{
layerId = "DE113C6F-85E3-4DBE-A925-75822E2A0D50";
paths = (
{
nodes = (
"192 17 LINE",
"253 17 LINE",
"253 0 LINE",
"27 0 LINE",
"27 17 LINE",
"82 17 LINE",
"82 650 LINE",
"27 650 LINE",
"27 667 LINE",
"316 667 LINE SMOOTH",
"349 667 OFFCURVE",
"413 651 OFFCURVE",
"462 614 OFFCURVE",
"493 553 OFFCURVE",
"493 507 QCURVE SMOOTH",
"493 472 OFFCURVE",
"472 420 OFFCURVE",
"436 383 OFFCURVE",
"388 359 OFFCURVE",
"361 353 QCURVE",
"361 342 LINE",
"403 331 OFFCURVE",
"450 282 OFFCURVE",
"474 220 OFFCURVE",
"480 151 OFFCURVE",
"481 120 QCURVE SMOOTH",
"482 98 OFFCURVE",
"485 59 OFFCURVE",
"493 30 OFFCURVE",
"509 13 OFFCURVE",
"523 13 QCURVE SMOOTH",
"532 13 OFFCURVE",
"548 18 OFFCURVE",
"556 21 QCURVE",
"557 21 OFFCURVE",
"558 22 QCURVE",
"564 7 LINE",
"547 -1 OFFCURVE",
"514 -7 OFFCURVE",
"497 -7 QCURVE SMOOTH",
"453 -7 OFFCURVE",
"403 19 OFFCURVE",
"376 65 OFFCURVE",
"367 129 OFFCURVE",
"364 168 QCURVE SMOOTH",
"363 180 OFFCURVE",
"361 206 OFFCURVE",
"359 220 QCURVE SMOOTH",
"354 263 OFFCURVE",
"323 311 OFFCURVE",
"278 334 OFFCURVE",
"222 339 OFFCURVE",
"192 339 QCURVE"
);
},
{
nodes = (
"192 650 LINE",
"192 355 LINE",
"224 355 LINE SMOOTH",
"252 355 OFFCURVE",
"307 371 OFFCURVE",
"349 406 OFFCURVE",
"375 461 OFFCURVE",
"375 501 QCURVE SMOOTH",
"375 546 OFFCURVE",
"351 604 OFFCURVE",
"309 637 OFFCURVE",
"253 650 OFFCURVE",
"221 650 QCURVE SMOOTH"
);
}
);
width = 583;
}
);
unicode = 0052;
},
{
glyphname = S;
layers = (
{
layerId = "DE113C6F-85E3-4DBE-A925-75822E2A0D50";
paths = (
{
nodes = (
"51 238 LINE",
"66 238 LINE",
"70 187 OFFCURVE",
"94 104 OFFCURVE",
"139 44 OFFCURVE",
"207 11 OFFCURVE",
"254 11 QCURVE SMOOTH",
"283 11 OFFCURVE",
"330 29 OFFCURVE",
"361 62 OFFCURVE",
"369 95 OFFCURVE",
"369 106 QCURVE SMOOTH",
"369 120 OFFCURVE",
"365 135 QCURVE SMOOTH",
"357 164 OFFCURVE",
"296 200 OFFCURVE",
"255 219 QCURVE SMOOTH",
"220 235 OFFCURVE",
"147 273 OFFCURVE",
"85 330 OFFCURVE",
"46 410 OFFCURVE",
"46 468 QCURVE SMOOTH",
"46 477 OFFCURVE",
"47 499 OFFCURVE",
"49 510 QCURVE SMOOTH",
"60 591 OFFCURVE",
"148 670 OFFCURVE",
"223 674 QCURVE",
"226 674 OFFCURVE",
"229 674 QCURVE SMOOTH",
"267 674 OFFCURVE",
"321 647 OFFCURVE",
"339 634 QCURVE",
"356 620 OFFCURVE",
"367 620 QCURVE SMOOTH",
"381 620 OFFCURVE",
"387 647 OFFCURVE",
"387 659 QCURVE",
"403 659 LINE",
"403 458 LINE",
"386 458 LINE",
"379 502 OFFCURVE",
"355 575 OFFCURVE",
"316 626 OFFCURVE",
"260 654 OFFCURVE",
"221 654 QCURVE SMOOTH",
"195 654 OFFCURVE",
"147 640 OFFCURVE",
"112 611 OFFCURVE",
"95 569 OFFCURVE",
"95 544 QCURVE SMOOTH",
"95 539 OFFCURVE",
"95 533 QCURVE",
"97 506 OFFCURVE",
"121 467 OFFCURVE",
"159 438 OFFCURVE",
"207 416 OFFCURVE",
"233 406 QCURVE SMOOTH",
"266 393 OFFCURVE",
"333 360 OFFCURVE",
"390 311 OFFCURVE",
"429 241 OFFCURVE",
"434 191 QCURVE",
"434 185 OFFCURVE",
"434 179 QCURVE SMOOTH",
"434 140 OFFCURVE",
"409 70 OFFCURVE",
"360 16 OFFCURVE",
"291 -13 OFFCURVE",
"251 -13 QCURVE SMOOTH",
"212 -13 OFFCURVE",
"152 10 OFFCURVE",
"130 21 QCURVE",
"118 28 OFFCURVE",
"97 37 OFFCURVE",
"87 37 QCURVE SMOOTH",
"76 37 OFFCURVE",
"67 5 OFFCURVE",
"66 -7 QCURVE",
"51 -7 LINE"
);
}
);
width = 470;
}
);
unicode = 0053;
},
{
glyphname = T;
layers = (
{
layerId = "DE113C6F-85E3-4DBE-A925-75822E2A0D50";
paths = (
{
nodes = (
"207 650 LINE",
"193 650 LINE SMOOTH",
"145 650 OFFCURVE",
"83 635 OFFCURVE",
"46 594 OFFCURVE",
"31 523 OFFCURVE",
"31 466 QCURVE",
"13 466 LINE",
"15 518 OFFCURVE",
"16 616 OFFCURVE",
"18 667 QCURVE",
"513 667 LINE",
"514 616 OFFCURVE",
"515 518 OFFCURVE",
"516 466 QCURVE",
"500 466 LINE",
"500 527 OFFCURVE",
"484 600 OFFCURVE",
"445 639 OFFCURVE",
"378 650 OFFCURVE",
"325 650 QCURVE",
"325 17 LINE",
"393 17 LINE",
"393 0 LINE",
"136 0 LINE",
"136 17 LINE",
"207 17 LINE"
);
}
);
width = 526;
}
);
unicode = 0054;
},
{
glyphname = U;
layers = (
{
layerId = "DE113C6F-85E3-4DBE-A925-75822E2A0D50";
paths = (
{
nodes = (
"616 650 LINE",
"600 650 LINE SMOOTH",
"580 650 OFFCURVE",
"555 648 OFFCURVE",
"540 633 OFFCURVE",
"535 599 OFFCURVE",
"535 568 QCURVE SMOOTH",
"535 227 LINE SMOOTH",
"535 97 OFFCURVE",
"430 -14 OFFCURVE",
"325 -14 QCURVE SMOOTH",
"292 -14 OFFCURVE",
"213 -4 OFFCURVE",
"142 27 OFFCURVE",
"89 83 OFFCURVE",
"83 129 QCURVE SMOOTH",
"81 140 OFFCURVE",
"81 157 QCURVE SMOOTH",
"81 160 LINE",
"81 160 OFFCURVE",
"81 161 QCURVE",
"81 164 LINE",
"81 166 OFFCURVE",
"81 167 QCURVE",
"81 168 LINE",
"81 168 OFFCURVE",
"81 168 QCURVE",
"81 169 LINE",
"81 171 OFFCURVE",
"81 172 QCURVE",
"81 650 LINE",
"18 650 LINE",
"18 667 LINE",
"271 667 LINE",
"271 650 LINE",
"207 650 LINE",
"207 219 LINE SMOOTH",
"207 173 OFFCURVE",
"218 96 OFFCURVE",
"249 40 OFFCURVE",
"303 8 OFFCURVE",
"345 8 QCURVE SMOOTH",
"391 8 OFFCURVE",
"456 41 OFFCURVE",
"495 102 OFFCURVE",
"513 189 OFFCURVE",
"513 242 QCURVE SMOOTH",
"513 568 LINE SMOOTH",
"513 600 OFFCURVE",
"506 634 OFFCURVE",
"490 650 OFFCURVE",
"471 652 OFFCURVE",
"463 652 QCURVE SMOOTH",
"455 652 OFFCURVE",
"445 651 QCURVE",
"440 651 OFFCURVE",
"429 650 OFFCURVE",
"422 650 QCURVE",
"422 667 LINE",
"616 667 LINE"
);
}
);
width = 623;
}
);
unicode = 0055;
},
{
glyphname = V;
layers = (
{
layerId = "DE113C6F-85E3-4DBE-A925-75822E2A0D50";
paths = (
{
nodes = (
"-12 667 LINE",
"234 667 LINE",
"234 650 LINE",
"170 650 LINE",
"309 190 LINE",
"341 285 OFFCURVE",
"385 419 OFFCURVE",
"415 511 OFFCURVE",
"432 566 OFFCURVE",
"440 598 OFFCURVE",
"442 613 OFFCURVE",
"442 618 QCURVE SMOOTH",
"442 631 OFFCURVE",
"427 644 OFFCURVE",
"404 650 OFFCURVE",
"392 650 QCURVE SMOOTH",
"389 650 LINE",
"388 650 OFFCURVE",
"387 650 QCURVE",
"385 650 LINE",
"384 650 OFFCURVE",
"383 650 QCURVE",
"367 650 LINE",
"367 667 LINE",
"551 667 LINE",
"551 650 LINE",
"543 650 LINE SMOOTH",
"519 650 OFFCURVE",
"493 647 OFFCURVE",
"477 632 OFFCURVE",
"465 600 OFFCURVE",
"456 572 QCURVE SMOOTH",
"260 -26 LINE",
"41 650 LINE",
"-12 650 LINE"
);
}
);
width = 523;
}
);
unicode = 0056;
},
{
glyphname = W;
layers = (
{
layerId = "DE113C6F-85E3-4DBE-A925-75822E2A0D50";
paths = (
{
nodes = (
"-13 667 LINE",
"547 667 LINE",
"547 650 LINE",
"516 650 OFFCURVE",
"479 640 OFFCURVE",
"457 617 OFFCURVE",
"443 579 OFFCURVE",
"436 551 QCURVE SMOOTH",
"420 491 LINE",
"511 168 LINE",
"518 188 OFFCURVE",
"537 244 OFFCURVE",
"544 265 QCURVE SMOOTH",
"554 295 OFFCURVE",
"578 368 OFFCURVE",
"603 442 OFFCURVE",
"625 513 OFFCURVE",
"643 572 OFFCURVE",
"653 613 OFFCURVE",
"653 620 QCURVE SMOOTH",
"653 632 OFFCURVE",
"638 645 OFFCURVE",
"617 650 OFFCURVE",
"607 650 QCURVE SMOOTH",
"604 650 LINE",
"604 650 OFFCURVE",
"603 650 QCURVE",
"601 650 LINE",
"600 650 OFFCURVE",
"599 650 QCURVE",
"588 650 LINE",
"588 667 LINE",
"766 667 LINE",
"766 650 LINE",
"736 650 OFFCURVE",
"704 647 OFFCURVE",
"685 632 OFFCURVE",
"672 599 OFFCURVE",
"662 570 QCURVE SMOOTH",
"471 -23 LINE",
"455 -23 LINE",
"361 305 LINE",
"268 -23 LINE",
"262 -23 OFFCURVE",
"249 -24 OFFCURVE",
"244 -24 QCURVE",
"37 650 LINE",
"-13 650 LINE"
);
},
{
nodes = (
"349 332 LINE",
"251 650 LINE",
"149 650 LINE",
"297 157 LINE"
);
},
{
nodes = (
"411 516 LINE",
"412 518 OFFCURVE",
"421 550 OFFCURVE",
"432 588 OFFCURVE",
"441 622 OFFCURVE",
"441 626 QCURVE SMOOTH",
"441 635 OFFCURVE",
"432 644 OFFCURVE",
"419 649 OFFCURVE",
"406 650 OFFCURVE",
"402 650 QCURVE SMOOTH",
"373 650 LINE"
);
}
);
width = 735;
}
);
unicode = 0057;
},
{
glyphname = X;
layers = (
{
layerId = "DE113C6F-85E3-4DBE-A925-75822E2A0D50";
paths = (
{
nodes = (
"-15 17 LINE",
"-5 17 LINE SMOOTH",
"2 17 OFFCURVE",
"9 17 QCURVE SMOOTH",
"23 17 OFFCURVE",
"63 20 OFFCURVE",
"82 36 QCURVE SMOOTH",
"89 42 OFFCURVE",
"109 71 OFFCURVE",
"144 132 OFFCURVE",
"198 234 OFFCURVE",
"239 313 QCURVE",
"79 650 LINE",
"26 650 LINE",
"26 667 LINE",
"268 667 LINE",
"268 650 LINE",
"207 650 LINE",
"315 427 LINE",
"350 490 OFFCURVE",
"390 564 OFFCURVE",
"411 605 OFFCURVE",
"417 623 OFFCURVE",
"417 629 QCURVE SMOOTH",
"417 644 OFFCURVE",
"397 650 OFFCURVE",
"389 650 QCURVE SMOOTH",
"343 650 LINE",
"343 667 LINE",
"535 667 LINE",
"535 650 LINE",
"530 650 LINE SMOOTH",
"513 650 OFFCURVE",
"472 645 OFFCURVE",
"458 633 QCURVE SMOOTH",
"452 627 OFFCURVE",
"436 607 OFFCURVE",
"408 560 OFFCURVE",
"362 476 OFFCURVE",
"325 407 QCURVE",
"515 17 LINE",
"579 17 LINE",
"579 0 LINE",
"318 0 LINE",
"318 17 LINE",
"385 17 LINE",
"249 293 LINE",
"169 140 LINE SMOOTH",
"154 112 OFFCURVE",
"136 77 OFFCURVE",
"125 54 OFFCURVE",
"121 43 OFFCURVE",
"121 39 QCURVE SMOOTH",
"121 30 OFFCURVE",
"131 21 OFFCURVE",
"145 17 OFFCURVE",
"152 17 QCURVE",
"154 17 LINE",
"155 17 OFFCURVE",
"155 17 QCURVE",
"156 17 OFFCURVE",
"156 17 QCURVE",
"156 17 OFFCURVE",
"157 17 QCURVE",
"157 17 OFFCURVE",
"157 17 QCURVE",
"201 17 LINE",
"201 0 LINE",
"-15 0 LINE"
);
}
);
width = 558;
}
);
unicode = 0058;
},
{
glyphname = Y;
layers = (
{
layerId = "DE113C6F-85E3-4DBE-A925-75822E2A0D50";
paths = (
{
nodes = (
"333 667 LINE",
"510 667 LINE",
"510 651 LINE",
"489 651 LINE SMOOTH",
"475 651 OFFCURVE",
"457 646 OFFCURVE",
"442 631 OFFCURVE",
"429 603 OFFCURVE",
"420 581 QCURVE SMOOTH",
"295 266 LINE",
"295 17 LINE",
"359 17 LINE",
"359 0 LINE",
"124 0 LINE",
"124 17 LINE",
"187 17 LINE",
"187 243 LINE",
"30 650 LINE",
"-23 650 LINE",
"-23 667 LINE",
"216 667 LINE",
"216 650 LINE",
"153 650 LINE",
"286 304 LINE",
"383 541 LINE SMOOTH",
"386 547 OFFCURVE",
"394 570 OFFCURVE",
"402 595 OFFCURVE",
"408 618 OFFCURVE",
"408 625 QCURVE SMOOTH",
"408 642 OFFCURVE",
"377 651 OFFCURVE",
"359 651 QCURVE SMOOTH",
"352 651 OFFCURVE",
"340 650 OFFCURVE",
"335 650 QCURVE",
"333 650 LINE"
);
}
);
width = 483;
}
);
unicode = 0059;
},
{
glyphname = Z;
layers = (
{
layerId = "DE113C6F-85E3-4DBE-A925-75822E2A0D50";
paths = (
{
nodes = (
"32 0 LINE",
"353 647 LINE",
"310 647 LINE SMOOTH",
"242 647 OFFCURVE",
"153 636 OFFCURVE",
"130 623 QCURVE",
"130 624 LINE",
"81 599 OFFCURVE",
"81 521 QCURVE SMOOTH",
"81 482 LINE",
"65 482 LINE",
"65 667 LINE",
"496 667 LINE",
"167 17 LINE",
"240 17 LINE SMOOTH",
"305 17 OFFCURVE",
"396 31 OFFCURVE",
"454 63 OFFCURVE",
"481 113 OFFCURVE",
"481 148 QCURVE SMOOTH",
"481 193 LINE",
"498 193 LINE",
"498 0 LINE"
);
}
);
width = 519;
}
);
unicode = 005A;
},
{
glyphname = bracketleft;
layers = (
{
layerId = "DE113C6F-85E3-4DBE-A925-75822E2A0D50";
paths = (
{
nodes = (
"54 783 LINE",
"284 783 LINE",
"284 760 LINE",
"162 760 LINE",
"162 -130 LINE",
"284 -130 LINE",
"284 -158 LINE",
"54 -158 LINE"
);
}
);
width = 211;
}
);
unicode = 005B;
},
{
glyphname = backslash;
layers = (
{
layerId = "DE113C6F-85E3-4DBE-A925-75822E2A0D50";
paths = (
{
nodes = (
"323 0 LINE",
"56 700 LINE",
"96 700 LINE",
"364 0 LINE"
);
}
);
width = 419;
}
);
unicode = 005C;
},
{
glyphname = bracketright;
layers = (
{
layerId = "DE113C6F-85E3-4DBE-A925-75822E2A0D50";
paths = (
{
nodes = (
"161 -158 LINE",
"-69 -158 LINE",
"-69 -130 LINE",
"53 -130 LINE",
"53 760 LINE",
"-69 760 LINE",
"-69 783 LINE",
"161 783 LINE"
);
}
);
width = 211;
}
);
unicode = 005D;
},
{
glyphname = asciicircum;
layers = (
{
layerId = "DE113C6F-85E3-4DBE-A925-75822E2A0D50";
paths = (
{
nodes = (
"224 657 LINE",
"369 470 LINE",
"330 447 LINE",
"195 622 LINE",
"59 447 LINE",
"20 470 LINE",
"165 657 LINE"
);
}
);
width = 383;
}
);
unicode = 005E;
},
{
glyphname = underscore;
layers = (
{
layerId = "DE113C6F-85E3-4DBE-A925-75822E2A0D50";
paths = (
{
nodes = (
"10 -29 LINE",
"427 -29 LINE",
"427 -71 LINE",
"10 -71 LINE"
);
}
);
width = 439;
}
);
unicode = 005F;
},
{
glyphname = grave;
layers = (
{
layerId = "DE113C6F-85E3-4DBE-A925-75822E2A0D50";
paths = (
{
nodes = (
"204 461 LINE",
"188 450 LINE",
"156 478 OFFCURVE",
"128 504 QCURVE SMOOTH",
"104 526 OFFCURVE",
"55 567 OFFCURVE",
"43 576 QCURVE SMOOTH",
"23 590 OFFCURVE",
"19 607 OFFCURVE",
"19 610 QCURVE SMOOTH",
"19 624 OFFCURVE",
"28 647 QCURVE",
"34 657 OFFCURVE",
"48 660 OFFCURVE",
"53 660 QCURVE SMOOTH",
"59 660 OFFCURVE",
"76 656 OFFCURVE",
"97 645 OFFCURVE",
"105 641 QCURVE"
);
}
);
width = 225;
}
);
unicode = 0060;
},
{
glyphname = a;
layers = (
{
layerId = "DE113C6F-85E3-4DBE-A925-75822E2A0D50";
paths = (
{
nodes = (
"-5 17 LINE",
"17 17 OFFCURVE",
"45 23 OFFCURVE",
"63 39 OFFCURVE",
"75 70 OFFCURVE",
"83 94 QCURVE",
"126 240 OFFCURVE",
"214 531 OFFCURVE",
"258 677 QCURVE",
"292 677 LINE",
"505 17 LINE",
"549 17 LINE",
"549 0 LINE",
"310 0 LINE",
"310 17 LINE",
"377 17 LINE",
"313 218 LINE",
"139 218 LINE",
"132 198 LINE SMOOTH",
"127 183 OFFCURVE",
"113 137 OFFCURVE",
"100 91 OFFCURVE",
"90 53 OFFCURVE",
"90 46 QCURVE SMOOTH",
"90 34 OFFCURVE",
"109 22 OFFCURVE",
"135 17 OFFCURVE",
"162 17 OFFCURVE",
"170 17 QCURVE",
"172 17 LINE",
"172 0 LINE",
"-5 0 LINE"
);
},
{
nodes = (
"144 235 LINE",
"308 235 LINE",
"224 497 LINE"
);
}
);
width = 536;
}
);
unicode = 0061;
},
{
glyphname = b;
layers = (
{
layerId = "DE113C6F-85E3-4DBE-A925-75822E2A0D50";
paths = (
{
nodes = (
"27 667 LINE",
"228 667 LINE SMOOTH",
"265 667 OFFCURVE",
"353 661 OFFCURVE",
"429 630 OFFCURVE",
"480 565 OFFCURVE",
"480 506 QCURVE SMOOTH",
"480 447 OFFCURVE",
"419 370 OFFCURVE",
"371 357 QCURVE",
"371 347 LINE",
"398 339 OFFCURVE",
"446 313 OFFCURVE",
"482 273 OFFCURVE",
"502 218 OFFCURVE",
"502 181 QCURVE SMOOTH",
"502 121 OFFCURVE",
"460 49 OFFCURVE",
"394 11 OFFCURVE",
"312 0 OFFCURVE",
"273 0 QCURVE SMOOTH",
"27 0 LINE",
"27 17 LINE",
"81 17 LINE",
"81 650 LINE",
"27 650 LINE"
);
},
{
nodes = (
"192 363 LINE",
"206 363 LINE SMOOTH",
"234 363 OFFCURVE",
"292 372 OFFCURVE",
"340 402 OFFCURVE",
"370 456 OFFCURVE",
"370 501 QCURVE SMOOTH",
"370 536 OFFCURVE",
"345 593 OFFCURVE",
"305 633 OFFCURVE",
"254 654 OFFCURVE",
"227 654 QCURVE SMOOTH",
"219 654 OFFCURVE",
"202 651 OFFCURVE",
"192 649 QCURVE"
);
},
{
nodes = (
"192 17 LINE",
"247 17 LINE SMOOTH",
"308 17 OFFCURVE",
"384 100 OFFCURVE",
"384 174 QCURVE SMOOTH",
"384 229 OFFCURVE",
"356 297 OFFCURVE",
"305 334 OFFCURVE",
"235 347 OFFCURVE",
"192 347 QCURVE"
);
}
);
width = 535;
}
);
unicode = 0062;
},
{
glyphname = c;
layers = (
{
layerId = "DE113C6F-85E3-4DBE-A925-75822E2A0D50";
paths = (
{
nodes = (
"484 0 LINE",
"484 9 OFFCURVE",
"482 29 OFFCURVE",
"476 46 OFFCURVE",
"465 58 OFFCURVE",
"456 58 QCURVE SMOOTH",
"451 58 OFFCURVE",
"434 48 OFFCURVE",
"423 40 QCURVE SMOOTH",
"403 24 OFFCURVE",
"340 -11 OFFCURVE",
"297 -11 QCURVE SMOOTH",
"238 -11 OFFCURVE",
"143 42 OFFCURVE",
"77 132 OFFCURVE",
"41 253 OFFCURVE",
"41 321 QCURVE SMOOTH",
"41 389 OFFCURVE",
"76 518 OFFCURVE",
"142 617 OFFCURVE",
"238 677 OFFCURVE",
"300 677 QCURVE SMOOTH",
"327 677 OFFCURVE",
"369 660 OFFCURVE",
"405 640 OFFCURVE",
"437 623 OFFCURVE",
"455 623 QCURVE SMOOTH",
"467 623 OFFCURVE",
"479 636 OFFCURVE",
"481 650 QCURVE",
"499 650 LINE",
"499 448 LINE",
"479 448 LINE",
"477 484 OFFCURVE",
"450 557 OFFCURVE",
"408 616 OFFCURVE",
"351 653 OFFCURVE",
"319 653 QCURVE SMOOTH",
"287 653 OFFCURVE",
"241 619 OFFCURVE",
"209 563 OFFCURVE",
"190 492 OFFCURVE",
"179 419 OFFCURVE",
"176 348 OFFCURVE",
"176 321 QCURVE SMOOTH",
"176 270 OFFCURVE",
"188 165 OFFCURVE",
"224 78 OFFCURVE",
"290 23 OFFCURVE",
"344 23 QCURVE SMOOTH",
"373 23 OFFCURVE",
"421 66 OFFCURVE",
"457 131 OFFCURVE",
"480 206 OFFCURVE",
"484 238 QCURVE",
"499 238 LINE",
"499 0 LINE"
);
}
);
width = 551;
}
);
unicode = 0063;
},
{
glyphname = d;
layers = (
{
layerId = "DE113C6F-85E3-4DBE-A925-75822E2A0D50";
paths = (
{
nodes = (
"27 667 LINE",
"234 667 LINE SMOOTH",
"304 667 OFFCURVE",
"430 635 OFFCURVE",
"525 558 OFFCURVE",
"581 428 OFFCURVE",
"581 331 QCURVE SMOOTH",
"581 236 OFFCURVE",
"528 109 OFFCURVE",
"437 33 OFFCURVE",
"316 0 OFFCURVE",
"247 0 QCURVE SMOOTH",
"27 0 LINE",
"27 17 LINE",
"84 17 LINE",
"84 649 LINE",
"27 649 LINE"
);
},
{
nodes = (
"202 649 LINE",
"202 17 LINE",
"274 17 OFFCURVE",
"372 56 OFFCURVE",
"432 136 OFFCURVE",
"458 257 OFFCURVE",
"458 339 QCURVE SMOOTH",
"458 406 OFFCURVE",
"430 520 OFFCURVE",
"373 603 OFFCURVE",
"286 650 OFFCURVE",
"227 650 QCURVE"
);
}
);
width = 616;
}
);
unicode = 0064;
},
{
glyphname = e;
layers = (
{
layerId = "DE113C6F-85E3-4DBE-A925-75822E2A0D50";
paths = (
{
nodes = (
"198 20 LINE",
"295 20 LINE SMOOTH",
"341 20 OFFCURVE",
"420 25 OFFCURVE",
"478 58 OFFCURVE",
"512 130 OFFCURVE",
"512 197 QCURVE",
"529 197 LINE",
"529 0 LINE",
"27 0 LINE",
"27 17 LINE",
"77 17 LINE",
"77 650 LINE",
"27 650 LINE",
"27 667 LINE",
"528 667 LINE",
"529 503 LINE",
"512 503 LINE",
"504 558 OFFCURVE",
"463 617 OFFCURVE",
"404 644 OFFCURVE",
"329 647 OFFCURVE",
"286 647 QCURVE SMOOTH",
"198 647 LINE",
"198 352 LINE",
"224 352 LINE SMOOTH",
"255 352 OFFCURVE",
"302 356 OFFCURVE",
"334 378 OFFCURVE",
"350 425 OFFCURVE",
"351 467 QCURVE",
"367 467 LINE",
"367 215 LINE",
"351 215 LINE",
"350 253 OFFCURVE",
"337 298 OFFCURVE",
"313 321 OFFCURVE",
"279 328 OFFCURVE",
"257 328 QCURVE SMOOTH",
"198 328 LINE"
);
}
);
width = 558;
}
);
unicode = 0065;
},
{
glyphname = f;
layers = (
{
layerId = "DE113C6F-85E3-4DBE-A925-75822E2A0D50";
paths = (
{
nodes = (
"490 491 LINE",
"472 491 LINE",
"470 550 OFFCURVE",
"442 615 OFFCURVE",
"393 645 OFFCURVE",
"326 650 OFFCURVE",
"286 650 QCURVE SMOOTH",
"192 650 LINE",
"192 353 LINE",
"225 353 LINE SMOOTH",
"259 353 OFFCURVE",
"311 356 OFFCURVE",
"346 379 OFFCURVE",
"363 428 OFFCURVE",
"363 475 QCURVE",
"379 475 LINE",
"379 213 LINE",
"363 213 LINE",
"362 252 OFFCURVE",
"346 299 OFFCURVE",
"318 324 OFFCURVE",
"280 332 OFFCURVE",
"256 332 QCURVE SMOOTH",
"228 332 LINE SMOOTH",
"220 332 OFFCURVE",
"200 331 OFFCURVE",
"192 331 QCURVE",
"192 17 LINE",
"251 17 LINE",
"251 0 LINE",
"27 0 LINE",
"27 17 LINE",
"76 17 LINE",
"76 650 LINE",
"27 650 LINE",
"27 667 LINE",
"489 667 LINE"
);
}
);
width = 509;
}
);
unicode = 0066;
},
{
glyphname = g;
layers = (
{
layerId = "DE113C6F-85E3-4DBE-A925-75822E2A0D50";
paths = (
{
nodes = (
"502 453 LINE",
"482 453 LINE",
"477 490 OFFCURVE",
"454 560 OFFCURVE",
"418 614 OFFCURVE",
"366 646 OFFCURVE",
"332 646 QCURVE SMOOTH",
"277 646 OFFCURVE",
"213 581 OFFCURVE",
"180 485 OFFCURVE",
"170 376 OFFCURVE",
"169 332 QCURVE",
"169 323 OFFCURVE",
"169 313 QCURVE SMOOTH",
"169 293 OFFCURVE",
"172 236 OFFCURVE",
"184 167 OFFCURVE",
"205 101 OFFCURVE",
"239 50 OFFCURVE",
"287 19 OFFCURVE",
"319 19 QCURVE SMOOTH",
"364 19 OFFCURVE",
"428 73 OFFCURVE",
"428 133 QCURVE SMOOTH",
"428 299 LINE",
"369 299 LINE",
"369 316 LINE",
"603 316 LINE",
"603 299 LINE",
"545 299 LINE",
"543 5 LINE",
"531 31 OFFCURVE",
"512 45 OFFCURVE",
"502 45 QCURVE SMOOTH",
"499 45 OFFCURVE",
"484 42 OFFCURVE",
"455 26 OFFCURVE",
"437 20 QCURVE",
"408 8 OFFCURVE",
"347 -9 OFFCURVE",
"314 -9 QCURVE SMOOTH",
"252 -9 OFFCURVE",
"152 39 OFFCURVE",
"80 127 OFFCURVE",
"41 248 OFFCURVE",
"41 322 QCURVE SMOOTH",
"41 391 OFFCURVE",
"80 519 OFFCURVE",
"152 616 OFFCURVE",
"251 674 OFFCURVE",
"311 674 QCURVE SMOOTH",
"335 674 OFFCURVE",
"375 658 OFFCURVE",
"411 639 OFFCURVE",
"443 623 OFFCURVE",
"460 623 QCURVE SMOOTH",
"474 623 OFFCURVE",
"482 642 OFFCURVE",
"483 656 QCURVE",
"502 656 LINE"
);
}
);
width = 605;
}
);
unicode = 0067;
},
{
glyphname = h;
layers = (
{
layerId = "DE113C6F-85E3-4DBE-A925-75822E2A0D50";
paths = (
{
nodes = (
"206 330 LINE",
"206 17 LINE",
"271 17 LINE",
"271 0 LINE",
"27 0 LINE",
"27 17 LINE",
"87 17 LINE",
"82 650 LINE",
"27 650 LINE",
"27 667 LINE",
"271 667 LINE",
"271 650 LINE",
"206 650 LINE",
"206 351 LINE",
"477 351 LINE",
"477 650 LINE",
"414 650 LINE",
"414 667 LINE",
"658 667 LINE",
"658 650 LINE",
"595 650 LINE",
"595 17 LINE",
"658 17 LINE",
"658 0 LINE",
"414 0 LINE",
"414 17 LINE",
"477 17 LINE",
"477 330 LINE"
);
}
);
width = 678;
}
);
unicode = 0068;
},
{
glyphname = i;
layers = (
{
layerId = "DE113C6F-85E3-4DBE-A925-75822E2A0D50";
paths = (
{
nodes = (
"31 667 LINE",
"280 667 LINE",
"280 650 LINE",
"208 650 LINE",
"208 17 LINE",
"280 17 LINE",
"280 0 LINE",
"31 0 LINE",
"31 17 LINE",
"94 17 LINE",
"94 650 LINE",
"31 650 LINE"
);
}
);
width = 308;
}
);
unicode = 0069;
},
{
glyphname = j;
layers = (
{
layerId = "DE113C6F-85E3-4DBE-A925-75822E2A0D50";
paths = (
{
nodes = (
"301 650 LINE",
"238 650 LINE",
"238 111 LINE SMOOTH",
"238 72 OFFCURVE",
"224 6 OFFCURVE",
"193 -42 OFFCURVE",
"144 -70 OFFCURVE",
"110 -70 QCURVE SMOOTH",
"94 -70 OFFCURVE",
"62 -60 OFFCURVE",
"37 -40 OFFCURVE",
"22 -9 OFFCURVE",
"22 12 QCURVE SMOOTH",
"22 35 OFFCURVE",
"45 70 OFFCURVE",
"66 70 QCURVE SMOOTH",
"81 70 OFFCURVE",
"98 44 OFFCURVE",
"98 24 QCURVE SMOOTH",
"98 4 OFFCURVE",
"75 -13 OFFCURVE",
"55 -22 QCURVE",
"82 -51 OFFCURVE",
"105 -51 QCURVE SMOOTH",
"123 -51 OFFCURVE",
"148 -21 OFFCURVE",
"148 11 QCURVE SMOOTH",
"148 22 OFFCURVE",
"142 44 OFFCURVE",
"137 56 QCURVE SMOOTH",
"131 71 OFFCURVE",
"122 107 OFFCURVE",
"122 124 QCURVE SMOOTH",
"122 650 LINE",
"54 650 LINE",
"54 667 LINE",
"301 667 LINE"
);
}
);
width = 318;
}
);
unicode = 006A;
},
{
glyphname = k;
layers = (
{
layerId = "DE113C6F-85E3-4DBE-A925-75822E2A0D50";
paths = (
{
nodes = (
"550 17 LINE",
"609 17 LINE",
"609 0 LINE",
"345 0 LINE",
"345 17 LINE",
"415 17 LINE",
"207 341 LINE",
"200 321 LINE",
"200 17 LINE",
"256 17 LINE",
"256 0 LINE",
"27 0 LINE",
"27 17 LINE",
"85 17 LINE",
"85 650 LINE",
"27 650 LINE",
"27 667 LINE",
"252 667 LINE",
"252 650 LINE",
"200 650 LINE",
"200 348 LINE",
"401 567 LINE",
"401 566 LINE",
"443 611 OFFCURVE",
"443 630 QCURVE SMOOTH",
"443 642 OFFCURVE",
"424 650 OFFCURVE",
"405 650 QCURVE SMOOTH",
"364 650 LINE",
"364 667 LINE",
"594 667 LINE",
"594 650 LINE",
"586 650 OFFCURVE",
"579 650 QCURVE SMOOTH",
"511 650 OFFCURVE",
"473 617 QCURVE",
"435 579 OFFCURVE",
"345 479 OFFCURVE",
"294 420 QCURVE"
);
}
);
width = 599;
}
);
unicode = 006B;
},
{
glyphname = l;
layers = (
{
layerId = "DE113C6F-85E3-4DBE-A925-75822E2A0D50";
paths = (
{
nodes = (
"520 221 LINE",
"520 0 LINE",
"27 0 LINE",
"27 17 LINE",
"90 17 LINE",
"90 650 LINE",
"27 650 LINE",
"27 667 LINE",
"273 667 LINE",
"273 650 LINE",
"203 650 LINE",
"203 17 LINE",
"320 17 LINE SMOOTH",
"366 17 OFFCURVE",
"435 26 OFFCURVE",
"481 66 OFFCURVE",
"504 148 OFFCURVE",
"504 221 QCURVE"
);
}
);
width = 540;
}
);
unicode = 006C;
},
{
glyphname = m;
layers = (
{
layerId = "DE113C6F-85E3-4DBE-A925-75822E2A0D50";
paths = (
{
nodes = (
"21 0 LINE",
"21 18 LINE",
"33 18 LINE SMOOTH",
"38 18 OFFCURVE",
"43 18 QCURVE SMOOTH",
"62 18 OFFCURVE",
"97 25 OFFCURVE",
"100 52 QCURVE SMOOTH",
"101 61 OFFCURVE",
"103 118 OFFCURVE",
"104 199 OFFCURVE",
"104 249 QCURVE SMOOTH",
"104 252 OFFCURVE",
"104 255 QCURVE SMOOTH",
"104 270 LINE SMOOTH",
"104 274 OFFCURVE",
"104 279 QCURVE SMOOTH",
"104 295 LINE",
"104 296 OFFCURVE",
"104 298 QCURVE",
"104 333 LINE",
"104 335 OFFCURVE",
"104 336 QCURVE",
"104 349 LINE SMOOTH",
"104 404 OFFCURVE",
"103 511 OFFCURVE",
"102 595 OFFCURVE",
"99 648 OFFCURVE",
"97 650 QCURVE",
"24 650 LINE",
"24 667 LINE",
"217 667 LINE",
"374 216 LINE",
"530 667 LINE",
"694 667 LINE",
"694 650 LINE",
"640 650 LINE",
"640 17 LINE",
"694 17 LINE",
"694 0 LINE",
"463 0 LINE",
"463 18 LINE",
"519 18 LINE",
"520 552 LINE",
"512 554 LINE",
"466 418 OFFCURVE",
"373 147 OFFCURVE",
"325 11 QCURVE",
"129 566 LINE",
"121 564 LINE",
"121 107 LINE SMOOTH",
"121 103 OFFCURVE",
"121 100 QCURVE SMOOTH",
"121 97 LINE",
"121 95 OFFCURVE",
"121 93 QCURVE",
"121 89 LINE",
"121 88 OFFCURVE",
"121 87 QCURVE",
"121 86 LINE",
"121 85 OFFCURVE",
"121 85 QCURVE",
"121 72 LINE",
"121 71 OFFCURVE",
"121 71 QCURVE",
"121 68 LINE SMOOTH",
"121 56 OFFCURVE",
"123 48 QCURVE",
"124 36 OFFCURVE",
"140 23 OFFCURVE",
"163 17 OFFCURVE",
"176 17 QCURVE SMOOTH",
"181 17 LINE",
"182 17 OFFCURVE",
"183 17 QCURVE",
"184 17 LINE",
"184 17 OFFCURVE",
"185 17 QCURVE",
"186 17 OFFCURVE",
"186 17 QCURVE",
"187 17 LINE",
"187 17 OFFCURVE",
"188 17 QCURVE",
"207 17 LINE",
"207 0 LINE"
);
},
{
nodes = (
"17 18 LINE",
"21 24 LINE",
"21 18 LINE"
);
}
);
width = 714;
}
);
unicode = 006D;
},
{
glyphname = n;
layers = (
{
layerId = "DE113C6F-85E3-4DBE-A925-75822E2A0D50";
paths = (
{
nodes = (
"21 17 LINE",
"51 17 OFFCURVE",
"85 20 OFFCURVE",
"100 37 OFFCURVE",
"103 72 OFFCURVE",
"103 105 QCURVE SMOOTH",
"103 637 LINE",
"90 650 LINE",
"21 650 LINE",
"21 667 LINE",
"222 667 LINE",
"512 191 LINE",
"512 567 LINE SMOOTH",
"512 599 OFFCURVE",
"509 633 OFFCURVE",
"497 648 OFFCURVE",
"474 650 OFFCURVE",
"454 650 QCURVE SMOOTH",
"432 650 LINE",
"432 667 LINE",
"613 667 LINE",
"613 650 LINE",
"590 650 LINE SMOOTH",
"570 650 OFFCURVE",
"546 648 OFFCURVE",
"534 633 OFFCURVE",
"531 599 OFFCURVE",
"531 567 QCURVE SMOOTH",
"531 -5 LINE",
"481 -5 LINE",
"122 589 LINE",
"122 122 LINE SMOOTH",
"122 82 OFFCURVE",
"124 39 OFFCURVE",
"139 20 OFFCURVE",
"173 17 OFFCURVE",
"205 17 QCURVE",
"205 0 LINE",
"21 0 LINE"
);
}
);
width = 626;
}
);
unicode = 006E;
},
{
glyphname = o;
layers = (
{
layerId = "DE113C6F-85E3-4DBE-A925-75822E2A0D50";
paths = (
{
nodes = (
"358 680 OFFCURVE",
"453 619 OFFCURVE",
"522 520 OFFCURVE",
"560 395 OFFCURVE",
"560 332 QCURVE SMOOTH",
"560 268 OFFCURVE",
"522 145 OFFCURVE",
"453 48 OFFCURVE",
"358 -12 OFFCURVE",
"301 -12 QCURVE SMOOTH",
"243 -12 OFFCURVE",
"147 49 OFFCURVE",
"79 149 OFFCURVE",
"41 275 OFFCURVE",
"41 340 QCURVE SMOOTH",
"41 402 OFFCURVE",
"82 524 OFFCURVE",
"153 620 OFFCURVE",
"247 680 OFFCURVE",
"301 680 QCURVE SMOOTH"
);
},
{
nodes = (
"271 664 OFFCURVE",
"225 631 OFFCURVE",
"193 576 OFFCURVE",
"174 507 OFFCURVE",
"163 434 OFFCURVE",
"159 363 OFFCURVE",
"159 335 QCURVE SMOOTH",
"159 306 OFFCURVE",
"162 235 OFFCURVE",
"172 162 OFFCURVE",
"190 92 OFFCURVE",
"221 37 OFFCURVE",
"267 4 OFFCURVE",
"300 4 QCURVE SMOOTH",
"333 4 OFFCURVE",
"379 38 OFFCURVE",
"409 93 OFFCURVE",
"425 164 OFFCURVE",
"433 237 OFFCURVE",
"435 308 OFFCURVE",
"435 336 QCURVE SMOOTH",
"435 361 OFFCURVE",
"432 429 OFFCURVE",
"422 501 OFFCURVE",
"405 573 OFFCURVE",
"375 629 OFFCURVE",
"333 664 OFFCURVE",
"303 664 QCURVE SMOOTH"
);
}
);
width = 595;
}
);
unicode = 006F;
},
{
glyphname = p;
layers = (
{
layerId = "DE113C6F-85E3-4DBE-A925-75822E2A0D50";
paths = (
{
nodes = (
"201 17 LINE",
"265 17 LINE",
"265 0 LINE",
"27 0 LINE",
"27 17 LINE",
"87 17 LINE",
"87 650 LINE",
"27 650 LINE",
"27 667 LINE",
"261 667 LINE SMOOTH",
"299 667 OFFCURVE",
"383 653 OFFCURVE",
"453 613 OFFCURVE",
"499 541 OFFCURVE",
"499 484 QCURVE SMOOTH",
"499 432 OFFCURVE",
"458 359 OFFCURVE",
"395 314 OFFCURVE",
"318 293 OFFCURVE",
"281 293 QCURVE SMOOTH",
"261 293 OFFCURVE",
"222 299 OFFCURVE",
"202 313 QCURVE"
);
},
{
nodes = (
"202 332 LINE",
"229 312 OFFCURVE",
"263 312 QCURVE SMOOTH",
"292 312 OFFCURVE",
"340 336 OFFCURVE",
"374 380 OFFCURVE",
"392 438 OFFCURVE",
"392 473 QCURVE SMOOTH",
"392 521 OFFCURVE",
"369 589 OFFCURVE",
"325 632 OFFCURVE",
"264 652 OFFCURVE",
"227 652 QCURVE SMOOTH",
"224 652 OFFCURVE",
"211 650 OFFCURVE",
"203 649 QCURVE"
);
}
);
width = 515;
}
);
unicode = 0070;
},
{
glyphname = q;
layers = (
{
layerId = "DE113C6F-85E3-4DBE-A925-75822E2A0D50";
paths = (
{
nodes = (
"355 -103 LINE",
"355 -128 OFFCURVE",
"369 -159 OFFCURVE",
"393 -176 OFFCURVE",
"424 -182 OFFCURVE",
"441 -182 QCURVE SMOOTH",
"453 -182 OFFCURVE",
"474 -180 OFFCURVE",
"485 -179 QCURVE",
"485 -198 LINE",
"471 -199 OFFCURVE",
"450 -200 OFFCURVE",
"436 -200 QCURVE SMOOTH",
"423 -200 OFFCURVE",
"379 -194 OFFCURVE",
"332 -184 OFFCURVE",
"290 -170 OFFCURVE",
"281 -161 QCURVE SMOOTH",
"269 -151 OFFCURVE",
"257 -118 OFFCURVE",
"252 -80 OFFCURVE",
"251 -41 OFFCURVE",
"251 -25 QCURVE SMOOTH",
"251 -8 LINE",
"203 8 OFFCURVE",
"125 77 OFFCURVE",
"70 169 OFFCURVE",
"41 279 OFFCURVE",
"41 337 QCURVE SMOOTH",
"41 399 OFFCURVE",
"81 522 OFFCURVE",
"151 619 OFFCURVE",
"245 680 OFFCURVE",
"300 680 QCURVE SMOOTH",
"357 680 OFFCURVE",
"452 619 OFFCURVE",
"521 520 OFFCURVE",
"560 396 OFFCURVE",
"560 332 QCURVE SMOOTH",
"560 275 OFFCURVE",
"531 168 OFFCURVE",
"478 78 OFFCURVE",
"403 10 OFFCURVE",
"356 -8 QCURVE"
);
},
{
nodes = (
"270 664 OFFCURVE",
"223 631 OFFCURVE",
"190 578 OFFCURVE",
"170 508 OFFCURVE",
"159 435 OFFCURVE",
"156 364 OFFCURVE",
"156 335 QCURVE SMOOTH",
"156 306 OFFCURVE",
"160 234 OFFCURVE",
"171 161 OFFCURVE",
"192 91 OFFCURVE",
"225 37 OFFCURVE",
"273 4 OFFCURVE",
"306 4 QCURVE SMOOTH",
"336 4 OFFCURVE",
"379 39 OFFCURVE",
"409 96 OFFCURVE",
"426 168 OFFCURVE",
"435 242 OFFCURVE",
"438 310 OFFCURVE",
"438 335 QCURVE SMOOTH",
"438 361 OFFCURVE",
"434 430 OFFCURVE",
"423 503 OFFCURVE",
"405 574 OFFCURVE",
"375 630 OFFCURVE",
"332 664 OFFCURVE",
"303 664 QCURVE SMOOTH"
);
}
);
width = 595;
}
);
unicode = 0071;
},
{
glyphname = r;
layers = (
{
layerId = "DE113C6F-85E3-4DBE-A925-75822E2A0D50";
paths = (
{
nodes = (
"192 17 LINE",
"253 17 LINE",
"253 0 LINE",
"27 0 LINE",
"27 17 LINE",
"82 17 LINE",
"82 650 LINE",
"27 650 LINE",
"27 667 LINE",
"316 667 LINE SMOOTH",
"349 667 OFFCURVE",
"413 651 OFFCURVE",
"462 614 OFFCURVE",
"493 553 OFFCURVE",
"493 507 QCURVE SMOOTH",
"493 472 OFFCURVE",
"472 420 OFFCURVE",
"436 383 OFFCURVE",
"388 359 OFFCURVE",
"361 353 QCURVE",
"361 342 LINE",
"403 331 OFFCURVE",
"450 282 OFFCURVE",
"474 220 OFFCURVE",
"480 151 OFFCURVE",
"481 120 QCURVE SMOOTH",
"482 98 OFFCURVE",
"485 59 OFFCURVE",
"493 30 OFFCURVE",
"509 13 OFFCURVE",
"523 13 QCURVE SMOOTH",
"532 13 OFFCURVE",
"548 18 OFFCURVE",
"556 21 QCURVE",
"557 21 OFFCURVE",
"558 22 QCURVE",
"564 7 LINE",
"547 -1 OFFCURVE",
"514 -7 OFFCURVE",
"497 -7 QCURVE SMOOTH",
"453 -7 OFFCURVE",
"403 19 OFFCURVE",
"376 65 OFFCURVE",
"367 129 OFFCURVE",
"364 168 QCURVE SMOOTH",
"363 180 OFFCURVE",
"361 206 OFFCURVE",
"359 220 QCURVE SMOOTH",
"354 263 OFFCURVE",
"323 311 OFFCURVE",
"278 334 OFFCURVE",
"222 339 OFFCURVE",
"192 339 QCURVE"
);
},
{
nodes = (
"192 650 LINE",
"192 355 LINE",
"224 355 LINE SMOOTH",
"252 355 OFFCURVE",
"307 371 OFFCURVE",
"349 406 OFFCURVE",
"375 461 OFFCURVE",
"375 501 QCURVE SMOOTH",
"375 546 OFFCURVE",
"351 604 OFFCURVE",
"309 637 OFFCURVE",
"253 650 OFFCURVE",
"221 650 QCURVE SMOOTH"
);
}
);
width = 583;
}
);
unicode = 0072;
},
{
glyphname = s;
layers = (
{
layerId = "DE113C6F-85E3-4DBE-A925-75822E2A0D50";
paths = (
{
nodes = (
"51 238 LINE",
"66 238 LINE",
"70 187 OFFCURVE",
"94 104 OFFCURVE",
"139 44 OFFCURVE",
"207 11 OFFCURVE",
"254 11 QCURVE SMOOTH",
"283 11 OFFCURVE",
"330 29 OFFCURVE",
"361 62 OFFCURVE",
"369 95 OFFCURVE",
"369 106 QCURVE SMOOTH",
"369 120 OFFCURVE",
"365 135 QCURVE SMOOTH",
"357 164 OFFCURVE",
"296 200 OFFCURVE",
"255 219 QCURVE SMOOTH",
"220 235 OFFCURVE",
"147 273 OFFCURVE",
"85 330 OFFCURVE",
"46 410 OFFCURVE",
"46 468 QCURVE SMOOTH",
"46 477 OFFCURVE",
"47 499 OFFCURVE",
"49 510 QCURVE SMOOTH",
"60 591 OFFCURVE",
"148 670 OFFCURVE",
"223 674 QCURVE",
"226 674 OFFCURVE",
"229 674 QCURVE SMOOTH",
"267 674 OFFCURVE",
"321 647 OFFCURVE",
"339 634 QCURVE",
"356 620 OFFCURVE",
"367 620 QCURVE SMOOTH",
"381 620 OFFCURVE",
"387 647 OFFCURVE",
"387 659 QCURVE",
"403 659 LINE",
"403 458 LINE",
"386 458 LINE",
"379 502 OFFCURVE",
"355 575 OFFCURVE",
"316 626 OFFCURVE",
"260 654 OFFCURVE",
"221 654 QCURVE SMOOTH",
"195 654 OFFCURVE",
"147 640 OFFCURVE",
"112 611 OFFCURVE",
"95 569 OFFCURVE",
"95 544 QCURVE SMOOTH",
"95 539 OFFCURVE",
"95 533 QCURVE",
"97 506 OFFCURVE",
"121 467 OFFCURVE",
"159 438 OFFCURVE",
"207 416 OFFCURVE",
"233 406 QCURVE SMOOTH",
"266 393 OFFCURVE",
"333 360 OFFCURVE",
"390 311 OFFCURVE",
"429 241 OFFCURVE",
"434 191 QCURVE",
"434 185 OFFCURVE",
"434 179 QCURVE SMOOTH",
"434 140 OFFCURVE",
"409 70 OFFCURVE",
"360 16 OFFCURVE",
"291 -13 OFFCURVE",
"251 -13 QCURVE SMOOTH",
"212 -13 OFFCURVE",
"152 10 OFFCURVE",
"130 21 QCURVE",
"118 28 OFFCURVE",
"97 37 OFFCURVE",
"87 37 QCURVE SMOOTH",
"76 37 OFFCURVE",
"67 5 OFFCURVE",
"66 -7 QCURVE",
"51 -7 LINE"
);
}
);
width = 470;
}
);
unicode = 0073;
},
{
glyphname = t;
layers = (
{
layerId = "DE113C6F-85E3-4DBE-A925-75822E2A0D50";
paths = (
{
nodes = (
"207 650 LINE",
"193 650 LINE SMOOTH",
"145 650 OFFCURVE",
"83 635 OFFCURVE",
"46 594 OFFCURVE",
"31 523 OFFCURVE",
"31 466 QCURVE",
"13 466 LINE",
"15 518 OFFCURVE",
"16 616 OFFCURVE",
"18 667 QCURVE",
"513 667 LINE",
"514 616 OFFCURVE",
"515 518 OFFCURVE",
"516 466 QCURVE",
"500 466 LINE",
"500 527 OFFCURVE",
"484 600 OFFCURVE",
"445 639 OFFCURVE",
"378 650 OFFCURVE",
"325 650 QCURVE",
"325 17 LINE",
"393 17 LINE",
"393 0 LINE",
"136 0 LINE",
"136 17 LINE",
"207 17 LINE"
);
}
);
width = 526;
}
);
unicode = 0074;
},
{
glyphname = u;
layers = (
{
layerId = "DE113C6F-85E3-4DBE-A925-75822E2A0D50";
paths = (
{
nodes = (
"616 650 LINE",
"600 650 LINE SMOOTH",
"580 650 OFFCURVE",
"555 648 OFFCURVE",
"540 633 OFFCURVE",
"535 599 OFFCURVE",
"535 568 QCURVE SMOOTH",
"535 227 LINE SMOOTH",
"535 97 OFFCURVE",
"430 -14 OFFCURVE",
"325 -14 QCURVE SMOOTH",
"292 -14 OFFCURVE",
"213 -4 OFFCURVE",
"142 27 OFFCURVE",
"89 83 OFFCURVE",
"83 129 QCURVE SMOOTH",
"81 140 OFFCURVE",
"81 157 QCURVE SMOOTH",
"81 160 LINE",
"81 160 OFFCURVE",
"81 161 QCURVE",
"81 164 LINE",
"81 166 OFFCURVE",
"81 167 QCURVE",
"81 168 LINE",
"81 168 OFFCURVE",
"81 168 QCURVE",
"81 169 LINE",
"81 171 OFFCURVE",
"81 172 QCURVE",
"81 650 LINE",
"18 650 LINE",
"18 667 LINE",
"271 667 LINE",
"271 650 LINE",
"207 650 LINE",
"207 219 LINE SMOOTH",
"207 173 OFFCURVE",
"218 96 OFFCURVE",
"249 40 OFFCURVE",
"303 8 OFFCURVE",
"345 8 QCURVE SMOOTH",
"391 8 OFFCURVE",
"456 41 OFFCURVE",
"495 102 OFFCURVE",
"513 189 OFFCURVE",
"513 242 QCURVE SMOOTH",
"513 568 LINE SMOOTH",
"513 600 OFFCURVE",
"506 634 OFFCURVE",
"490 650 OFFCURVE",
"471 652 OFFCURVE",
"463 652 QCURVE SMOOTH",
"455 652 OFFCURVE",
"445 651 QCURVE",
"440 651 OFFCURVE",
"429 650 OFFCURVE",
"422 650 QCURVE",
"422 667 LINE",
"616 667 LINE"
);
}
);
width = 623;
}
);
unicode = 0075;
},
{
glyphname = v;
layers = (
{
layerId = "DE113C6F-85E3-4DBE-A925-75822E2A0D50";
paths = (
{
nodes = (
"-12 667 LINE",
"234 667 LINE",
"234 650 LINE",
"170 650 LINE",
"309 190 LINE",
"341 285 OFFCURVE",
"385 419 OFFCURVE",
"415 511 OFFCURVE",
"432 566 OFFCURVE",
"440 598 OFFCURVE",
"442 613 OFFCURVE",
"442 618 QCURVE SMOOTH",
"442 631 OFFCURVE",
"427 644 OFFCURVE",
"404 650 OFFCURVE",
"392 650 QCURVE SMOOTH",
"389 650 LINE",
"388 650 OFFCURVE",
"387 650 QCURVE",
"385 650 LINE",
"384 650 OFFCURVE",
"383 650 QCURVE",
"367 650 LINE",
"367 667 LINE",
"551 667 LINE",
"551 650 LINE",
"543 650 LINE SMOOTH",
"519 650 OFFCURVE",
"493 647 OFFCURVE",
"477 632 OFFCURVE",
"465 600 OFFCURVE",
"456 572 QCURVE SMOOTH",
"260 -26 LINE",
"41 650 LINE",
"-12 650 LINE"
);
}
);
width = 523;
}
);
unicode = 0076;
},
{
glyphname = w;
layers = (
{
layerId = "DE113C6F-85E3-4DBE-A925-75822E2A0D50";
paths = (
{
nodes = (
"-13 667 LINE",
"547 667 LINE",
"547 650 LINE",
"516 650 OFFCURVE",
"479 640 OFFCURVE",
"457 617 OFFCURVE",
"443 579 OFFCURVE",
"436 551 QCURVE SMOOTH",
"420 491 LINE",
"511 168 LINE",
"518 188 OFFCURVE",
"537 244 OFFCURVE",
"544 265 QCURVE SMOOTH",
"554 295 OFFCURVE",
"578 368 OFFCURVE",
"603 442 OFFCURVE",
"625 513 OFFCURVE",
"643 572 OFFCURVE",
"653 613 OFFCURVE",
"653 620 QCURVE SMOOTH",
"653 632 OFFCURVE",
"638 645 OFFCURVE",
"617 650 OFFCURVE",
"607 650 QCURVE SMOOTH",
"604 650 LINE",
"604 650 OFFCURVE",
"603 650 QCURVE",
"601 650 LINE",
"600 650 OFFCURVE",
"599 650 QCURVE",
"588 650 LINE",
"588 667 LINE",
"766 667 LINE",
"766 650 LINE",
"736 650 OFFCURVE",
"704 647 OFFCURVE",
"685 632 OFFCURVE",
"672 599 OFFCURVE",
"662 570 QCURVE SMOOTH",
"471 -23 LINE",
"455 -23 LINE",
"361 305 LINE",
"268 -23 LINE",
"262 -23 OFFCURVE",
"249 -24 OFFCURVE",
"244 -24 QCURVE",
"37 650 LINE",
"-13 650 LINE"
);
},
{
nodes = (
"349 332 LINE",
"251 650 LINE",
"149 650 LINE",
"297 157 LINE"
);
},
{
nodes = (
"411 516 LINE",
"412 518 OFFCURVE",
"421 550 OFFCURVE",
"432 588 OFFCURVE",
"441 622 OFFCURVE",
"441 626 QCURVE SMOOTH",
"441 635 OFFCURVE",
"432 644 OFFCURVE",
"419 649 OFFCURVE",
"406 650 OFFCURVE",
"402 650 QCURVE SMOOTH",
"373 650 LINE"
);
}
);
width = 735;
}
);
unicode = 0077;
},
{
glyphname = x;
layers = (
{
layerId = "DE113C6F-85E3-4DBE-A925-75822E2A0D50";
paths = (
{
nodes = (
"-15 17 LINE",
"-5 17 LINE SMOOTH",
"2 17 OFFCURVE",
"9 17 QCURVE SMOOTH",
"23 17 OFFCURVE",
"63 20 OFFCURVE",
"82 36 QCURVE SMOOTH",
"89 42 OFFCURVE",
"109 71 OFFCURVE",
"144 132 OFFCURVE",
"198 234 OFFCURVE",
"239 313 QCURVE",
"79 650 LINE",
"26 650 LINE",
"26 667 LINE",
"268 667 LINE",
"268 650 LINE",
"207 650 LINE",
"315 427 LINE",
"350 490 OFFCURVE",
"390 564 OFFCURVE",
"411 605 OFFCURVE",
"417 623 OFFCURVE",
"417 629 QCURVE SMOOTH",
"417 644 OFFCURVE",
"397 650 OFFCURVE",
"389 650 QCURVE SMOOTH",
"343 650 LINE",
"343 667 LINE",
"535 667 LINE",
"535 650 LINE",
"530 650 LINE SMOOTH",
"513 650 OFFCURVE",
"472 645 OFFCURVE",
"458 633 QCURVE SMOOTH",
"452 627 OFFCURVE",
"436 607 OFFCURVE",
"408 560 OFFCURVE",
"362 476 OFFCURVE",
"325 407 QCURVE",
"515 17 LINE",
"579 17 LINE",
"579 0 LINE",
"318 0 LINE",
"318 17 LINE",
"385 17 LINE",
"249 293 LINE",
"169 140 LINE SMOOTH",
"154 112 OFFCURVE",
"136 77 OFFCURVE",
"125 54 OFFCURVE",
"121 43 OFFCURVE",
"121 39 QCURVE SMOOTH",
"121 30 OFFCURVE",
"131 21 OFFCURVE",
"145 17 OFFCURVE",
"152 17 QCURVE",
"154 17 LINE",
"155 17 OFFCURVE",
"155 17 QCURVE",
"156 17 OFFCURVE",
"156 17 QCURVE",
"156 17 OFFCURVE",
"157 17 QCURVE",
"157 17 OFFCURVE",
"157 17 QCURVE",
"201 17 LINE",
"201 0 LINE",
"-15 0 LINE"
);
}
);
width = 558;
}
);
unicode = 0078;
},
{
glyphname = y;
layers = (
{
layerId = "DE113C6F-85E3-4DBE-A925-75822E2A0D50";
paths = (
{
nodes = (
"333 667 LINE",
"510 667 LINE",
"510 651 LINE",
"489 651 LINE SMOOTH",
"475 651 OFFCURVE",
"457 646 OFFCURVE",
"442 631 OFFCURVE",
"429 603 OFFCURVE",
"420 581 QCURVE SMOOTH",
"295 266 LINE",
"295 17 LINE",
"359 17 LINE",
"359 0 LINE",
"124 0 LINE",
"124 17 LINE",
"187 17 LINE",
"187 243 LINE",
"30 650 LINE",
"-23 650 LINE",
"-23 667 LINE",
"216 667 LINE",
"216 650 LINE",
"153 650 LINE",
"286 304 LINE",
"383 541 LINE SMOOTH",
"386 547 OFFCURVE",
"394 570 OFFCURVE",
"402 595 OFFCURVE",
"408 618 OFFCURVE",
"408 625 QCURVE SMOOTH",
"408 642 OFFCURVE",
"377 651 OFFCURVE",
"359 651 QCURVE SMOOTH",
"352 651 OFFCURVE",
"340 650 OFFCURVE",
"335 650 QCURVE",
"333 650 LINE"
);
}
);
width = 483;
}
);
unicode = 0079;
},
{
glyphname = z;
layers = (
{
layerId = "DE113C6F-85E3-4DBE-A925-75822E2A0D50";
paths = (
{
nodes = (
"32 0 LINE",
"353 647 LINE",
"310 647 LINE SMOOTH",
"242 647 OFFCURVE",
"153 636 OFFCURVE",
"130 623 QCURVE",
"130 624 LINE",
"81 599 OFFCURVE",
"81 521 QCURVE SMOOTH",
"81 482 LINE",
"65 482 LINE",
"65 667 LINE",
"496 667 LINE",
"167 17 LINE",
"240 17 LINE SMOOTH",
"305 17 OFFCURVE",
"396 31 OFFCURVE",
"454 63 OFFCURVE",
"481 113 OFFCURVE",
"481 148 QCURVE SMOOTH",
"481 193 LINE",
"498 193 LINE",
"498 0 LINE"
);
}
);
width = 519;
}
);
unicode = 007A;
},
{
glyphname = braceleft;
layers = (
{
layerId = "DE113C6F-85E3-4DBE-A925-75822E2A0D50";
paths = (
{
nodes = (
"140 -26 OFFCURVE",
"175 -57 OFFCURVE",
"192 -65 QCURVE",
"188 -65 LINE",
"186 -84 LINE",
"166 -79 OFFCURVE",
"117 -60 OFFCURVE",
"72 -29 OFFCURVE",
"39 14 OFFCURVE",
"35 43 QCURVE",
"35 45 OFFCURVE",
"35 49 QCURVE SMOOTH",
"35 55 OFFCURVE",
"38 80 OFFCURVE",
"47 119 OFFCURVE",
"59 164 OFFCURVE",
"65 187 QCURVE",
"66 194 OFFCURVE",
"71 218 OFFCURVE",
"76 243 OFFCURVE",
"78 261 OFFCURVE",
"78 265 QCURVE SMOOTH",
"78 268 OFFCURVE",
"78 270 QCURVE",
"75 290 OFFCURVE",
"42 319 OFFCURVE",
"26 327 QCURVE",
"26 350 LINE",
"42 358 OFFCURVE",
"75 387 OFFCURVE",
"78 407 QCURVE",
"78 409 OFFCURVE",
"78 412 QCURVE SMOOTH",
"78 416 OFFCURVE",
"76 434 OFFCURVE",
"71 459 OFFCURVE",
"66 482 OFFCURVE",
"65 490 QCURVE",
"59 513 OFFCURVE",
"47 558 OFFCURVE",
"38 597 OFFCURVE",
"35 621 OFFCURVE",
"35 628 QCURVE SMOOTH",
"35 631 OFFCURVE",
"35 634 QCURVE",
"39 663 OFFCURVE",
"72 706 OFFCURVE",
"117 737 OFFCURVE",
"166 756 OFFCURVE",
"186 761 QCURVE",
"188 742 LINE",
"192 742 LINE",
"175 734 OFFCURVE",
"140 703 OFFCURVE",
"138 683 QCURVE",
"138 680 OFFCURVE",
"138 675 QCURVE SMOOTH",
"138 662 OFFCURVE",
"149 606 OFFCURVE",
"157 572 QCURVE",
"166 539 OFFCURVE",
"178 484 OFFCURVE",
"178 467 QCURVE SMOOTH",
"178 462 OFFCURVE",
"178 458 QCURVE",
"175 432 OFFCURVE",
"150 393 OFFCURVE",
"115 364 OFFCURVE",
"75 344 OFFCURVE",
"56 338 QCURVE",
"75 332 OFFCURVE",
"115 312 OFFCURVE",
"150 283 OFFCURVE",
"175 244 OFFCURVE",
"178 219 QCURVE",
"178 215 OFFCURVE",
"178 210 QCURVE SMOOTH",
"178 193 OFFCURVE",
"166 138 OFFCURVE",
"157 105 QCURVE",
"149 71 OFFCURVE",
"138 15 OFFCURVE",
"138 2 QCURVE SMOOTH",
"138 -3 OFFCURVE",
"138 -6 QCURVE"
);
}
);
width = 212;
}
);
unicode = 007B;
},
{
glyphname = bar;
layers = (
{
layerId = "DE113C6F-85E3-4DBE-A925-75822E2A0D50";
paths = (
{
nodes = (
"23 -96 LINE",
"23 757 LINE",
"65 757 LINE",
"65 -96 LINE"
);
}
);
width = 89;
}
);
unicode = 007C;
},
{
glyphname = braceright;
layers = (
{
layerId = "DE113C6F-85E3-4DBE-A925-75822E2A0D50";
paths = (
{
nodes = (
"80 -3 OFFCURVE",
"80 2 QCURVE SMOOTH",
"80 15 OFFCURVE",
"69 71 OFFCURVE",
"61 105 QCURVE",
"52 138 OFFCURVE",
"40 193 OFFCURVE",
"40 210 QCURVE SMOOTH",
"40 215 OFFCURVE",
"40 219 QCURVE",
"43 244 OFFCURVE",
"68 283 OFFCURVE",
"103 312 OFFCURVE",
"143 332 OFFCURVE",
"162 338 QCURVE",
"143 344 OFFCURVE",
"103 364 OFFCURVE",
"68 393 OFFCURVE",
"43 432 OFFCURVE",
"40 458 QCURVE",
"40 462 OFFCURVE",
"40 467 QCURVE SMOOTH",
"40 484 OFFCURVE",
"52 539 OFFCURVE",
"61 572 QCURVE",
"69 606 OFFCURVE",
"80 662 OFFCURVE",
"80 675 QCURVE SMOOTH",
"80 680 OFFCURVE",
"80 683 QCURVE",
"78 703 OFFCURVE",
"43 734 OFFCURVE",
"26 742 QCURVE",
"30 742 LINE",
"32 761 LINE",
"52 756 OFFCURVE",
"101 737 OFFCURVE",
"146 706 OFFCURVE",
"179 663 OFFCURVE",
"183 634 QCURVE",
"183 631 OFFCURVE",
"183 628 QCURVE SMOOTH",
"183 621 OFFCURVE",
"180 597 OFFCURVE",
"171 558 OFFCURVE",
"159 513 OFFCURVE",
"153 490 QCURVE",
"152 482 OFFCURVE",
"147 459 OFFCURVE",
"142 434 OFFCURVE",
"140 416 OFFCURVE",
"140 412 QCURVE SMOOTH",
"140 409 OFFCURVE",
"140 407 QCURVE",
"143 387 OFFCURVE",
"176 358 OFFCURVE",
"192 350 QCURVE",
"192 327 LINE",
"176 319 OFFCURVE",
"143 290 OFFCURVE",
"140 270 QCURVE",
"140 268 OFFCURVE",
"140 265 QCURVE SMOOTH",
"140 261 OFFCURVE",
"142 243 OFFCURVE",
"147 218 OFFCURVE",
"152 194 OFFCURVE",
"153 187 QCURVE",
"159 164 OFFCURVE",
"171 119 OFFCURVE",
"180 80 OFFCURVE",
"183 55 OFFCURVE",
"183 49 QCURVE SMOOTH",
"183 45 OFFCURVE",
"183 43 QCURVE",
"179 14 OFFCURVE",
"146 -29 OFFCURVE",
"101 -60 OFFCURVE",
"52 -79 OFFCURVE",
"32 -84 QCURVE",
"30 -65 LINE",
"26 -65 LINE",
"43 -57 OFFCURVE",
"78 -26 OFFCURVE",
"80 -6 QCURVE"
);
}
);
width = 212;
}
);
unicode = 007D;
},
{
glyphname = asciitilde;
layers = (
{
layerId = "DE113C6F-85E3-4DBE-A925-75822E2A0D50";
paths = (
{
nodes = (
"396 382 OFFCURVE",
"427 416 OFFCURVE",
"436 433 QCURVE",
"436 429 LINE",
"454 428 LINE",
"449 408 OFFCURVE",
"429 359 OFFCURVE",
"399 314 OFFCURVE",
"355 281 OFFCURVE",
"326 278 QCURVE",
"323 278 OFFCURVE",
"320 278 QCURVE SMOOTH",
"304 278 OFFCURVE",
"229 297 OFFCURVE",
"182 309 QCURVE",
"174 310 OFFCURVE",
"151 316 OFFCURVE",
"126 321 OFFCURVE",
"108 323 OFFCURVE",
"104 323 QCURVE SMOOTH",
"101 323 OFFCURVE",
"99 323 QCURVE",
"79 320 OFFCURVE",
"49 288 OFFCURVE",
"41 272 QCURVE",
"22 275 LINE",
"27 294 OFFCURVE",
"46 342 OFFCURVE",
"77 386 OFFCURVE",
"121 419 OFFCURVE",
"151 423 QCURVE",
"155 423 OFFCURVE",
"160 423 QCURVE SMOOTH",
"177 423 OFFCURVE",
"232 410 OFFCURVE",
"265 401 QCURVE",
"299 393 OFFCURVE",
"354 380 OFFCURVE",
"368 380 QCURVE SMOOTH",
"372 380 OFFCURVE",
"375 380 QCURVE"
);
}
);
width = 467;
}
);
unicode = 007E;
},
{
glyphname = exclamdown;
layers = (
{
layerId = "DE113C6F-85E3-4DBE-A925-75822E2A0D50";
paths = (
{
nodes = (
"100 573 OFFCURVE",
"74 603 OFFCURVE",
"74 624 QCURVE SMOOTH",
"74 646 OFFCURVE",
"99 676 OFFCURVE",
"116 676 QCURVE SMOOTH",
"134 676 OFFCURVE",
"159 647 OFFCURVE",
"159 624 QCURVE SMOOTH",
"159 603 OFFCURVE",
"134 573 OFFCURVE",
"117 573 QCURVE SMOOTH"
);
},
{
nodes = (
"129 506 LINE",
"132 440 OFFCURVE",
"141 332 OFFCURVE",
"153 233 OFFCURVE",
"168 134 OFFCURVE",
"178 75 QCURVE",
"164 63 OFFCURVE",
"149 36 OFFCURVE",
"139 18 QCURVE SMOOTH",
"136 12 OFFCURVE",
"130 2 QCURVE SMOOTH",
"125 -6 OFFCURVE",
"115 -9 OFFCURVE",
"113 -9 QCURVE",
"108 -9 OFFCURVE",
"103 -3 QCURVE",
"91 19 LINE",
"82 38 OFFCURVE",
"68 60 OFFCURVE",
"54 78 QCURVE",
"69 157 OFFCURVE",
"94 375 OFFCURVE",
"101 506 QCURVE"
);
}
);
width = 231;
}
);
unicode = 00A1;
},
{
glyphname = cent;
layers = (
{
layerId = "DE113C6F-85E3-4DBE-A925-75822E2A0D50";
paths = (
{
nodes = (
"280 85 OFFCURVE",
"317 90 OFFCURVE",
"354 101 OFFCURVE",
"390 117 OFFCURVE",
"405 129 QCURVE",
"411 121 LINE",
"341 66 OFFCURVE",
"258 66 QCURVE SMOOTH",
"253 66 OFFCURVE",
"249 66 QCURVE SMOOTH",
"214 66 OFFCURVE",
"181 75 QCURVE",
"145 -30 LINE",
"124 -24 LINE",
"160 81 LINE",
"131 91 OFFCURVE",
"78 124 OFFCURVE",
"39 171 OFFCURVE",
"16 232 OFFCURVE",
"16 271 QCURVE SMOOTH",
"16 331 OFFCURVE",
"59 413 OFFCURVE",
"129 464 OFFCURVE",
"217 486 OFFCURVE",
"262 486 QCURVE SMOOTH",
"278 486 OFFCURVE",
"298 483 QCURVE",
"333 585 LINE",
"354 579 LINE",
"319 478 LINE",
"340 473 OFFCURVE",
"378 453 OFFCURVE",
"408 422 OFFCURVE",
"425 380 OFFCURVE",
"425 353 QCURVE SMOOTH",
"425 327 OFFCURVE",
"398 287 OFFCURVE",
"374 287 QCURVE SMOOTH",
"356 287 OFFCURVE",
"331 313 OFFCURVE",
"331 333 QCURVE SMOOTH",
"331 361 OFFCURVE",
"363 375 OFFCURVE",
"383 375 QCURVE SMOOTH",
"392 375 OFFCURVE",
"396 387 OFFCURVE",
"396 395 QCURVE SMOOTH",
"396 416 OFFCURVE",
"366 445 OFFCURVE",
"324 462 OFFCURVE",
"281 469 OFFCURVE",
"268 469 QCURVE SMOOTH",
"233 469 OFFCURVE",
"181 437 OFFCURVE",
"147 384 OFFCURVE",
"130 316 OFFCURVE",
"130 279 QCURVE SMOOTH",
"130 242 OFFCURVE",
"143 172 OFFCURVE",
"175 118 OFFCURVE",
"226 85 OFFCURVE",
"264 85 QCURVE SMOOTH"
);
}
);
width = 446;
}
);
unicode = 00A2;
},
{
glyphname = sterling;
layers = (
{
layerId = "DE113C6F-85E3-4DBE-A925-75822E2A0D50";
paths = (
{
nodes = (
"476 116 LINE",
"472 99 OFFCURVE",
"456 58 OFFCURVE",
"430 21 OFFCURVE",
"394 -7 OFFCURVE",
"370 -10 QCURVE",
"368 -10 OFFCURVE",
"365 -10 QCURVE SMOOTH",
"351 -10 OFFCURVE",
"300 7 OFFCURVE",
"253 31 QCURVE SMOOTH",
"245 35 OFFCURVE",
"208 53 OFFCURVE",
"193 58 QCURVE",
"192 41 OFFCURVE",
"173 9 OFFCURVE",
"156 -1 QCURVE SMOOTH",
"139 -11 OFFCURVE",
"121 -11 QCURVE SMOOTH",
"114 -11 OFFCURVE",
"82 -4 OFFCURVE",
"71 19 QCURVE SMOOTH",
"65 31 OFFCURVE",
"65 45 QCURVE SMOOTH",
"65 56 OFFCURVE",
"79 94 OFFCURVE",
"103 108 QCURVE SMOOTH",
"114 115 OFFCURVE",
"133 118 OFFCURVE",
"139 118 QCURVE SMOOTH",
"145 118 OFFCURVE",
"150 117 QCURVE",
"152 129 OFFCURVE",
"152 140 QCURVE SMOOTH",
"152 167 OFFCURVE",
"128 229 OFFCURVE",
"109 266 QCURVE SMOOTH",
"107 270 OFFCURVE",
"105 274 QCURVE",
"23 274 LINE",
"23 303 LINE",
"90 303 LINE",
"81 321 OFFCURVE",
"73 340 QCURVE SMOOTH",
"56 378 OFFCURVE",
"56 421 QCURVE SMOOTH",
"56 493 OFFCURVE",
"99 592 OFFCURVE",
"169 653 OFFCURVE",
"257 679 OFFCURVE",
"301 679 QCURVE SMOOTH",
"328 679 OFFCURVE",
"385 662 OFFCURVE",
"432 623 OFFCURVE",
"463 562 OFFCURVE",
"463 519 QCURVE SMOOTH",
"463 487 OFFCURVE",
"435 441 OFFCURVE",
"411 441 QCURVE SMOOTH",
"393 441 OFFCURVE",
"368 472 OFFCURVE",
"368 496 QCURVE SMOOTH",
"368 528 OFFCURVE",
"401 547 OFFCURVE",
"421 547 QCURVE SMOOTH",
"429 547 OFFCURVE",
"433 559 OFFCURVE",
"433 570 QCURVE SMOOTH",
"433 596 OFFCURVE",
"403 630 OFFCURVE",
"362 651 OFFCURVE",
"319 660 OFFCURVE",
"307 660 QCURVE SMOOTH",
"272 660 OFFCURVE",
"220 622 OFFCURVE",
"186 558 OFFCURVE",
"170 475 OFFCURVE",
"170 431 QCURVE SMOOTH",
"170 303 LINE",
"311 303 LINE",
"311 274 LINE",
"170 274 LINE",
"170 160 LINE SMOOTH",
"170 154 OFFCURVE",
"168 130 OFFCURVE",
"166 111 QCURVE",
"169 109 OFFCURVE",
"173 107 OFFCURVE",
"174 105 QCURVE",
"187 112 OFFCURVE",
"214 122 OFFCURVE",
"232 124 QCURVE",
"235 124 OFFCURVE",
"238 124 QCURVE SMOOTH",
"252 124 OFFCURVE",
"290 109 OFFCURVE",
"316 95 QCURVE SMOOTH",
"359 72 OFFCURVE",
"392 70 OFFCURVE",
"400 70 QCURVE SMOOTH",
"411 70 OFFCURVE",
"418 71 QCURVE SMOOTH",
"435 73 OFFCURVE",
"454 106 OFFCURVE",
"461 120 QCURVE",
"461 118 LINE"
);
}
);
width = 507;
}
);
unicode = 00A3;
},
{
glyphname = currency;
layers = (
{
layerId = "DE113C6F-85E3-4DBE-A925-75822E2A0D50";
paths = (
{
nodes = (
"403 104 LINE",
"325 186 LINE",
"304 170 OFFCURVE",
"254 151 OFFCURVE",
"227 151 QCURVE SMOOTH",
"174 151 OFFCURVE",
"131 185 QCURVE",
"41 104 LINE",
"26 116 LINE",
"96 221 LINE",
"79 244 OFFCURVE",
"61 301 OFFCURVE",
"61 333 QCURVE SMOOTH",
"61 364 OFFCURVE",
"79 420 OFFCURVE",
"96 443 QCURVE",
"25 544 LINE",
"38 555 LINE",
"130 480 LINE",
"151 496 OFFCURVE",
"201 514 OFFCURVE",
"227 514 QCURVE SMOOTH",
"254 514 OFFCURVE",
"303 496 OFFCURVE",
"324 480 QCURVE",
"400 555 LINE",
"413 544 LINE",
"355 448 LINE",
"373 425 OFFCURVE",
"394 366 OFFCURVE",
"394 333 QCURVE SMOOTH",
"394 301 OFFCURVE",
"374 243 OFFCURVE",
"357 220 QCURVE",
"415 116 LINE"
);
},
{
nodes = (
"253 191 OFFCURVE",
"299 213 OFFCURVE",
"334 252 OFFCURVE",
"354 304 OFFCURVE",
"354 333 QCURVE SMOOTH",
"354 362 OFFCURVE",
"334 414 OFFCURVE",
"299 452 OFFCURVE",
"253 474 OFFCURVE",
"227 474 QCURVE SMOOTH",
"201 474 OFFCURVE",
"155 452 OFFCURVE",
"121 414 OFFCURVE",
"101 362 OFFCURVE",
"101 333 QCURVE SMOOTH",
"101 304 OFFCURVE",
"121 252 OFFCURVE",
"155 213 OFFCURVE",
"201 191 OFFCURVE",
"227 191 QCURVE SMOOTH"
);
}
);
width = 429;
}
);
unicode = 00A4;
},
{
glyphname = yen;
layers = (
{
layerId = "DE113C6F-85E3-4DBE-A925-75822E2A0D50";
paths = (
{
nodes = (
"333 667 LINE",
"510 667 LINE",
"510 651 LINE",
"489 651 LINE SMOOTH",
"475 651 OFFCURVE",
"457 646 OFFCURVE",
"442 631 OFFCURVE",
"429 603 OFFCURVE",
"420 581 QCURVE SMOOTH",
"308 300 LINE",
"396 300 LINE",
"396 270 LINE",
"297 270 LINE",
"295 266 LINE",
"295 227 LINE",
"396 227 LINE",
"396 197 LINE",
"295 197 LINE",
"295 17 LINE",
"359 17 LINE",
"359 0 LINE",
"124 0 LINE",
"124 17 LINE",
"187 17 LINE",
"187 197 LINE",
"93 197 LINE",
"93 227 LINE",
"187 227 LINE",
"187 243 LINE",
"177 270 LINE",
"93 270 LINE",
"93 300 LINE",
"165 300 LINE",
"30 650 LINE",
"-23 650 LINE",
"-23 667 LINE",
"216 667 LINE",
"216 650 LINE",
"153 650 LINE",
"286 304 LINE",
"383 541 LINE SMOOTH",
"386 547 OFFCURVE",
"394 570 OFFCURVE",
"402 595 OFFCURVE",
"408 618 OFFCURVE",
"408 625 QCURVE SMOOTH",
"408 642 OFFCURVE",
"377 651 OFFCURVE",
"359 651 QCURVE SMOOTH",
"352 651 OFFCURVE",
"340 650 OFFCURVE",
"335 650 QCURVE",
"333 650 LINE"
);
}
);
width = 483;
}
);
unicode = 00A5;
},
{
glyphname = brokenbar;
layers = (
{
layerId = "DE113C6F-85E3-4DBE-A925-75822E2A0D50";
paths = (
{
nodes = (
"23 240 LINE",
"65 240 LINE",
"65 -96 LINE",
"23 -96 LINE"
);
},
{
nodes = (
"23 448 LINE",
"23 757 LINE",
"65 757 LINE",
"65 448 LINE"
);
}
);
width = 89;
}
);
unicode = 00A6;
},
{
glyphname = section;
layers = (
{
layerId = "DE113C6F-85E3-4DBE-A925-75822E2A0D50";
paths = (
{
nodes = (
"239 206 OFFCURVE",
"147 249 OFFCURVE",
"72 315 OFFCURVE",
"46 368 QCURVE SMOOTH",
"21 418 OFFCURVE",
"20 466 OFFCURVE",
"20 468 QCURVE",
"20 513 OFFCURVE",
"54 591 OFFCURVE",
"117 653 OFFCURVE",
"156 673 QCURVE",
"193 690 OFFCURVE",
"244 696 OFFCURVE",
"256 696 QCURVE SMOOTH",
"284 696 OFFCURVE",
"349 678 OFFCURVE",
"415 620 OFFCURVE",
"439 574 QCURVE SMOOTH",
"446 559 OFFCURVE",
"454 525 OFFCURVE",
"454 510 QCURVE",
"454 508 OFFCURVE",
"453 490 OFFCURVE",
"440 464 OFFCURVE",
"425 456 QCURVE SMOOTH",
"417 452 OFFCURVE",
"408 452 QCURVE SMOOTH",
"398 452 OFFCURVE",
"367 467 OFFCURVE",
"355 488 QCURVE",
"347 507 OFFCURVE",
"347 521 QCURVE SMOOTH",
"347 529 OFFCURVE",
"356 554 OFFCURVE",
"378 565 QCURVE SMOOTH",
"384 568 LINE",
"394 571 OFFCURVE",
"397 578 OFFCURVE",
"397 580 QCURVE",
"397 587 OFFCURVE",
"391 600 QCURVE SMOOTH",
"378 628 OFFCURVE",
"328 664 OFFCURVE",
"276 679 OFFCURVE",
"252 679 QCURVE SMOOTH",
"249 679 OFFCURVE",
"219 678 OFFCURVE",
"198 667 QCURVE",
"166 652 OFFCURVE",
"135 595 OFFCURVE",
"133 562 QCURVE",
"133 555 OFFCURVE",
"133 548 QCURVE SMOOTH",
"133 528 OFFCURVE",
"137 505 QCURVE",
"143 504 LINE",
"144 503 OFFCURVE",
"144 503 QCURVE",
"149 502 LINE",
"150 502 OFFCURVE",
"150 502 QCURVE",
"155 501 LINE",
"155 500 OFFCURVE",
"156 500 QCURVE",
"162 499 LINE",
"163 499 OFFCURVE",
"164 498 QCURVE",
"168 497 LINE",
"169 497 OFFCURVE",
"169 497 QCURVE",
"174 496 LINE",
"175 496 OFFCURVE",
"175 495 QCURVE",
"181 494 LINE",
"182 494 OFFCURVE",
"183 494 QCURVE",
"187 492 LINE",
"188 492 OFFCURVE",
"189 492 QCURVE",
"193 491 LINE",
"194 491 OFFCURVE",
"195 491 QCURVE",
"201 489 LINE",
"201 489 OFFCURVE",
"202 489 QCURVE",
"206 488 LINE",
"207 487 OFFCURVE",
"208 487 QCURVE",
"212 486 LINE",
"214 486 OFFCURVE",
"215 485 QCURVE",
"220 484 LINE",
"220 484 OFFCURVE",
"221 484 QCURVE",
"226 483 LINE",
"226 483 OFFCURVE",
"227 482 QCURVE",
"232 481 LINE",
"232 481 OFFCURVE",
"233 481 QCURVE",
"284 468 OFFCURVE",
"376 425 OFFCURVE",
"450 358 OFFCURVE",
"477 306 QCURVE SMOOTH",
"502 256 OFFCURVE",
"503 208 OFFCURVE",
"503 207 QCURVE",
"503 162 OFFCURVE",
"469 82 OFFCURVE",
"406 21 OFFCURVE",
"367 1 QCURVE SMOOTH",
"329 -18 OFFCURVE",
"280 -23 OFFCURVE",
"269 -23 QCURVE SMOOTH",
"241 -23 OFFCURVE",
"175 -4 OFFCURVE",
"108 53 OFFCURVE",
"85 99 QCURVE",
"76 115 OFFCURVE",
"69 147 OFFCURVE",
"69 161 QCURVE SMOOTH",
"69 164 OFFCURVE",
"70 183 OFFCURVE",
"84 210 OFFCURVE",
"98 217 QCURVE SMOOTH",
"107 221 OFFCURVE",
"116 221 QCURVE SMOOTH",
"126 221 OFFCURVE",
"156 207 OFFCURVE",
"168 185 QCURVE",
"176 167 OFFCURVE",
"176 153 QCURVE SMOOTH",
"176 145 OFFCURVE",
"167 120 OFFCURVE",
"145 109 QCURVE",
"140 106 LINE",
"129 104 OFFCURVE",
"126 96 OFFCURVE",
"126 94 QCURVE",
"126 87 OFFCURVE",
"132 73 QCURVE SMOOTH",
"145 46 OFFCURVE",
"194 10 OFFCURVE",
"247 -5 OFFCURVE",
"271 -5 QCURVE SMOOTH",
"274 -5 OFFCURVE",
"305 -4 OFFCURVE",
"324 6 QCURVE",
"358 22 OFFCURVE",
"388 77 OFFCURVE",
"390 111 QCURVE",
"390 116 OFFCURVE",
"390 122 QCURVE SMOOTH",
"390 144 OFFCURVE",
"387 168 QCURVE",
"338 179 OFFCURVE",
"289 192 QCURVE SMOOTH"
);
},
{
nodes = (
"195 358 OFFCURVE",
"269 279 OFFCURVE",
"309 251 QCURVE",
"341 230 OFFCURVE",
"373 214 QCURVE",
"367 235 OFFCURVE",
"358 255 QCURVE",
"327 315 OFFCURVE",
"254 395 OFFCURVE",
"213 422 QCURVE SMOOTH",
"181 442 OFFCURVE",
"149 457 QCURVE",
"156 438 OFFCURVE",
"166 420 QCURVE"
);
}
);
width = 513;
}
);
unicode = 00A7;
},
{
glyphname = dieresis;
layers = (
{
layerId = "DE113C6F-85E3-4DBE-A925-75822E2A0D50";
paths = (
{
nodes = (
"31 602 OFFCURVE",
"65 636 OFFCURVE",
"89 636 QCURVE SMOOTH",
"113 636 OFFCURVE",
"147 602 OFFCURVE",
"147 578 QCURVE SMOOTH",
"147 554 OFFCURVE",
"113 520 OFFCURVE",
"89 520 QCURVE SMOOTH",
"65 520 OFFCURVE",
"31 554 OFFCURVE",
"31 578 QCURVE SMOOTH"
);
},
{
nodes = (
"186 602 OFFCURVE",
"220 636 OFFCURVE",
"244 636 QCURVE SMOOTH",
"268 636 OFFCURVE",
"302 602 OFFCURVE",
"302 578 QCURVE SMOOTH",
"302 554 OFFCURVE",
"268 520 OFFCURVE",
"244 520 QCURVE SMOOTH",
"220 520 OFFCURVE",
"186 554 OFFCURVE",
"186 578 QCURVE SMOOTH"
);
}
);
width = 329;
}
);
unicode = 00A8;
},
{
glyphname = copyright;
layers = (
{
layerId = "DE113C6F-85E3-4DBE-A925-75822E2A0D50";
paths = (
{
nodes = (
"180 242 OFFCURVE",
"104 275 OFFCURVE",
"47 332 OFFCURVE",
"14 407 OFFCURVE",
"14 450 QCURVE SMOOTH",
"14 494 OFFCURVE",
"47 570 OFFCURVE",
"104 627 OFFCURVE",
"180 659 OFFCURVE",
"223 659 QCURVE SMOOTH",
"266 659 OFFCURVE",
"342 627 OFFCURVE",
"399 570 OFFCURVE",
"431 494 OFFCURVE",
"431 450 QCURVE SMOOTH",
"431 407 OFFCURVE",
"399 332 OFFCURVE",
"342 275 OFFCURVE",
"266 242 OFFCURVE",
"223 242 QCURVE SMOOTH"
);
},
{
nodes = (
"186 631 OFFCURVE",
"120 603 OFFCURVE",
"71 554 OFFCURVE",
"42 488 OFFCURVE",
"42 450 QCURVE SMOOTH",
"42 413 OFFCURVE",
"71 347 OFFCURVE",
"120 298 OFFCURVE",
"186 270 OFFCURVE",
"223 270 QCURVE SMOOTH",
"261 270 OFFCURVE",
"327 298 OFFCURVE",
"375 347 OFFCURVE",
"403 413 OFFCURVE",
"403 450 QCURVE SMOOTH",
"403 488 OFFCURVE",
"375 554 OFFCURVE",
"327 603 OFFCURVE",
"261 631 OFFCURVE",
"223 631 QCURVE SMOOTH"
);
},
{
nodes = (
"301 310 LINE",
"301 314 OFFCURVE",
"300 322 OFFCURVE",
"298 329 OFFCURVE",
"293 334 OFFCURVE",
"289 334 QCURVE",
"287 334 OFFCURVE",
"280 330 OFFCURVE",
"276 327 QCURVE SMOOTH",
"267 320 OFFCURVE",
"241 306 OFFCURVE",
"223 306 QCURVE SMOOTH",
"199 306 OFFCURVE",
"159 328 OFFCURVE",
"132 365 OFFCURVE",
"117 416 OFFCURVE",
"117 444 QCURVE SMOOTH",
"117 472 OFFCURVE",
"131 526 OFFCURVE",
"159 567 OFFCURVE",
"199 592 OFFCURVE",
"224 592 QCURVE SMOOTH",
"236 592 OFFCURVE",
"253 585 OFFCURVE",
"268 577 OFFCURVE",
"281 569 OFFCURVE",
"289 569 QCURVE SMOOTH",
"294 569 OFFCURVE",
"299 575 OFFCURVE",
"300 581 QCURVE",
"307 581 LINE",
"307 497 LINE",
"299 497 LINE",
"298 512 OFFCURVE",
"287 542 OFFCURVE",
"269 567 OFFCURVE",
"246 582 OFFCURVE",
"232 582 QCURVE SMOOTH",
"219 582 OFFCURVE",
"200 568 OFFCURVE",
"187 545 OFFCURVE",
"179 515 OFFCURVE",
"174 485 OFFCURVE",
"173 455 OFFCURVE",
"173 444 QCURVE SMOOTH",
"173 423 OFFCURVE",
"178 379 OFFCURVE",
"193 343 OFFCURVE",
"220 320 OFFCURVE",
"243 320 QCURVE SMOOTH",
"255 320 OFFCURVE",
"275 338 OFFCURVE",
"290 365 OFFCURVE",
"299 396 OFFCURVE",
"301 409 QCURVE",
"307 409 LINE",
"307 310 LINE"
);
}
);
width = 445;
}
);
unicode = 00A9;
},
{
glyphname = ordfeminine;
layers = (
{
layerId = "DE113C6F-85E3-4DBE-A925-75822E2A0D50";
paths = (
{
nodes = (
"14 474 OFFCURVE",
"45 512 OFFCURVE",
"94 529 OFFCURVE",
"154 531 OFFCURVE",
"184 531 QCURVE SMOOTH",
"199 531 LINE",
"199 535 OFFCURVE",
"199 539 QCURVE SMOOTH",
"199 553 OFFCURVE",
"193 587 OFFCURVE",
"175 618 OFFCURVE",
"144 639 OFFCURVE",
"121 639 QCURVE SMOOTH",
"112 639 OFFCURVE",
"87 635 OFFCURVE",
"64 626 OFFCURVE",
"49 612 OFFCURVE",
"49 603 QCURVE SMOOTH",
"49 598 OFFCURVE",
"57 596 OFFCURVE",
"62 595 QCURVE SMOOTH",
"70 594 OFFCURVE",
"87 587 OFFCURVE",
"87 570 QCURVE SMOOTH",
"87 559 OFFCURVE",
"72 541 OFFCURVE",
"59 541 QCURVE SMOOTH",
"42 541 OFFCURVE",
"26 567 OFFCURVE",
"26 580 QCURVE SMOOTH",
"26 599 OFFCURVE",
"42 627 OFFCURVE",
"69 646 OFFCURVE",
"105 655 OFFCURVE",
"124 655 QCURVE SMOOTH",
"188 655 OFFCURVE",
"271 596 OFFCURVE",
"271 536 QCURVE SMOOTH",
"271 327 LINE",
"257 332 OFFCURVE",
"224 342 OFFCURVE",
"213 342 QCURVE SMOOTH",
"207 342 OFFCURVE",
"194 340 OFFCURVE",
"186 338 QCURVE SMOOTH",
"178 336 OFFCURVE",
"161 334 OFFCURVE",
"151 334 QCURVE",
"134 335 LINE SMOOTH",
"83 337 OFFCURVE",
"14 394 OFFCURVE",
"14 440 QCURVE SMOOTH"
);
},
{
nodes = (
"199 514 LINE",
"193 514 LINE",
"191 514 OFFCURVE",
"186 515 OFFCURVE",
"184 515 QCURVE",
"133 515 OFFCURVE",
"86 477 OFFCURVE",
"86 434 QCURVE SMOOTH",
"86 421 OFFCURVE",
"94 392 OFFCURVE",
"111 368 OFFCURVE",
"137 352 OFFCURVE",
"155 352 QCURVE SMOOTH",
"167 352 OFFCURVE",
"187 353 OFFCURVE",
"199 358 QCURVE"
);
}
);
width = 289;
}
);
unicode = 00AA;
},
{
glyphname = guillemotleft;
layers = (
{
layerId = "DE113C6F-85E3-4DBE-A925-75822E2A0D50";
paths = (
{
nodes = (
"189 494 LINE",
"198 488 LINE",
"177 451 OFFCURVE",
"159 418 QCURVE SMOOTH",
"143 390 OFFCURVE",
"111 333 OFFCURVE",
"103 318 QCURVE",
"111 302 OFFCURVE",
"127 274 QCURVE SMOOTH",
"130 269 OFFCURVE",
"132 265 QCURVE SMOOTH",
"133 263 LINE SMOOTH",
"136 258 OFFCURVE",
"139 253 QCURVE",
"140 252 LINE",
"146 241 OFFCURVE",
"152 231 QCURVE",
"153 229 LINE SMOOTH",
"155 224 OFFCURVE",
"158 220 QCURVE",
"159 218 LINE",
"177 185 OFFCURVE",
"198 148 QCURVE",
"189 142 LINE",
"27 274 LINE",
"16 296 OFFCURVE",
"16 342 OFFCURVE",
"27 362 QCURVE"
);
},
{
nodes = (
"334 494 LINE",
"343 488 LINE",
"322 451 OFFCURVE",
"304 418 QCURVE SMOOTH",
"288 390 OFFCURVE",
"256 333 OFFCURVE",
"248 318 QCURVE",
"256 302 OFFCURVE",
"272 274 QCURVE SMOOTH",
"275 269 OFFCURVE",
"277 265 QCURVE SMOOTH",
"278 263 LINE SMOOTH",
"281 258 OFFCURVE",
"284 253 QCURVE",
"285 252 LINE",
"291 241 OFFCURVE",
"297 231 QCURVE",
"298 229 LINE SMOOTH",
"300 224 OFFCURVE",
"303 220 QCURVE",
"304 218 LINE",
"322 185 OFFCURVE",
"343 148 QCURVE",
"334 142 LINE",
"172 274 LINE",
"161 296 OFFCURVE",
"161 342 OFFCURVE",
"172 362 QCURVE"
);
}
);
width = 365;
}
);
unicode = 00AB;
},
{
glyphname = uni00AD;
layers = (
{
layerId = "DE113C6F-85E3-4DBE-A925-75822E2A0D50";
paths = (
{
nodes = (
"45 359 LINE",
"348 359 LINE",
"348 317 LINE",
"45 317 LINE"
);
}
);
width = 394;
}
);
unicode = 00AD;
},
{
glyphname = registered;
layers = (
{
layerId = "DE113C6F-85E3-4DBE-A925-75822E2A0D50";
paths = (
{
nodes = (
"181 254 OFFCURVE",
"106 287 OFFCURVE",
"50 342 OFFCURVE",
"17 416 OFFCURVE",
"17 458 QCURVE SMOOTH",
"17 499 OFFCURVE",
"50 572 OFFCURVE",
"106 626 OFFCURVE",
"181 657 OFFCURVE",
"222 657 QCURVE SMOOTH",
"264 657 OFFCURVE",
"337 626 OFFCURVE",
"390 572 OFFCURVE",
"420 499 OFFCURVE",
"420 458 QCURVE SMOOTH",
"420 416 OFFCURVE",
"390 342 OFFCURVE",
"337 287 OFFCURVE",
"264 254 OFFCURVE",
"222 254 QCURVE SMOOTH"
);
},
{
nodes = (
"183 629 OFFCURVE",
"121 600 OFFCURVE",
"74 552 OFFCURVE",
"47 489 OFFCURVE",
"47 455 QCURVE SMOOTH",
"47 419 OFFCURVE",
"74 357 OFFCURVE",
"121 310 OFFCURVE",
"183 284 OFFCURVE",
"219 284 QCURVE SMOOTH",
"254 284 OFFCURVE",
"317 310 OFFCURVE",
"365 357 OFFCURVE",
"394 419 OFFCURVE",
"394 455 QCURVE SMOOTH",
"394 489 OFFCURVE",
"365 552 OFFCURVE",
"317 600 OFFCURVE",
"254 629 OFFCURVE",
"219 629 QCURVE SMOOTH"
);
},
{
nodes = (
"194 352 LINE",
"212 352 LINE",
"212 347 LINE",
"135 347 LINE",
"135 352 LINE",
"154 352 LINE",
"154 574 LINE",
"135 574 LINE",
"135 581 LINE",
"236 581 LINE SMOOTH",
"247 581 OFFCURVE",
"270 574 OFFCURVE",
"287 561 OFFCURVE",
"297 540 OFFCURVE",
"297 524 QCURVE SMOOTH",
"297 512 OFFCURVE",
"290 492 OFFCURVE",
"278 482 OFFCURVE",
"262 471 OFFCURVE",
"251 470 QCURVE",
"251 468 LINE",
"266 462 OFFCURVE",
"281 445 OFFCURVE",
"292 424 OFFCURVE",
"293 400 OFFCURVE",
"293 389 QCURVE",
"294 381 OFFCURVE",
"294 368 OFFCURVE",
"297 357 OFFCURVE",
"304 352 OFFCURVE",
"308 352 QCURVE SMOOTH",
"311 352 OFFCURVE",
"318 354 OFFCURVE",
"320 354 QCURVE",
"320 354 OFFCURVE",
"320 354 QCURVE",
"320 354 OFFCURVE",
"320 354 QCURVE",
"320 354 OFFCURVE",
"320 354 QCURVE",
"320 354 OFFCURVE",
"320 354 QCURVE",
"320 355 LINE",
"322 348 LINE",
"318 346 OFFCURVE",
"305 345 OFFCURVE",
"298 345 QCURVE SMOOTH",
"283 345 OFFCURVE",
"266 354 OFFCURVE",
"258 369 OFFCURVE",
"253 391 OFFCURVE",
"253 405 QCURVE SMOOTH",
"253 411 OFFCURVE",
"251 420 OFFCURVE",
"251 424 QCURVE",
"250 439 OFFCURVE",
"238 457 OFFCURVE",
"223 463 OFFCURVE",
"203 465 OFFCURVE",
"194 465 QCURVE"
);
},
{
nodes = (
"194 574 LINE",
"194 471 LINE",
"204 471 LINE SMOOTH",
"212 471 OFFCURVE",
"233 476 OFFCURVE",
"247 489 OFFCURVE",
"256 507 OFFCURVE",
"256 522 QCURVE SMOOTH",
"256 538 OFFCURVE",
"249 558 OFFCURVE",
"233 570 OFFCURVE",
"212 574 OFFCURVE",
"203 574 QCURVE SMOOTH"
);
}
);
width = 440;
}
);
unicode = 00AE;
},
{
glyphname = macron;
layers = (
{
layerId = "DE113C6F-85E3-4DBE-A925-75822E2A0D50";
paths = (
{
nodes = (
"66 769 LINE",
"319 769 LINE",
"319 710 LINE",
"66 710 LINE"
);
}
);
width = 385;
}
);
unicode = 00AF;
},
{
glyphname = degree;
layers = (
{
layerId = "DE113C6F-85E3-4DBE-A925-75822E2A0D50";
paths = (
{
nodes = (
"101 487 OFFCURVE",
"64 503 OFFCURVE",
"36 531 OFFCURVE",
"20 568 OFFCURVE",
"20 589 QCURVE SMOOTH",
"20 610 OFFCURVE",
"36 646 OFFCURVE",
"64 673 OFFCURVE",
"101 689 OFFCURVE",
"122 689 QCURVE SMOOTH",
"143 689 OFFCURVE",
"179 673 OFFCURVE",
"206 646 OFFCURVE",
"221 610 OFFCURVE",
"221 589 QCURVE SMOOTH",
"221 568 OFFCURVE",
"206 531 OFFCURVE",
"179 503 OFFCURVE",
"143 487 OFFCURVE",
"122 487 QCURVE SMOOTH"
);
},
{
nodes = (
"96 651 OFFCURVE",
"60 614 OFFCURVE",
"60 589 QCURVE SMOOTH",
"60 563 OFFCURVE",
"96 527 OFFCURVE",
"122 527 QCURVE SMOOTH",
"148 527 OFFCURVE",
"185 563 OFFCURVE",
"185 589 QCURVE SMOOTH",
"185 614 OFFCURVE",
"148 651 OFFCURVE",
"122 651 QCURVE SMOOTH"
);
}
);
width = 234;
}
);
unicode = 00B0;
},
{
glyphname = plusminus;
layers = (
{
layerId = "DE113C6F-85E3-4DBE-A925-75822E2A0D50";
paths = (
{
nodes = (
"21 121 LINE",
"407 121 LINE",
"407 84 LINE",
"21 84 LINE"
);
},
{
nodes = (
"234 606 LINE",
"234 436 LINE",
"407 436 LINE",
"407 399 LINE",
"234 399 LINE",
"234 220 LINE",
"197 220 LINE",
"197 399 LINE",
"21 399 LINE",
"21 436 LINE",
"197 436 LINE",
"197 606 LINE"
);
}
);
width = 431;
}
);
unicode = 00B1;
},
{
glyphname = acute;
layers = (
{
layerId = "DE113C6F-85E3-4DBE-A925-75822E2A0D50";
paths = (
{
nodes = (
"103 646 LINE",
"111 649 OFFCURVE",
"136 656 OFFCURVE",
"151 657 OFFCURVE",
"153 657 QCURVE",
"162 657 OFFCURVE",
"182 651 OFFCURVE",
"187 640 QCURVE",
"192 625 OFFCURVE",
"192 606 OFFCURVE",
"184 592 OFFCURVE",
"168 582 OFFCURVE",
"158 576 QCURVE SMOOTH",
"144 568 OFFCURVE",
"100 547 OFFCURVE",
"77 537 QCURVE SMOOTH",
"51 526 OFFCURVE",
"22 513 QCURVE",
"16 522 LINE"
);
}
);
width = 206;
}
);
unicode = 00B4;
},
{
glyphname = paragraph;
layers = (
{
layerId = "DE113C6F-85E3-4DBE-A925-75822E2A0D50";
paths = (
{
nodes = (
"531 612 LINE",
"460 612 LINE",
"460 -178 LINE",
"418 -178 LINE",
"418 612 LINE",
"271 612 LINE",
"271 -178 LINE",
"229 -178 LINE",
"229 237 LINE",
"186 237 OFFCURVE",
"111 271 OFFCURVE",
"55 327 OFFCURVE",
"22 403 OFFCURVE",
"22 445 QCURVE SMOOTH",
"22 488 OFFCURVE",
"55 564 OFFCURVE",
"111 621 OFFCURVE",
"186 654 OFFCURVE",
"229 654 QCURVE SMOOTH",
"531 654 LINE"
);
}
);
width = 559;
}
);
unicode = 00B6;
},
{
glyphname = periodcentered;
layers = (
{
layerId = "DE113C6F-85E3-4DBE-A925-75822E2A0D50";
paths = (
{
nodes = (
"23 370 OFFCURVE",
"67 416 OFFCURVE",
"98 416 QCURVE SMOOTH",
"129 416 OFFCURVE",
"173 370 OFFCURVE",
"173 337 QCURVE SMOOTH",
"173 304 OFFCURVE",
"129 257 OFFCURVE",
"98 257 QCURVE SMOOTH",
"67 257 OFFCURVE",
"23 304 OFFCURVE",
"23 337 QCURVE SMOOTH"
);
}
);
width = 189;
}
);
unicode = 00B7;
},
{
glyphname = cedilla;
layers = (
{
layerId = "DE113C6F-85E3-4DBE-A925-75822E2A0D50";
paths = (
{
nodes = (
"90 -65 LINE",
"152 7 LINE",
"175 7 LINE",
"134 -38 LINE",
"156 -31 OFFCURVE",
"176 -31 QCURVE SMOOTH",
"197 -31 OFFCURVE",
"241 -43 OFFCURVE",
"277 -68 OFFCURVE",
"299 -106 OFFCURVE",
"299 -132 QCURVE SMOOTH",
"299 -161 OFFCURVE",
"276 -201 OFFCURVE",
"239 -225 OFFCURVE",
"192 -236 OFFCURVE",
"169 -236 QCURVE SMOOTH",
"154 -236 OFFCURVE",
"122 -229 OFFCURVE",
"96 -213 OFFCURVE",
"79 -188 OFFCURVE",
"79 -170 QCURVE SMOOTH",
"79 -156 OFFCURVE",
"99 -133 OFFCURVE",
"116 -133 QCURVE SMOOTH",
"130 -133 OFFCURVE",
"149 -148 OFFCURVE",
"149 -161 QCURVE SMOOTH",
"149 -175 OFFCURVE",
"131 -184 OFFCURVE",
"117 -186 QCURVE",
"118 -195 OFFCURVE",
"130 -206 OFFCURVE",
"146 -214 OFFCURVE",
"161 -217 OFFCURVE",
"166 -217 QCURVE SMOOTH",
"193 -217 OFFCURVE",
"220 -168 OFFCURVE",
"220 -136 QCURVE SMOOTH",
"220 -120 OFFCURVE",
"215 -90 OFFCURVE",
"203 -66 OFFCURVE",
"183 -52 OFFCURVE",
"168 -52 QCURVE SMOOTH",
"157 -52 OFFCURVE",
"132 -62 OFFCURVE",
"116 -76 QCURVE"
);
}
);
width = 345;
}
);
unicode = 00B8;
},
{
glyphname = onesuperior;
layers = (
{
layerId = "DE113C6F-85E3-4DBE-A925-75822E2A0D50";
paths = (
{
nodes = (
"155 654 LINE",
"155 344 LINE",
"188 344 LINE",
"188 328 LINE",
"46 328 LINE",
"46 329 LINE",
"46 329 OFFCURVE",
"46 330 QCURVE",
"46 330 OFFCURVE",
"46 330 QCURVE",
"46 330 OFFCURVE",
"46 330 QCURVE",
"46 331 LINE",
"46 331 OFFCURVE",
"46 332 QCURVE",
"46 332 OFFCURVE",
"46 332 QCURVE",
"46 335 LINE",
"46 335 OFFCURVE",
"46 335 QCURVE",
"46 336 LINE",
"46 337 OFFCURVE",
"46 337 QCURVE",
"46 337 OFFCURVE",
"46 338 QCURVE",
"46 338 OFFCURVE",
"46 338 QCURVE",
"46 339 LINE",
"46 339 OFFCURVE",
"46 339 QCURVE",
"46 339 OFFCURVE",
"46 339 QCURVE",
"46 344 LINE",
"46 344 OFFCURVE",
"46 344 QCURVE",
"76 344 LINE",
"76 580 LINE",
"36 552 LINE",
"22 562 LINE",
"120 654 LINE"
);
}
);
width = 222;
}
);
unicode = 00B9;
},
{
glyphname = ordmasculine;
layers = (
{
layerId = "DE113C6F-85E3-4DBE-A925-75822E2A0D50";
paths = (
{
nodes = (
"199 655 OFFCURVE",
"255 626 OFFCURVE",
"295 580 OFFCURVE",
"318 522 OFFCURVE",
"318 493 QCURVE SMOOTH",
"318 457 OFFCURVE",
"296 397 OFFCURVE",
"255 353 OFFCURVE",
"199 327 OFFCURVE",
"166 326 QCURVE",
"131 327 OFFCURVE",
"75 353 OFFCURVE",
"35 398 OFFCURVE",
"13 460 OFFCURVE",
"13 497 QCURVE SMOOTH",
"13 525 OFFCURVE",
"37 582 OFFCURVE",
"78 627 OFFCURVE",
"134 655 OFFCURVE",
"166 655 QCURVE SMOOTH"
);
},
{
nodes = (
"140 639 OFFCURVE",
"109 608 OFFCURVE",
"92 563 OFFCURVE",
"87 513 OFFCURVE",
"87 495 QCURVE SMOOTH",
"87 472 OFFCURVE",
"91 418 OFFCURVE",
"106 372 OFFCURVE",
"138 341 OFFCURVE",
"165 341 QCURVE SMOOTH",
"192 341 OFFCURVE",
"223 372 OFFCURVE",
"237 419 OFFCURVE",
"240 472 OFFCURVE",
"240 495 QCURVE SMOOTH",
"240 511 OFFCURVE",
"235 561 OFFCURVE",
"220 606 OFFCURVE",
"191 639 OFFCURVE",
"167 639 QCURVE SMOOTH"
);
}
);
width = 343;
}
);
unicode = 00BA;
},
{
glyphname = guillemotright;
layers = (
{
layerId = "DE113C6F-85E3-4DBE-A925-75822E2A0D50";
paths = (
{
nodes = (
"170 142 LINE",
"161 148 LINE",
"182 185 OFFCURVE",
"200 218 QCURVE SMOOTH",
"216 246 OFFCURVE",
"248 302 OFFCURVE",
"256 318 QCURVE",
"248 333 OFFCURVE",
"216 390 OFFCURVE",
"200 418 QCURVE SMOOTH",
"182 451 OFFCURVE",
"161 488 QCURVE",
"170 494 LINE",
"332 362 LINE",
"343 340 OFFCURVE",
"343 294 OFFCURVE",
"332 274 QCURVE"
);
},
{
nodes = (
"25 142 LINE",
"16 148 LINE",
"37 185 OFFCURVE",
"55 218 QCURVE SMOOTH",
"71 246 OFFCURVE",
"103 302 OFFCURVE",
"111 318 QCURVE",
"103 333 OFFCURVE",
"71 390 OFFCURVE",
"55 418 QCURVE SMOOTH",
"37 451 OFFCURVE",
"16 488 QCURVE",
"25 494 LINE",
"187 362 LINE",
"198 340 OFFCURVE",
"198 294 OFFCURVE",
"187 274 QCURVE"
);
}
);
width = 365;
}
);
unicode = 00BB;
},
{
glyphname = questiondown;
layers = (
{
layerId = "DE113C6F-85E3-4DBE-A925-75822E2A0D50";
paths = (
{
nodes = (
"209 581 OFFCURVE",
"184 611 OFFCURVE",
"184 632 QCURVE SMOOTH",
"184 655 OFFCURVE",
"210 684 OFFCURVE",
"227 684 QCURVE SMOOTH",
"245 684 OFFCURVE",
"269 654 OFFCURVE",
"269 632 QCURVE SMOOTH",
"269 611 OFFCURVE",
"244 581 OFFCURVE",
"226 581 QCURVE SMOOTH"
);
},
{
nodes = (
"216 514 LINE",
"224 524 LINE",
"227 517 LINE"
);
},
{
nodes = (
"231 489 OFFCURVE",
"229 507 OFFCURVE",
"227 517 QCURVE",
"242 520 LINE",
"254 489 OFFCURVE",
"268 428 OFFCURVE",
"268 405 QCURVE SMOOTH",
"268 373 OFFCURVE",
"247 320 OFFCURVE",
"215 276 OFFCURVE",
"175 240 OFFCURVE",
"155 223 QCURVE SMOOTH",
"139 210 OFFCURVE",
"110 184 OFFCURVE",
"87 156 OFFCURVE",
"73 126 OFFCURVE",
"73 109 QCURVE SMOOTH",
"73 83 OFFCURVE",
"93 44 OFFCURVE",
"125 19 OFFCURVE",
"164 6 OFFCURVE",
"182 6 QCURVE SMOOTH",
"191 6 OFFCURVE",
"219 13 OFFCURVE",
"247 26 OFFCURVE",
"267 48 OFFCURVE",
"267 63 QCURVE SMOOTH",
"267 70 OFFCURVE",
"253 76 OFFCURVE",
"249 76 QCURVE",
"214 83 OFFCURVE",
"214 123 QCURVE SMOOTH",
"214 143 OFFCURVE",
"236 168 OFFCURVE",
"253 168 QCURVE SMOOTH",
"264 168 OFFCURVE",
"280 156 OFFCURVE",
"291 136 OFFCURVE",
"297 113 OFFCURVE",
"297 101 QCURVE SMOOTH",
"297 75 OFFCURVE",
"276 33 OFFCURVE",
"243 4 OFFCURVE",
"202 -11 OFFCURVE",
"182 -11 QCURVE SMOOTH",
"121 -11 OFFCURVE",
"46 79 OFFCURVE",
"46 153 QCURVE SMOOTH",
"46 171 OFFCURVE",
"49 209 OFFCURVE",
"55 227 QCURVE SMOOTH",
"70 273 OFFCURVE",
"130 337 OFFCURVE",
"157 360 QCURVE SMOOTH",
"172 372 OFFCURVE",
"198 397 OFFCURVE",
"219 425 OFFCURVE",
"231 458 OFFCURVE",
"231 479 QCURVE SMOOTH"
);
}
);
width = 330;
}
);
unicode = 00BF;
},
{
glyphname = Agrave;
layers = (
{
layerId = "DE113C6F-85E3-4DBE-A925-75822E2A0D50";
paths = (
{
nodes = (
"386 709 LINE",
"380 700 LINE",
"351 713 OFFCURVE",
"325 724 QCURVE SMOOTH",
"302 734 OFFCURVE",
"257 755 OFFCURVE",
"244 763 QCURVE SMOOTH",
"233 769 OFFCURVE",
"218 779 OFFCURVE",
"210 793 OFFCURVE",
"210 812 OFFCURVE",
"215 827 QCURVE",
"220 838 OFFCURVE",
"240 844 OFFCURVE",
"249 844 QCURVE",
"251 844 OFFCURVE",
"266 843 OFFCURVE",
"291 836 OFFCURVE",
"299 833 QCURVE"
);
},
{
nodes = (
"-5 17 LINE",
"17 17 OFFCURVE",
"45 23 OFFCURVE",
"63 39 OFFCURVE",
"75 70 OFFCURVE",
"83 94 QCURVE",
"126 240 OFFCURVE",
"214 531 OFFCURVE",
"258 677 QCURVE",
"292 677 LINE",
"505 17 LINE",
"549 17 LINE",
"549 0 LINE",
"310 0 LINE",
"310 17 LINE",
"377 17 LINE",
"313 218 LINE",
"139 218 LINE",
"132 198 LINE SMOOTH",
"127 183 OFFCURVE",
"113 137 OFFCURVE",
"100 91 OFFCURVE",
"90 53 OFFCURVE",
"90 46 QCURVE SMOOTH",
"90 34 OFFCURVE",
"109 22 OFFCURVE",
"135 17 OFFCURVE",
"149 17 QCURVE SMOOTH",
"154 17 LINE",
"155 17 OFFCURVE",
"156 17 QCURVE",
"157 17 LINE",
"157 17 OFFCURVE",
"158 17 QCURVE",
"159 17 OFFCURVE",
"159 17 QCURVE",
"160 17 LINE",
"160 17 OFFCURVE",
"160 17 QCURVE",
"172 17 LINE",
"172 0 LINE",
"-5 0 LINE"
);
},
{
nodes = (
"144 235 LINE",
"308 235 LINE",
"224 497 LINE"
);
}
);
width = 536;
}
);
unicode = 00C0;
},
{
glyphname = Aacute;
layers = (
{
layerId = "DE113C6F-85E3-4DBE-A925-75822E2A0D50";
paths = (
{
nodes = (
"289 833 LINE",
"297 836 OFFCURVE",
"322 843 OFFCURVE",
"337 844 OFFCURVE",
"339 844 QCURVE",
"348 844 OFFCURVE",
"368 838 OFFCURVE",
"373 827 QCURVE",
"378 812 OFFCURVE",
"378 793 OFFCURVE",
"370 779 OFFCURVE",
"354 769 OFFCURVE",
"344 763 QCURVE SMOOTH",
"330 755 OFFCURVE",
"286 734 OFFCURVE",
"263 724 QCURVE SMOOTH",
"237 713 OFFCURVE",
"208 700 QCURVE",
"202 709 LINE"
);
},
{
nodes = (
"-5 17 LINE",
"17 17 OFFCURVE",
"45 23 OFFCURVE",
"63 39 OFFCURVE",
"75 70 OFFCURVE",
"83 94 QCURVE",
"126 240 OFFCURVE",
"214 531 OFFCURVE",
"258 677 QCURVE",
"292 677 LINE",
"505 17 LINE",
"549 17 LINE",
"549 0 LINE",
"310 0 LINE",
"310 17 LINE",
"377 17 LINE",
"313 218 LINE",
"139 218 LINE",
"132 198 LINE SMOOTH",
"127 183 OFFCURVE",
"113 137 OFFCURVE",
"100 91 OFFCURVE",
"90 53 OFFCURVE",
"90 46 QCURVE SMOOTH",
"90 34 OFFCURVE",
"109 22 OFFCURVE",
"135 17 OFFCURVE",
"149 17 QCURVE SMOOTH",
"154 17 LINE",
"155 17 OFFCURVE",
"156 17 QCURVE",
"157 17 LINE",
"157 17 OFFCURVE",
"158 17 QCURVE",
"159 17 OFFCURVE",
"159 17 QCURVE",
"160 17 LINE",
"160 17 OFFCURVE",
"160 17 QCURVE",
"172 17 LINE",
"172 0 LINE",
"-5 0 LINE"
);
},
{
nodes = (
"144 235 LINE",
"308 235 LINE",
"224 497 LINE"
);
}
);
width = 536;
}
);
unicode = 00C1;
},
{
glyphname = Acircumflex;
layers = (
{
layerId = "DE113C6F-85E3-4DBE-A925-75822E2A0D50";
paths = (
{
nodes = (
"412 717 LINE",
"406 708 LINE",
"382 717 OFFCURVE",
"359 728 QCURVE",
"339 736 OFFCURVE",
"296 757 OFFCURVE",
"281 765 QCURVE",
"279 764 LINE SMOOTH",
"271 760 OFFCURVE",
"262 755 QCURVE",
"261 755 LINE",
"256 753 OFFCURVE",
"252 750 QCURVE",
"250 750 LINE",
"247 748 OFFCURVE",
"244 747 QCURVE SMOOTH",
"223 736 OFFCURVE",
"203 728 QCURVE",
"180 717 OFFCURVE",
"156 708 QCURVE",
"150 717 LINE",
"237 841 LINE",
"250 848 OFFCURVE",
"266 852 OFFCURVE",
"274 852 QCURVE SMOOTH",
"291 852 OFFCURVE",
"314 844 OFFCURVE",
"325 841 QCURVE"
);
},
{
nodes = (
"-5 17 LINE",
"17 17 OFFCURVE",
"45 23 OFFCURVE",
"63 39 OFFCURVE",
"75 70 OFFCURVE",
"83 94 QCURVE",
"126 240 OFFCURVE",
"214 531 OFFCURVE",
"258 677 QCURVE",
"292 677 LINE",
"505 17 LINE",
"549 17 LINE",
"549 0 LINE",
"310 0 LINE",
"310 17 LINE",
"377 17 LINE",
"313 218 LINE",
"139 218 LINE",
"132 198 LINE SMOOTH",
"127 183 OFFCURVE",
"113 137 OFFCURVE",
"100 91 OFFCURVE",
"90 53 OFFCURVE",
"90 46 QCURVE SMOOTH",
"90 34 OFFCURVE",
"109 22 OFFCURVE",
"135 17 OFFCURVE",
"149 17 QCURVE SMOOTH",
"154 17 LINE",
"155 17 OFFCURVE",
"156 17 QCURVE",
"157 17 LINE",
"157 17 OFFCURVE",
"158 17 QCURVE",
"159 17 OFFCURVE",
"159 17 QCURVE",
"160 17 LINE",
"160 17 OFFCURVE",
"160 17 QCURVE",
"172 17 LINE",
"172 0 LINE",
"-5 0 LINE"
);
},
{
nodes = (
"144 235 LINE",
"308 235 LINE",
"224 497 LINE"
);
}
);
width = 536;
}
);
unicode = 00C2;
},
{
glyphname = Atilde;
layers = (
{
layerId = "DE113C6F-85E3-4DBE-A925-75822E2A0D50";
paths = (
{
nodes = (
"384 773 OFFCURVE",
"403 796 OFFCURVE",
"408 808 QCURVE",
"408 805 LINE",
"419 804 LINE",
"416 790 OFFCURVE",
"404 757 OFFCURVE",
"386 726 OFFCURVE",
"359 703 OFFCURVE",
"341 701 QCURVE",
"339 701 OFFCURVE",
"336 701 QCURVE SMOOTH",
"326 701 OFFCURVE",
"282 714 OFFCURVE",
"253 722 QCURVE SMOOTH",
"244 724 OFFCURVE",
"212 732 OFFCURVE",
"205 732 QCURVE",
"203 732 OFFCURVE",
"202 732 QCURVE",
"190 730 OFFCURVE",
"172 708 OFFCURVE",
"167 697 QCURVE",
"155 699 LINE",
"158 712 OFFCURVE",
"170 745 OFFCURVE",
"189 776 OFFCURVE",
"216 798 OFFCURVE",
"234 801 QCURVE SMOOTH",
"237 802 OFFCURVE",
"241 802 QCURVE SMOOTH",
"251 802 OFFCURVE",
"284 792 OFFCURVE",
"304 786 QCURVE SMOOTH",
"324 780 OFFCURVE",
"358 770 OFFCURVE",
"366 770 QCURVE SMOOTH",
"369 770 OFFCURVE",
"371 771 QCURVE"
);
},
{
nodes = (
"-5 17 LINE",
"17 17 OFFCURVE",
"45 23 OFFCURVE",
"63 39 OFFCURVE",
"75 70 OFFCURVE",
"83 94 QCURVE",
"126 240 OFFCURVE",
"214 531 OFFCURVE",
"258 677 QCURVE",
"292 677 LINE",
"505 17 LINE",
"549 17 LINE",
"549 0 LINE",
"310 0 LINE",
"310 17 LINE",
"377 17 LINE",
"313 218 LINE",
"139 218 LINE",
"132 198 LINE SMOOTH",
"127 183 OFFCURVE",
"113 137 OFFCURVE",
"100 91 OFFCURVE",
"90 53 OFFCURVE",
"90 46 QCURVE SMOOTH",
"90 34 OFFCURVE",
"109 22 OFFCURVE",
"135 17 OFFCURVE",
"149 17 QCURVE SMOOTH",
"154 17 LINE",
"155 17 OFFCURVE",
"156 17 QCURVE",
"157 17 LINE",
"157 17 OFFCURVE",
"158 17 QCURVE",
"159 17 OFFCURVE",
"159 17 QCURVE",
"160 17 LINE",
"160 17 OFFCURVE",
"160 17 QCURVE",
"172 17 LINE",
"172 0 LINE",
"-5 0 LINE"
);
},
{
nodes = (
"144 235 LINE",
"308 235 LINE",
"224 497 LINE"
);
}
);
width = 536;
}
);
unicode = 00C3;
},
{
glyphname = Adieresis;
layers = (
{
layerId = "DE113C6F-85E3-4DBE-A925-75822E2A0D50";
paths = (
{
nodes = (
"147 790 OFFCURVE",
"181 824 OFFCURVE",
"205 824 QCURVE SMOOTH",
"229 824 OFFCURVE",
"263 790 OFFCURVE",
"263 766 QCURVE SMOOTH",
"263 742 OFFCURVE",
"229 708 OFFCURVE",
"205 708 QCURVE SMOOTH",
"181 708 OFFCURVE",
"147 742 OFFCURVE",
"147 766 QCURVE SMOOTH"
);
},
{
nodes = (
"302 790 OFFCURVE",
"336 824 OFFCURVE",
"360 824 QCURVE SMOOTH",
"384 824 OFFCURVE",
"418 790 OFFCURVE",
"418 766 QCURVE SMOOTH",
"418 742 OFFCURVE",
"384 708 OFFCURVE",
"360 708 QCURVE SMOOTH",
"336 708 OFFCURVE",
"302 742 OFFCURVE",
"302 766 QCURVE SMOOTH"
);
},
{
nodes = (
"-5 17 LINE",
"17 17 OFFCURVE",
"45 23 OFFCURVE",
"63 39 OFFCURVE",
"75 70 OFFCURVE",
"83 94 QCURVE",
"126 240 OFFCURVE",
"214 531 OFFCURVE",
"258 677 QCURVE",
"292 677 LINE",
"505 17 LINE",
"549 17 LINE",
"549 0 LINE",
"310 0 LINE",
"310 17 LINE",
"377 17 LINE",
"313 218 LINE",
"139 218 LINE",
"132 198 LINE SMOOTH",
"127 183 OFFCURVE",
"113 137 OFFCURVE",
"100 91 OFFCURVE",
"90 53 OFFCURVE",
"90 46 QCURVE SMOOTH",
"90 34 OFFCURVE",
"109 22 OFFCURVE",
"135 17 OFFCURVE",
"149 17 QCURVE SMOOTH",
"154 17 LINE",
"155 17 OFFCURVE",
"156 17 QCURVE",
"157 17 LINE",
"157 17 OFFCURVE",
"158 17 QCURVE",
"159 17 OFFCURVE",
"159 17 QCURVE",
"160 17 LINE",
"160 17 OFFCURVE",
"160 17 QCURVE",
"172 17 LINE",
"172 0 LINE",
"-5 0 LINE"
);
},
{
nodes = (
"144 235 LINE",
"308 235 LINE",
"224 497 LINE"
);
}
);
width = 536;
}
);
unicode = 00C4;
},
{
glyphname = Aring;
layers = (
{
layerId = "DE113C6F-85E3-4DBE-A925-75822E2A0D50";
paths = (
{
nodes = (
"242 701 OFFCURVE",
"204 740 OFFCURVE",
"204 769 QCURVE SMOOTH",
"204 797 OFFCURVE",
"242 835 OFFCURVE",
"271 835 QCURVE SMOOTH",
"300 835 OFFCURVE",
"338 798 OFFCURVE",
"338 769 QCURVE SMOOTH",
"338 741 OFFCURVE",
"299 701 OFFCURVE",
"271 701 QCURVE SMOOTH"
);
},
{
nodes = (
"254 805 OFFCURVE",
"232 784 OFFCURVE",
"232 769 QCURVE SMOOTH",
"232 754 OFFCURVE",
"254 732 OFFCURVE",
"270 732 QCURVE SMOOTH",
"286 732 OFFCURVE",
"308 753 OFFCURVE",
"308 769 QCURVE SMOOTH",
"308 784 OFFCURVE",
"286 805 OFFCURVE",
"270 805 QCURVE SMOOTH"
);
},
{
nodes = (
"-5 17 LINE",
"17 17 OFFCURVE",
"45 23 OFFCURVE",
"63 39 OFFCURVE",
"75 70 OFFCURVE",
"83 94 QCURVE",
"126 240 OFFCURVE",
"214 531 OFFCURVE",
"258 677 QCURVE",
"292 677 LINE",
"505 17 LINE",
"549 17 LINE",
"549 0 LINE",
"310 0 LINE",
"310 17 LINE",
"377 17 LINE",
"313 218 LINE",
"139 218 LINE",
"132 198 LINE SMOOTH",
"127 183 OFFCURVE",
"113 137 OFFCURVE",
"100 91 OFFCURVE",
"90 53 OFFCURVE",
"90 46 QCURVE SMOOTH",
"90 34 OFFCURVE",
"109 22 OFFCURVE",
"135 17 OFFCURVE",
"149 17 QCURVE SMOOTH",
"154 17 LINE",
"155 17 OFFCURVE",
"156 17 QCURVE",
"157 17 LINE",
"157 17 OFFCURVE",
"158 17 QCURVE",
"159 17 OFFCURVE",
"159 17 QCURVE",
"160 17 LINE",
"160 17 OFFCURVE",
"160 17 QCURVE",
"172 17 LINE",
"172 0 LINE",
"-5 0 LINE"
);
},
{
nodes = (
"144 235 LINE",
"308 235 LINE",
"224 497 LINE"
);
}
);
width = 536;
}
);
unicode = 00C5;
},
{
glyphname = AE;
layers = (
{
layerId = "DE113C6F-85E3-4DBE-A925-75822E2A0D50";
paths = (
{
nodes = (
"568 20 LINE",
"665 20 LINE SMOOTH",
"711 20 OFFCURVE",
"790 25 OFFCURVE",
"848 58 OFFCURVE",
"882 130 OFFCURVE",
"882 197 QCURVE",
"899 197 LINE",
"899 0 LINE",
"397 0 LINE",
"397 17 LINE",
"447 17 LINE",
"447 218 LINE",
"216 218 LINE",
"144 91 OFFCURVE",
"123 53 OFFCURVE",
"123 46 QCURVE SMOOTH",
"123 34 OFFCURVE",
"142 22 OFFCURVE",
"168 17 OFFCURVE",
"181 17 QCURVE SMOOTH",
"205 17 LINE",
"205 0 LINE",
"28 0 LINE",
"28 17 LINE",
"50 17 OFFCURVE",
"78 23 OFFCURVE",
"96 39 OFFCURVE",
"114 70 OFFCURVE",
"438 650 QCURVE",
"396 650 LINE",
"396 667 LINE",
"898 667 LINE",
"899 503 LINE",
"882 503 LINE",
"874 558 OFFCURVE",
"833 617 OFFCURVE",
"774 644 OFFCURVE",
"699 647 OFFCURVE",
"656 647 QCURVE SMOOTH",
"568 647 LINE",
"568 352 LINE",
"594 352 LINE SMOOTH",
"625 352 OFFCURVE",
"672 356 OFFCURVE",
"704 378 OFFCURVE",
"720 425 OFFCURVE",
"721 467 QCURVE",
"737 467 LINE",
"737 215 LINE",
"721 215 LINE",
"720 253 OFFCURVE",
"707 298 OFFCURVE",
"683 321 OFFCURVE",
"649 328 OFFCURVE",
"627 328 QCURVE SMOOTH",
"568 328 LINE"
);
},
{
nodes = (
"228 235 LINE",
"447 235 LINE",
"447 628 LINE"
);
}
);
width = 930;
}
);
unicode = 00C6;
},
{
glyphname = Ccedilla;
layers = (
{
layerId = "DE113C6F-85E3-4DBE-A925-75822E2A0D50";
paths = (
{
nodes = (
"484 0 LINE",
"484 9 OFFCURVE",
"482 29 OFFCURVE",
"476 46 OFFCURVE",
"465 58 OFFCURVE",
"456 58 QCURVE SMOOTH",
"451 58 OFFCURVE",
"434 48 OFFCURVE",
"423 40 QCURVE SMOOTH",
"403 24 OFFCURVE",
"340 -11 OFFCURVE",
"297 -11 QCURVE SMOOTH",
"289 -11 OFFCURVE",
"281 -11 QCURVE",
"256 -38 LINE",
"278 -31 OFFCURVE",
"298 -31 QCURVE SMOOTH",
"319 -31 OFFCURVE",
"363 -43 OFFCURVE",
"399 -68 OFFCURVE",
"421 -106 OFFCURVE",
"421 -132 QCURVE SMOOTH",
"421 -161 OFFCURVE",
"398 -201 OFFCURVE",
"361 -225 OFFCURVE",
"314 -236 OFFCURVE",
"291 -236 QCURVE SMOOTH",
"276 -236 OFFCURVE",
"244 -229 OFFCURVE",
"218 -213 OFFCURVE",
"201 -188 OFFCURVE",
"201 -170 QCURVE SMOOTH",
"201 -156 OFFCURVE",
"221 -133 OFFCURVE",
"238 -133 QCURVE SMOOTH",
"252 -133 OFFCURVE",
"271 -148 OFFCURVE",
"271 -161 QCURVE SMOOTH",
"271 -175 OFFCURVE",
"253 -184 OFFCURVE",
"239 -186 QCURVE",
"240 -195 OFFCURVE",
"252 -206 OFFCURVE",
"268 -214 OFFCURVE",
"283 -217 OFFCURVE",
"288 -217 QCURVE SMOOTH",
"315 -217 OFFCURVE",
"342 -168 OFFCURVE",
"342 -136 QCURVE SMOOTH",
"342 -120 OFFCURVE",
"337 -90 OFFCURVE",
"325 -66 OFFCURVE",
"305 -52 OFFCURVE",
"290 -52 QCURVE SMOOTH",
"279 -52 OFFCURVE",
"254 -62 OFFCURVE",
"238 -76 QCURVE",
"212 -65 LINE",
"261 -8 LINE",
"223 -3 OFFCURVE",
"191 16 QCURVE",
"143 42 OFFCURVE",
"77 132 OFFCURVE",
"41 253 OFFCURVE",
"41 321 QCURVE SMOOTH",
"41 389 OFFCURVE",
"76 518 OFFCURVE",
"142 617 OFFCURVE",
"238 677 OFFCURVE",
"300 677 QCURVE SMOOTH",
"327 677 OFFCURVE",
"369 660 OFFCURVE",
"405 640 OFFCURVE",
"437 623 OFFCURVE",
"455 623 QCURVE SMOOTH",
"467 623 OFFCURVE",
"479 636 OFFCURVE",
"481 650 QCURVE",
"499 650 LINE",
"499 448 LINE",
"479 448 LINE",
"477 484 OFFCURVE",
"450 557 OFFCURVE",
"408 616 OFFCURVE",
"351 653 OFFCURVE",
"319 653 QCURVE SMOOTH",
"287 653 OFFCURVE",
"241 619 OFFCURVE",
"209 563 OFFCURVE",
"190 492 OFFCURVE",
"179 419 OFFCURVE",
"176 348 OFFCURVE",
"176 321 QCURVE SMOOTH",
"176 270 OFFCURVE",
"188 165 OFFCURVE",
"224 78 OFFCURVE",
"290 23 OFFCURVE",
"344 23 QCURVE SMOOTH",
"373 23 OFFCURVE",
"421 66 OFFCURVE",
"457 131 OFFCURVE",
"480 206 OFFCURVE",
"484 238 QCURVE",
"499 238 LINE",
"499 0 LINE"
);
}
);
width = 551;
}
);
unicode = 00C7;
},
{
glyphname = Egrave;
layers = (
{
layerId = "DE113C6F-85E3-4DBE-A925-75822E2A0D50";
paths = (
{
nodes = (
"386 709 LINE",
"380 700 LINE",
"351 713 OFFCURVE",
"325 724 QCURVE SMOOTH",
"302 734 OFFCURVE",
"257 755 OFFCURVE",
"244 763 QCURVE SMOOTH",
"233 769 OFFCURVE",
"218 779 OFFCURVE",
"210 793 OFFCURVE",
"210 812 OFFCURVE",
"215 827 QCURVE",
"220 838 OFFCURVE",
"240 844 OFFCURVE",
"249 844 QCURVE",
"251 844 OFFCURVE",
"266 843 OFFCURVE",
"291 836 OFFCURVE",
"299 833 QCURVE"
);
},
{
nodes = (
"198 20 LINE",
"295 20 LINE SMOOTH",
"341 20 OFFCURVE",
"420 25 OFFCURVE",
"478 58 OFFCURVE",
"512 130 OFFCURVE",
"512 197 QCURVE",
"529 197 LINE",
"529 0 LINE",
"27 0 LINE",
"27 17 LINE",
"77 17 LINE",
"77 650 LINE",
"27 650 LINE",
"27 667 LINE",
"528 667 LINE",
"529 503 LINE",
"512 503 LINE",
"504 558 OFFCURVE",
"463 617 OFFCURVE",
"404 644 OFFCURVE",
"329 647 OFFCURVE",
"286 647 QCURVE SMOOTH",
"198 647 LINE",
"198 352 LINE",
"224 352 LINE SMOOTH",
"255 352 OFFCURVE",
"302 356 OFFCURVE",
"334 378 OFFCURVE",
"350 425 OFFCURVE",
"351 467 QCURVE",
"367 467 LINE",
"367 215 LINE",
"351 215 LINE",
"350 253 OFFCURVE",
"337 298 OFFCURVE",
"313 321 OFFCURVE",
"279 328 OFFCURVE",
"257 328 QCURVE SMOOTH",
"198 328 LINE"
);
}
);
width = 558;
}
);
unicode = 00C8;
},
{
glyphname = Eacute;
layers = (
{
layerId = "DE113C6F-85E3-4DBE-A925-75822E2A0D50";
paths = (
{
nodes = (
"292 833 LINE",
"300 836 OFFCURVE",
"325 843 OFFCURVE",
"340 844 OFFCURVE",
"342 844 QCURVE",
"351 844 OFFCURVE",
"371 838 OFFCURVE",
"376 827 QCURVE",
"381 812 OFFCURVE",
"381 793 OFFCURVE",
"373 779 OFFCURVE",
"357 769 OFFCURVE",
"347 763 QCURVE SMOOTH",
"333 755 OFFCURVE",
"289 734 OFFCURVE",
"266 724 QCURVE SMOOTH",
"240 713 OFFCURVE",
"211 700 QCURVE",
"205 709 LINE"
);
},
{
nodes = (
"198 20 LINE",
"295 20 LINE SMOOTH",
"341 20 OFFCURVE",
"420 25 OFFCURVE",
"478 58 OFFCURVE",
"512 130 OFFCURVE",
"512 197 QCURVE",
"529 197 LINE",
"529 0 LINE",
"27 0 LINE",
"27 17 LINE",
"77 17 LINE",
"77 650 LINE",
"27 650 LINE",
"27 667 LINE",
"528 667 LINE",
"529 503 LINE",
"512 503 LINE",
"504 558 OFFCURVE",
"463 617 OFFCURVE",
"404 644 OFFCURVE",
"329 647 OFFCURVE",
"286 647 QCURVE SMOOTH",
"198 647 LINE",
"198 352 LINE",
"224 352 LINE SMOOTH",
"255 352 OFFCURVE",
"302 356 OFFCURVE",
"334 378 OFFCURVE",
"350 425 OFFCURVE",
"351 467 QCURVE",
"367 467 LINE",
"367 215 LINE",
"351 215 LINE",
"350 253 OFFCURVE",
"337 298 OFFCURVE",
"313 321 OFFCURVE",
"279 328 OFFCURVE",
"257 328 QCURVE SMOOTH",
"198 328 LINE"
);
}
);
width = 558;
}
);
unicode = 00C9;
},
{
glyphname = Ecircumflex;
layers = (
{
layerId = "DE113C6F-85E3-4DBE-A925-75822E2A0D50";
paths = (
{
nodes = (
"412 717 LINE",
"406 708 LINE",
"382 717 OFFCURVE",
"359 728 QCURVE",
"339 736 OFFCURVE",
"296 757 OFFCURVE",
"281 765 QCURVE",
"279 764 LINE SMOOTH",
"271 760 OFFCURVE",
"262 755 QCURVE",
"261 755 LINE",
"256 753 OFFCURVE",
"252 750 QCURVE",
"250 750 LINE",
"247 748 OFFCURVE",
"244 747 QCURVE SMOOTH",
"223 736 OFFCURVE",
"203 728 QCURVE",
"180 717 OFFCURVE",
"156 708 QCURVE",
"150 717 LINE",
"237 841 LINE",
"250 848 OFFCURVE",
"266 852 OFFCURVE",
"274 852 QCURVE SMOOTH",
"291 852 OFFCURVE",
"314 844 OFFCURVE",
"325 841 QCURVE"
);
},
{
nodes = (
"198 20 LINE",
"295 20 LINE SMOOTH",
"341 20 OFFCURVE",
"420 25 OFFCURVE",
"478 58 OFFCURVE",
"512 130 OFFCURVE",
"512 197 QCURVE",
"529 197 LINE",
"529 0 LINE",
"27 0 LINE",
"27 17 LINE",
"77 17 LINE",
"77 650 LINE",
"27 650 LINE",
"27 667 LINE",
"528 667 LINE",
"529 503 LINE",
"512 503 LINE",
"504 558 OFFCURVE",
"463 617 OFFCURVE",
"404 644 OFFCURVE",
"329 647 OFFCURVE",
"286 647 QCURVE SMOOTH",
"198 647 LINE",
"198 352 LINE",
"224 352 LINE SMOOTH",
"255 352 OFFCURVE",
"302 356 OFFCURVE",
"334 378 OFFCURVE",
"350 425 OFFCURVE",
"351 467 QCURVE",
"367 467 LINE",
"367 215 LINE",
"351 215 LINE",
"350 253 OFFCURVE",
"337 298 OFFCURVE",
"313 321 OFFCURVE",
"279 328 OFFCURVE",
"257 328 QCURVE SMOOTH",
"198 328 LINE"
);
}
);
width = 558;
}
);
unicode = 00CA;
},
{
glyphname = Edieresis;
layers = (
{
layerId = "DE113C6F-85E3-4DBE-A925-75822E2A0D50";
paths = (
{
nodes = (
"155 790 OFFCURVE",
"189 824 OFFCURVE",
"213 824 QCURVE SMOOTH",
"237 824 OFFCURVE",
"271 790 OFFCURVE",
"271 766 QCURVE SMOOTH",
"271 742 OFFCURVE",
"237 708 OFFCURVE",
"213 708 QCURVE SMOOTH",
"189 708 OFFCURVE",
"155 742 OFFCURVE",
"155 766 QCURVE SMOOTH"
);
},
{
nodes = (
"310 790 OFFCURVE",
"344 824 OFFCURVE",
"368 824 QCURVE SMOOTH",
"392 824 OFFCURVE",
"426 790 OFFCURVE",
"426 766 QCURVE SMOOTH",
"426 742 OFFCURVE",
"392 708 OFFCURVE",
"368 708 QCURVE SMOOTH",
"344 708 OFFCURVE",
"310 742 OFFCURVE",
"310 766 QCURVE SMOOTH"
);
},
{
nodes = (
"198 20 LINE",
"295 20 LINE SMOOTH",
"341 20 OFFCURVE",
"420 25 OFFCURVE",
"478 58 OFFCURVE",
"512 130 OFFCURVE",
"512 197 QCURVE",
"529 197 LINE",
"529 0 LINE",
"27 0 LINE",
"27 17 LINE",
"77 17 LINE",
"77 650 LINE",
"27 650 LINE",
"27 667 LINE",
"528 667 LINE",
"529 503 LINE",
"512 503 LINE",
"504 558 OFFCURVE",
"463 617 OFFCURVE",
"404 644 OFFCURVE",
"329 647 OFFCURVE",
"286 647 QCURVE SMOOTH",
"198 647 LINE",
"198 352 LINE",
"224 352 LINE SMOOTH",
"255 352 OFFCURVE",
"302 356 OFFCURVE",
"334 378 OFFCURVE",
"350 425 OFFCURVE",
"351 467 QCURVE",
"367 467 LINE",
"367 215 LINE",
"351 215 LINE",
"350 253 OFFCURVE",
"337 298 OFFCURVE",
"313 321 OFFCURVE",
"279 328 OFFCURVE",
"257 328 QCURVE SMOOTH",
"198 328 LINE"
);
}
);
width = 558;
}
);
unicode = 00CB;
},
{
glyphname = Igrave;
layers = (
{
layerId = "DE113C6F-85E3-4DBE-A925-75822E2A0D50";
paths = (
{
nodes = (
"218 709 LINE",
"212 700 LINE",
"183 713 OFFCURVE",
"157 724 QCURVE SMOOTH",
"134 734 OFFCURVE",
"89 755 OFFCURVE",
"76 763 QCURVE SMOOTH",
"65 769 OFFCURVE",
"50 779 OFFCURVE",
"42 793 OFFCURVE",
"42 812 OFFCURVE",
"47 827 QCURVE",
"52 838 OFFCURVE",
"72 844 OFFCURVE",
"81 844 QCURVE",
"83 844 OFFCURVE",
"98 843 OFFCURVE",
"123 836 OFFCURVE",
"131 833 QCURVE"
);
},
{
nodes = (
"31 667 LINE",
"280 667 LINE",
"280 650 LINE",
"208 650 LINE",
"208 17 LINE",
"280 17 LINE",
"280 0 LINE",
"31 0 LINE",
"31 17 LINE",
"94 17 LINE",
"94 650 LINE",
"31 650 LINE"
);
}
);
width = 308;
}
);
unicode = 00CC;
},
{
glyphname = Iacute;
layers = (
{
layerId = "DE113C6F-85E3-4DBE-A925-75822E2A0D50";
paths = (
{
nodes = (
"164 833 LINE",
"172 836 OFFCURVE",
"197 843 OFFCURVE",
"212 844 OFFCURVE",
"214 844 QCURVE",
"223 844 OFFCURVE",
"243 838 OFFCURVE",
"248 827 QCURVE",
"253 812 OFFCURVE",
"253 793 OFFCURVE",
"245 779 OFFCURVE",
"229 769 OFFCURVE",
"219 763 QCURVE SMOOTH",
"205 755 OFFCURVE",
"161 734 OFFCURVE",
"138 724 QCURVE SMOOTH",
"112 713 OFFCURVE",
"83 700 QCURVE",
"77 709 LINE"
);
},
{
nodes = (
"31 667 LINE",
"280 667 LINE",
"280 650 LINE",
"208 650 LINE",
"208 17 LINE",
"280 17 LINE",
"280 0 LINE",
"31 0 LINE",
"31 17 LINE",
"94 17 LINE",
"94 650 LINE",
"31 650 LINE"
);
}
);
width = 308;
}
);
unicode = 00CD;
},
{
glyphname = Icircumflex;
layers = (
{
layerId = "DE113C6F-85E3-4DBE-A925-75822E2A0D50";
paths = (
{
nodes = (
"202 719 LINE",
"191 716 OFFCURVE",
"168 708 OFFCURVE",
"151 708 QCURVE SMOOTH",
"143 708 OFFCURVE",
"127 712 OFFCURVE",
"114 719 QCURVE",
"27 843 LINE",
"33 852 LINE",
"57 842 OFFCURVE",
"80 832 QCURVE SMOOTH",
"100 823 OFFCURVE",
"142 803 OFFCURVE",
"158 795 QCURVE",
"173 803 OFFCURVE",
"216 823 OFFCURVE",
"236 832 QCURVE SMOOTH",
"259 842 OFFCURVE",
"283 852 QCURVE",
"289 843 LINE"
);
},
{
nodes = (
"31 667 LINE",
"280 667 LINE",
"280 650 LINE",
"208 650 LINE",
"208 17 LINE",
"280 17 LINE",
"280 0 LINE",
"31 0 LINE",
"31 17 LINE",
"94 17 LINE",
"94 650 LINE",
"31 650 LINE"
);
}
);
width = 308;
}
);
unicode = 00CE;
},
{
glyphname = Idieresis;
layers = (
{
layerId = "DE113C6F-85E3-4DBE-A925-75822E2A0D50";
paths = (
{
nodes = (
"18 790 OFFCURVE",
"52 824 OFFCURVE",
"76 824 QCURVE SMOOTH",
"100 824 OFFCURVE",
"134 790 OFFCURVE",
"134 766 QCURVE SMOOTH",
"134 742 OFFCURVE",
"100 708 OFFCURVE",
"76 708 QCURVE SMOOTH",
"52 708 OFFCURVE",
"18 742 OFFCURVE",
"18 766 QCURVE SMOOTH"
);
},
{
nodes = (
"173 790 OFFCURVE",
"207 824 OFFCURVE",
"231 824 QCURVE SMOOTH",
"255 824 OFFCURVE",
"289 790 OFFCURVE",
"289 766 QCURVE SMOOTH",
"289 742 OFFCURVE",
"255 708 OFFCURVE",
"231 708 QCURVE SMOOTH",
"207 708 OFFCURVE",
"173 742 OFFCURVE",
"173 766 QCURVE SMOOTH"
);
},
{
nodes = (
"31 667 LINE",
"280 667 LINE",
"280 650 LINE",
"208 650 LINE",
"208 17 LINE",
"280 17 LINE",
"280 0 LINE",
"31 0 LINE",
"31 17 LINE",
"94 17 LINE",
"94 650 LINE",
"31 650 LINE"
);
}
);
width = 308;
}
);
unicode = 00CF;
},
{
glyphname = Eth;
layers = (
{
layerId = "DE113C6F-85E3-4DBE-A925-75822E2A0D50";
paths = (
{
nodes = (
"27 667 LINE",
"234 667 LINE SMOOTH",
"304 667 OFFCURVE",
"430 635 OFFCURVE",
"525 558 OFFCURVE",
"581 428 OFFCURVE",
"581 331 QCURVE SMOOTH",
"581 236 OFFCURVE",
"528 109 OFFCURVE",
"437 33 OFFCURVE",
"316 0 OFFCURVE",
"247 0 QCURVE SMOOTH",
"27 0 LINE",
"27 17 LINE",
"84 17 LINE",
"84 317 LINE",
"14 317 LINE",
"14 359 LINE",
"84 359 LINE",
"84 649 LINE",
"27 649 LINE"
);
},
{
nodes = (
"202 649 LINE",
"202 359 LINE",
"317 359 LINE",
"317 317 LINE",
"202 317 LINE",
"202 17 LINE",
"274 17 OFFCURVE",
"372 56 OFFCURVE",
"432 136 OFFCURVE",
"458 257 OFFCURVE",
"458 339 QCURVE SMOOTH",
"458 406 OFFCURVE",
"430 520 OFFCURVE",
"373 603 OFFCURVE",
"286 650 OFFCURVE",
"227 650 QCURVE"
);
}
);
width = 616;
}
);
unicode = 00D0;
},
{
glyphname = Ntilde;
layers = (
{
layerId = "DE113C6F-85E3-4DBE-A925-75822E2A0D50";
paths = (
{
nodes = (
"412 773 OFFCURVE",
"431 796 OFFCURVE",
"436 808 QCURVE",
"436 805 LINE",
"447 804 LINE",
"444 790 OFFCURVE",
"432 757 OFFCURVE",
"414 726 OFFCURVE",
"387 703 OFFCURVE",
"369 701 QCURVE",
"367 701 OFFCURVE",
"364 701 QCURVE SMOOTH",
"354 701 OFFCURVE",
"310 714 OFFCURVE",
"281 722 QCURVE SMOOTH",
"272 724 OFFCURVE",
"240 732 OFFCURVE",
"233 732 QCURVE",
"231 732 OFFCURVE",
"230 732 QCURVE",
"218 730 OFFCURVE",
"200 708 OFFCURVE",
"195 697 QCURVE",
"183 699 LINE",
"186 712 OFFCURVE",
"198 745 OFFCURVE",
"217 776 OFFCURVE",
"244 798 OFFCURVE",
"262 801 QCURVE SMOOTH",
"265 802 OFFCURVE",
"269 802 QCURVE SMOOTH",
"279 802 OFFCURVE",
"312 792 OFFCURVE",
"332 786 QCURVE SMOOTH",
"352 780 OFFCURVE",
"386 770 OFFCURVE",
"394 770 QCURVE SMOOTH",
"397 770 OFFCURVE",
"399 771 QCURVE"
);
},
{
nodes = (
"21 17 LINE",
"51 17 OFFCURVE",
"85 20 OFFCURVE",
"100 37 OFFCURVE",
"103 72 OFFCURVE",
"103 105 QCURVE SMOOTH",
"103 637 LINE",
"90 650 LINE",
"21 650 LINE",
"21 667 LINE",
"222 667 LINE",
"512 191 LINE",
"512 567 LINE SMOOTH",
"512 599 OFFCURVE",
"509 633 OFFCURVE",
"497 648 OFFCURVE",
"474 650 OFFCURVE",
"454 650 QCURVE SMOOTH",
"432 650 LINE",
"432 667 LINE",
"613 667 LINE",
"613 650 LINE",
"590 650 LINE SMOOTH",
"570 650 OFFCURVE",
"546 648 OFFCURVE",
"534 633 OFFCURVE",
"531 599 OFFCURVE",
"531 567 QCURVE SMOOTH",
"531 -5 LINE",
"481 -5 LINE",
"122 589 LINE",
"122 122 LINE SMOOTH",
"122 82 OFFCURVE",
"124 39 OFFCURVE",
"139 20 OFFCURVE",
"173 17 OFFCURVE",
"205 17 QCURVE",
"205 0 LINE",
"21 0 LINE"
);
}
);
width = 626;
}
);
unicode = 00D1;
},
{
glyphname = Ograve;
layers = (
{
layerId = "DE113C6F-85E3-4DBE-A925-75822E2A0D50";
paths = (
{
nodes = (
"386 709 LINE",
"380 700 LINE",
"351 713 OFFCURVE",
"325 724 QCURVE SMOOTH",
"302 734 OFFCURVE",
"257 755 OFFCURVE",
"244 763 QCURVE SMOOTH",
"233 769 OFFCURVE",
"218 779 OFFCURVE",
"210 793 OFFCURVE",
"210 812 OFFCURVE",
"215 827 QCURVE",
"220 838 OFFCURVE",
"240 844 OFFCURVE",
"249 844 QCURVE",
"251 844 OFFCURVE",
"266 843 OFFCURVE",
"291 836 OFFCURVE",
"299 833 QCURVE"
);
},
{
nodes = (
"358 680 OFFCURVE",
"453 619 OFFCURVE",
"522 520 OFFCURVE",
"560 395 OFFCURVE",
"560 332 QCURVE SMOOTH",
"560 268 OFFCURVE",
"522 145 OFFCURVE",
"453 48 OFFCURVE",
"358 -12 OFFCURVE",
"301 -12 QCURVE SMOOTH",
"243 -12 OFFCURVE",
"147 49 OFFCURVE",
"79 149 OFFCURVE",
"41 275 OFFCURVE",
"41 340 QCURVE SMOOTH",
"41 402 OFFCURVE",
"82 524 OFFCURVE",
"153 620 OFFCURVE",
"247 680 OFFCURVE",
"301 680 QCURVE SMOOTH"
);
},
{
nodes = (
"271 664 OFFCURVE",
"225 631 OFFCURVE",
"193 576 OFFCURVE",
"174 507 OFFCURVE",
"163 434 OFFCURVE",
"159 363 OFFCURVE",
"159 335 QCURVE SMOOTH",
"159 306 OFFCURVE",
"162 235 OFFCURVE",
"172 162 OFFCURVE",
"190 92 OFFCURVE",
"221 37 OFFCURVE",
"267 4 OFFCURVE",
"300 4 QCURVE SMOOTH",
"333 4 OFFCURVE",
"379 38 OFFCURVE",
"409 93 OFFCURVE",
"425 164 OFFCURVE",
"433 237 OFFCURVE",
"435 308 OFFCURVE",
"435 336 QCURVE SMOOTH",
"435 361 OFFCURVE",
"432 429 OFFCURVE",
"422 501 OFFCURVE",
"405 573 OFFCURVE",
"375 629 OFFCURVE",
"333 664 OFFCURVE",
"303 664 QCURVE SMOOTH"
);
}
);
width = 595;
}
);
unicode = 00D2;
},
{
glyphname = Oacute;
layers = (
{
layerId = "DE113C6F-85E3-4DBE-A925-75822E2A0D50";
paths = (
{
nodes = (
"305 833 LINE",
"313 836 OFFCURVE",
"338 843 OFFCURVE",
"353 844 OFFCURVE",
"355 844 QCURVE",
"364 844 OFFCURVE",
"384 838 OFFCURVE",
"389 827 QCURVE",
"394 812 OFFCURVE",
"394 793 OFFCURVE",
"386 779 OFFCURVE",
"370 769 OFFCURVE",
"360 763 QCURVE SMOOTH",
"346 755 OFFCURVE",
"302 734 OFFCURVE",
"279 724 QCURVE SMOOTH",
"253 713 OFFCURVE",
"224 700 QCURVE",
"218 709 LINE"
);
},
{
nodes = (
"358 680 OFFCURVE",
"453 619 OFFCURVE",
"522 520 OFFCURVE",
"560 395 OFFCURVE",
"560 332 QCURVE SMOOTH",
"560 268 OFFCURVE",
"522 145 OFFCURVE",
"453 48 OFFCURVE",
"358 -12 OFFCURVE",
"301 -12 QCURVE SMOOTH",
"243 -12 OFFCURVE",
"147 49 OFFCURVE",
"79 149 OFFCURVE",
"41 275 OFFCURVE",
"41 340 QCURVE SMOOTH",
"41 402 OFFCURVE",
"82 524 OFFCURVE",
"153 620 OFFCURVE",
"247 680 OFFCURVE",
"301 680 QCURVE SMOOTH"
);
},
{
nodes = (
"271 664 OFFCURVE",
"225 631 OFFCURVE",
"193 576 OFFCURVE",
"174 507 OFFCURVE",
"163 434 OFFCURVE",
"159 363 OFFCURVE",
"159 335 QCURVE SMOOTH",
"159 306 OFFCURVE",
"162 235 OFFCURVE",
"172 162 OFFCURVE",
"190 92 OFFCURVE",
"221 37 OFFCURVE",
"267 4 OFFCURVE",
"300 4 QCURVE SMOOTH",
"333 4 OFFCURVE",
"379 38 OFFCURVE",
"409 93 OFFCURVE",
"425 164 OFFCURVE",
"433 237 OFFCURVE",
"435 308 OFFCURVE",
"435 336 QCURVE SMOOTH",
"435 361 OFFCURVE",
"432 429 OFFCURVE",
"422 501 OFFCURVE",
"405 573 OFFCURVE",
"375 629 OFFCURVE",
"333 664 OFFCURVE",
"303 664 QCURVE SMOOTH"
);
}
);
width = 595;
}
);
unicode = 00D3;
},
{
glyphname = Ocircumflex;
layers = (
{
layerId = "DE113C6F-85E3-4DBE-A925-75822E2A0D50";
paths = (
{
nodes = (
"431 717 LINE",
"425 708 LINE",
"401 717 OFFCURVE",
"378 728 QCURVE",
"358 736 OFFCURVE",
"315 757 OFFCURVE",
"300 765 QCURVE",
"298 764 LINE SMOOTH",
"293 761 OFFCURVE",
"288 759 QCURVE SMOOTH",
"286 758 LINE SMOOTH",
"283 757 OFFCURVE",
"281 755 QCURVE",
"280 755 LINE",
"275 753 OFFCURVE",
"271 750 QCURVE",
"269 750 LINE",
"266 748 OFFCURVE",
"263 747 QCURVE SMOOTH",
"242 736 OFFCURVE",
"222 728 QCURVE",
"199 717 OFFCURVE",
"175 708 QCURVE",
"169 717 LINE",
"256 841 LINE",
"269 848 OFFCURVE",
"285 852 OFFCURVE",
"293 852 QCURVE SMOOTH",
"310 852 OFFCURVE",
"333 844 OFFCURVE",
"344 841 QCURVE"
);
},
{
nodes = (
"358 680 OFFCURVE",
"453 619 OFFCURVE",
"522 520 OFFCURVE",
"560 395 OFFCURVE",
"560 332 QCURVE SMOOTH",
"560 268 OFFCURVE",
"522 145 OFFCURVE",
"453 48 OFFCURVE",
"358 -12 OFFCURVE",
"301 -12 QCURVE SMOOTH",
"243 -12 OFFCURVE",
"147 49 OFFCURVE",
"79 149 OFFCURVE",
"41 275 OFFCURVE",
"41 340 QCURVE SMOOTH",
"41 402 OFFCURVE",
"82 524 OFFCURVE",
"153 620 OFFCURVE",
"247 680 OFFCURVE",
"301 680 QCURVE SMOOTH"
);
},
{
nodes = (
"271 664 OFFCURVE",
"225 631 OFFCURVE",
"193 576 OFFCURVE",
"174 507 OFFCURVE",
"163 434 OFFCURVE",
"159 363 OFFCURVE",
"159 335 QCURVE SMOOTH",
"159 306 OFFCURVE",
"162 235 OFFCURVE",
"172 162 OFFCURVE",
"190 92 OFFCURVE",
"221 37 OFFCURVE",
"267 4 OFFCURVE",
"300 4 QCURVE SMOOTH",
"333 4 OFFCURVE",
"379 38 OFFCURVE",
"409 93 OFFCURVE",
"425 164 OFFCURVE",
"433 237 OFFCURVE",
"435 308 OFFCURVE",
"435 336 QCURVE SMOOTH",
"435 361 OFFCURVE",
"432 429 OFFCURVE",
"422 501 OFFCURVE",
"405 573 OFFCURVE",
"375 629 OFFCURVE",
"333 664 OFFCURVE",
"303 664 QCURVE SMOOTH"
);
}
);
width = 595;
}
);
unicode = 00D4;
},
{
glyphname = Otilde;
layers = (
{
layerId = "DE113C6F-85E3-4DBE-A925-75822E2A0D50";
paths = (
{
nodes = (
"412 773 OFFCURVE",
"431 796 OFFCURVE",
"436 808 QCURVE",
"436 805 LINE",
"447 804 LINE",
"444 790 OFFCURVE",
"432 757 OFFCURVE",
"414 726 OFFCURVE",
"387 703 OFFCURVE",
"369 701 QCURVE",
"367 701 OFFCURVE",
"364 701 QCURVE SMOOTH",
"354 701 OFFCURVE",
"310 714 OFFCURVE",
"281 722 QCURVE SMOOTH",
"272 724 OFFCURVE",
"240 732 OFFCURVE",
"233 732 QCURVE",
"231 732 OFFCURVE",
"230 732 QCURVE",
"218 730 OFFCURVE",
"200 708 OFFCURVE",
"195 697 QCURVE",
"183 699 LINE",
"186 712 OFFCURVE",
"198 745 OFFCURVE",
"217 776 OFFCURVE",
"244 798 OFFCURVE",
"262 801 QCURVE SMOOTH",
"265 802 OFFCURVE",
"269 802 QCURVE SMOOTH",
"279 802 OFFCURVE",
"312 792 OFFCURVE",
"332 786 QCURVE SMOOTH",
"352 780 OFFCURVE",
"386 770 OFFCURVE",
"394 770 QCURVE SMOOTH",
"397 770 OFFCURVE",
"399 771 QCURVE"
);
},
{
nodes = (
"358 680 OFFCURVE",
"453 619 OFFCURVE",
"522 520 OFFCURVE",
"560 395 OFFCURVE",
"560 332 QCURVE SMOOTH",
"560 268 OFFCURVE",
"522 145 OFFCURVE",
"453 48 OFFCURVE",
"358 -12 OFFCURVE",
"301 -12 QCURVE SMOOTH",
"243 -12 OFFCURVE",
"147 49 OFFCURVE",
"79 149 OFFCURVE",
"41 275 OFFCURVE",
"41 340 QCURVE SMOOTH",
"41 402 OFFCURVE",
"82 524 OFFCURVE",
"153 620 OFFCURVE",
"247 680 OFFCURVE",
"301 680 QCURVE SMOOTH"
);
},
{
nodes = (
"271 664 OFFCURVE",
"225 631 OFFCURVE",
"193 576 OFFCURVE",
"174 507 OFFCURVE",
"163 434 OFFCURVE",
"159 363 OFFCURVE",
"159 335 QCURVE SMOOTH",
"159 306 OFFCURVE",
"162 235 OFFCURVE",
"172 162 OFFCURVE",
"190 92 OFFCURVE",
"221 37 OFFCURVE",
"267 4 OFFCURVE",
"300 4 QCURVE SMOOTH",
"333 4 OFFCURVE",
"379 38 OFFCURVE",
"409 93 OFFCURVE",
"425 164 OFFCURVE",
"433 237 OFFCURVE",
"435 308 OFFCURVE",
"435 336 QCURVE SMOOTH",
"435 361 OFFCURVE",
"432 429 OFFCURVE",
"422 501 OFFCURVE",
"405 573 OFFCURVE",
"375 629 OFFCURVE",
"333 664 OFFCURVE",
"303 664 QCURVE SMOOTH"
);
}
);
width = 595;
}
);
unicode = 00D5;
},
{
glyphname = Odieresis;
layers = (
{
layerId = "DE113C6F-85E3-4DBE-A925-75822E2A0D50";
paths = (
{
nodes = (
"168 790 OFFCURVE",
"202 824 OFFCURVE",
"226 824 QCURVE SMOOTH",
"250 824 OFFCURVE",
"284 790 OFFCURVE",
"284 766 QCURVE SMOOTH",
"284 742 OFFCURVE",
"250 708 OFFCURVE",
"226 708 QCURVE SMOOTH",
"202 708 OFFCURVE",
"168 742 OFFCURVE",
"168 766 QCURVE SMOOTH"
);
},
{
nodes = (
"323 790 OFFCURVE",
"357 824 OFFCURVE",
"381 824 QCURVE SMOOTH",
"405 824 OFFCURVE",
"439 790 OFFCURVE",
"439 766 QCURVE SMOOTH",
"439 742 OFFCURVE",
"405 708 OFFCURVE",
"381 708 QCURVE SMOOTH",
"357 708 OFFCURVE",
"323 742 OFFCURVE",
"323 766 QCURVE SMOOTH"
);
},
{
nodes = (
"358 680 OFFCURVE",
"453 619 OFFCURVE",
"522 520 OFFCURVE",
"560 395 OFFCURVE",
"560 332 QCURVE SMOOTH",
"560 268 OFFCURVE",
"522 145 OFFCURVE",
"453 48 OFFCURVE",
"358 -12 OFFCURVE",
"301 -12 QCURVE SMOOTH",
"243 -12 OFFCURVE",
"147 49 OFFCURVE",
"79 149 OFFCURVE",
"41 275 OFFCURVE",
"41 340 QCURVE SMOOTH",
"41 402 OFFCURVE",
"82 524 OFFCURVE",
"153 620 OFFCURVE",
"247 680 OFFCURVE",
"301 680 QCURVE SMOOTH"
);
},
{
nodes = (
"271 664 OFFCURVE",
"225 631 OFFCURVE",
"193 576 OFFCURVE",
"174 507 OFFCURVE",
"163 434 OFFCURVE",
"159 363 OFFCURVE",
"159 335 QCURVE SMOOTH",
"159 306 OFFCURVE",
"162 235 OFFCURVE",
"172 162 OFFCURVE",
"190 92 OFFCURVE",
"221 37 OFFCURVE",
"267 4 OFFCURVE",
"300 4 QCURVE SMOOTH",
"333 4 OFFCURVE",
"379 38 OFFCURVE",
"409 93 OFFCURVE",
"425 164 OFFCURVE",
"433 237 OFFCURVE",
"435 308 OFFCURVE",
"435 336 QCURVE SMOOTH",
"435 361 OFFCURVE",
"432 429 OFFCURVE",
"422 501 OFFCURVE",
"405 573 OFFCURVE",
"375 629 OFFCURVE",
"333 664 OFFCURVE",
"303 664 QCURVE SMOOTH"
);
}
);
width = 595;
}
);
unicode = 00D6;
},
{
glyphname = multiply;
layers = (
{
layerId = "DE113C6F-85E3-4DBE-A925-75822E2A0D50";
paths = (
{
nodes = (
"268 427 LINE",
"176 335 LINE",
"268 242 LINE",
"238 213 LINE",
"146 305 LINE",
"54 213 LINE",
"24 242 LINE",
"117 335 LINE",
"24 427 LINE",
"53 457 LINE",
"146 364 LINE",
"239 457 LINE"
);
}
);
width = 289;
}
);
unicode = 00D7;
},
{
glyphname = Oslash;
layers = (
{
layerId = "DE113C6F-85E3-4DBE-A925-75822E2A0D50";
paths = (
{
nodes = (
"342 681 OFFCURVE",
"378 665 QCURVE",
"403 741 LINE",
"423 735 LINE",
"397 655 LINE",
"401 653 OFFCURVE",
"406 650 QCURVE SMOOTH",
"453 619 OFFCURVE",
"522 520 OFFCURVE",
"560 395 OFFCURVE",
"560 332 QCURVE SMOOTH",
"560 268 OFFCURVE",
"522 145 OFFCURVE",
"453 48 OFFCURVE",
"358 -12 OFFCURVE",
"301 -12 QCURVE SMOOTH",
"243 -12 OFFCURVE",
"195 19 QCURVE SMOOTH",
"193 20 OFFCURVE",
"191 21 QCURVE",
"161 -72 LINE",
"141 -66 LINE",
"174 34 LINE",
"139 62 OFFCURVE",
"113 100 QCURVE SMOOTH",
"79 150 OFFCURVE",
"41 276 OFFCURVE",
"41 341 QCURVE SMOOTH",
"41 402 OFFCURVE",
"82 524 OFFCURVE",
"153 621 OFFCURVE",
"247 681 OFFCURVE",
"301 681 QCURVE SMOOTH"
);
},
{
nodes = (
"271 664 OFFCURVE",
"225 631 OFFCURVE",
"193 577 OFFCURVE",
"174 508 OFFCURVE",
"163 434 OFFCURVE",
"159 363 OFFCURVE",
"159 335 QCURVE SMOOTH",
"159 307 OFFCURVE",
"162 236 OFFCURVE",
"172 163 OFFCURVE",
"181 128 QCURVE SMOOTH",
"186 109 OFFCURVE",
"193 93 QCURVE",
"368 633 LINE",
"361 640 OFFCURVE",
"354 647 QCURVE",
"333 664 OFFCURVE",
"303 664 QCURVE SMOOTH"
);
},
{
nodes = (
"206 65 LINE",
"221 38 OFFCURVE",
"267 5 OFFCURVE",
"300 5 QCURVE SMOOTH",
"333 5 OFFCURVE",
"379 39 OFFCURVE",
"409 94 OFFCURVE",
"425 165 OFFCURVE",
"433 238 OFFCURVE",
"435 309 OFFCURVE",
"435 337 QCURVE SMOOTH",
"435 362 OFFCURVE",
"432 429 OFFCURVE",
"422 502 OFFCURVE",
"405 573 OFFCURVE",
"390 601 QCURVE SMOOTH",
"387 607 OFFCURVE",
"383 613 QCURVE"
);
}
);
width = 595;
}
);
unicode = 00D8;
},
{
glyphname = Ugrave;
layers = (
{
layerId = "DE113C6F-85E3-4DBE-A925-75822E2A0D50";
paths = (
{
nodes = (
"386 709 LINE",
"380 700 LINE",
"351 713 OFFCURVE",
"325 724 QCURVE SMOOTH",
"302 734 OFFCURVE",
"257 755 OFFCURVE",
"244 763 QCURVE SMOOTH",
"233 769 OFFCURVE",
"218 779 OFFCURVE",
"210 793 OFFCURVE",
"210 812 OFFCURVE",
"215 827 QCURVE",
"220 838 OFFCURVE",
"240 844 OFFCURVE",
"249 844 QCURVE",
"251 844 OFFCURVE",
"266 843 OFFCURVE",
"291 836 OFFCURVE",
"299 833 QCURVE"
);
},
{
nodes = (
"616 650 LINE",
"600 650 LINE SMOOTH",
"580 650 OFFCURVE",
"555 648 OFFCURVE",
"540 633 OFFCURVE",
"535 599 OFFCURVE",
"535 568 QCURVE SMOOTH",
"535 227 LINE SMOOTH",
"535 97 OFFCURVE",
"430 -14 OFFCURVE",
"325 -14 QCURVE SMOOTH",
"292 -14 OFFCURVE",
"213 -4 OFFCURVE",
"142 27 OFFCURVE",
"89 83 OFFCURVE",
"83 129 QCURVE SMOOTH",
"81 140 OFFCURVE",
"81 157 QCURVE SMOOTH",
"81 160 LINE",
"81 160 OFFCURVE",
"81 161 QCURVE",
"81 164 LINE",
"81 166 OFFCURVE",
"81 167 QCURVE",
"81 168 LINE",
"81 168 OFFCURVE",
"81 168 QCURVE",
"81 169 LINE",
"81 171 OFFCURVE",
"81 172 QCURVE",
"81 650 LINE",
"18 650 LINE",
"18 667 LINE",
"271 667 LINE",
"271 650 LINE",
"207 650 LINE",
"207 219 LINE SMOOTH",
"207 173 OFFCURVE",
"218 96 OFFCURVE",
"249 40 OFFCURVE",
"303 8 OFFCURVE",
"345 8 QCURVE SMOOTH",
"391 8 OFFCURVE",
"456 41 OFFCURVE",
"495 102 OFFCURVE",
"513 189 OFFCURVE",
"513 242 QCURVE SMOOTH",
"513 568 LINE SMOOTH",
"513 600 OFFCURVE",
"506 634 OFFCURVE",
"490 650 OFFCURVE",
"471 652 OFFCURVE",
"463 652 QCURVE SMOOTH",
"455 652 OFFCURVE",
"445 651 QCURVE",
"440 651 OFFCURVE",
"429 650 OFFCURVE",
"422 650 QCURVE",
"422 667 LINE",
"616 667 LINE"
);
}
);
width = 623;
}
);
unicode = 00D9;
},
{
glyphname = Uacute;
layers = (
{
layerId = "DE113C6F-85E3-4DBE-A925-75822E2A0D50";
paths = (
{
nodes = (
"329 833 LINE",
"337 836 OFFCURVE",
"362 843 OFFCURVE",
"377 844 OFFCURVE",
"379 844 QCURVE",
"388 844 OFFCURVE",
"408 838 OFFCURVE",
"413 827 QCURVE",
"418 812 OFFCURVE",
"418 793 OFFCURVE",
"410 779 OFFCURVE",
"394 769 OFFCURVE",
"384 763 QCURVE SMOOTH",
"370 755 OFFCURVE",
"326 734 OFFCURVE",
"303 724 QCURVE SMOOTH",
"277 713 OFFCURVE",
"248 700 QCURVE",
"242 709 LINE"
);
},
{
nodes = (
"616 650 LINE",
"600 650 LINE SMOOTH",
"580 650 OFFCURVE",
"555 648 OFFCURVE",
"540 633 OFFCURVE",
"535 599 OFFCURVE",
"535 568 QCURVE SMOOTH",
"535 227 LINE SMOOTH",
"535 97 OFFCURVE",
"430 -14 OFFCURVE",
"325 -14 QCURVE SMOOTH",
"292 -14 OFFCURVE",
"213 -4 OFFCURVE",
"142 27 OFFCURVE",
"89 83 OFFCURVE",
"83 129 QCURVE SMOOTH",
"81 140 OFFCURVE",
"81 157 QCURVE SMOOTH",
"81 160 LINE",
"81 160 OFFCURVE",
"81 161 QCURVE",
"81 164 LINE",
"81 166 OFFCURVE",
"81 167 QCURVE",
"81 168 LINE",
"81 168 OFFCURVE",
"81 168 QCURVE",
"81 169 LINE",
"81 171 OFFCURVE",
"81 172 QCURVE",
"81 650 LINE",
"18 650 LINE",
"18 667 LINE",
"271 667 LINE",
"271 650 LINE",
"207 650 LINE",
"207 219 LINE SMOOTH",
"207 173 OFFCURVE",
"218 96 OFFCURVE",
"249 40 OFFCURVE",
"303 8 OFFCURVE",
"345 8 QCURVE SMOOTH",
"391 8 OFFCURVE",
"456 41 OFFCURVE",
"495 102 OFFCURVE",
"513 189 OFFCURVE",
"513 242 QCURVE SMOOTH",
"513 568 LINE SMOOTH",
"513 600 OFFCURVE",
"506 634 OFFCURVE",
"490 650 OFFCURVE",
"471 652 OFFCURVE",
"463 652 QCURVE SMOOTH",
"455 652 OFFCURVE",
"445 651 QCURVE",
"440 651 OFFCURVE",
"429 650 OFFCURVE",
"422 650 QCURVE",
"422 667 LINE",
"616 667 LINE"
);
}
);
width = 623;
}
);
unicode = 00DA;
},
{
glyphname = Ucircumflex;
layers = (
{
layerId = "DE113C6F-85E3-4DBE-A925-75822E2A0D50";
paths = (
{
nodes = (
"440 717 LINE",
"434 708 LINE",
"410 717 OFFCURVE",
"387 728 QCURVE",
"367 736 OFFCURVE",
"324 757 OFFCURVE",
"309 765 QCURVE",
"307 764 LINE SMOOTH",
"302 761 OFFCURVE",
"297 759 QCURVE SMOOTH",
"295 758 LINE SMOOTH",
"292 757 OFFCURVE",
"290 755 QCURVE",
"289 755 LINE",
"284 753 OFFCURVE",
"280 750 QCURVE",
"278 750 LINE",
"275 748 OFFCURVE",
"272 747 QCURVE SMOOTH",
"251 736 OFFCURVE",
"231 728 QCURVE",
"208 717 OFFCURVE",
"184 708 QCURVE",
"178 717 LINE",
"265 841 LINE",
"278 848 OFFCURVE",
"294 852 OFFCURVE",
"302 852 QCURVE SMOOTH",
"319 852 OFFCURVE",
"342 844 OFFCURVE",
"353 841 QCURVE"
);
},
{
nodes = (
"616 650 LINE",
"600 650 LINE SMOOTH",
"580 650 OFFCURVE",
"555 648 OFFCURVE",
"540 633 OFFCURVE",
"535 599 OFFCURVE",
"535 568 QCURVE SMOOTH",
"535 227 LINE SMOOTH",
"535 97 OFFCURVE",
"430 -14 OFFCURVE",
"325 -14 QCURVE SMOOTH",
"292 -14 OFFCURVE",
"213 -4 OFFCURVE",
"142 27 OFFCURVE",
"89 83 OFFCURVE",
"83 129 QCURVE SMOOTH",
"81 140 OFFCURVE",
"81 157 QCURVE SMOOTH",
"81 160 LINE",
"81 160 OFFCURVE",
"81 161 QCURVE",
"81 164 LINE",
"81 166 OFFCURVE",
"81 167 QCURVE",
"81 168 LINE",
"81 168 OFFCURVE",
"81 168 QCURVE",
"81 169 LINE",
"81 171 OFFCURVE",
"81 172 QCURVE",
"81 650 LINE",
"18 650 LINE",
"18 667 LINE",
"271 667 LINE",
"271 650 LINE",
"207 650 LINE",
"207 219 LINE SMOOTH",
"207 173 OFFCURVE",
"218 96 OFFCURVE",
"249 40 OFFCURVE",
"303 8 OFFCURVE",
"345 8 QCURVE SMOOTH",
"391 8 OFFCURVE",
"456 41 OFFCURVE",
"495 102 OFFCURVE",
"513 189 OFFCURVE",
"513 242 QCURVE SMOOTH",
"513 568 LINE SMOOTH",
"513 600 OFFCURVE",
"506 634 OFFCURVE",
"490 650 OFFCURVE",
"471 652 OFFCURVE",
"463 652 QCURVE SMOOTH",
"455 652 OFFCURVE",
"445 651 QCURVE",
"440 651 OFFCURVE",
"429 650 OFFCURVE",
"422 650 QCURVE",
"422 667 LINE",
"616 667 LINE"
);
}
);
width = 623;
}
);
unicode = 00DB;
},
{
glyphname = Udieresis;
layers = (
{
layerId = "DE113C6F-85E3-4DBE-A925-75822E2A0D50";
paths = (
{
nodes = (
"191 790 OFFCURVE",
"225 824 OFFCURVE",
"249 824 QCURVE SMOOTH",
"273 824 OFFCURVE",
"307 790 OFFCURVE",
"307 766 QCURVE SMOOTH",
"307 742 OFFCURVE",
"273 708 OFFCURVE",
"249 708 QCURVE SMOOTH",
"225 708 OFFCURVE",
"191 742 OFFCURVE",
"191 766 QCURVE SMOOTH"
);
},
{
nodes = (
"346 790 OFFCURVE",
"380 824 OFFCURVE",
"404 824 QCURVE SMOOTH",
"428 824 OFFCURVE",
"462 790 OFFCURVE",
"462 766 QCURVE SMOOTH",
"462 742 OFFCURVE",
"428 708 OFFCURVE",
"404 708 QCURVE SMOOTH",
"380 708 OFFCURVE",
"346 742 OFFCURVE",
"346 766 QCURVE SMOOTH"
);
},
{
nodes = (
"616 650 LINE",
"600 650 LINE SMOOTH",
"580 650 OFFCURVE",
"555 648 OFFCURVE",
"540 633 OFFCURVE",
"535 599 OFFCURVE",
"535 568 QCURVE SMOOTH",
"535 227 LINE SMOOTH",
"535 97 OFFCURVE",
"430 -14 OFFCURVE",
"325 -14 QCURVE SMOOTH",
"292 -14 OFFCURVE",
"213 -4 OFFCURVE",
"142 27 OFFCURVE",
"89 83 OFFCURVE",
"83 129 QCURVE SMOOTH",
"81 140 OFFCURVE",
"81 157 QCURVE SMOOTH",
"81 160 LINE",
"81 160 OFFCURVE",
"81 161 QCURVE",
"81 164 LINE",
"81 166 OFFCURVE",
"81 167 QCURVE",
"81 168 LINE",
"81 168 OFFCURVE",
"81 168 QCURVE",
"81 169 LINE",
"81 171 OFFCURVE",
"81 172 QCURVE",
"81 650 LINE",
"18 650 LINE",
"18 667 LINE",
"271 667 LINE",
"271 650 LINE",
"207 650 LINE",
"207 219 LINE SMOOTH",
"207 173 OFFCURVE",
"218 96 OFFCURVE",
"249 40 OFFCURVE",
"303 8 OFFCURVE",
"345 8 QCURVE SMOOTH",
"391 8 OFFCURVE",
"456 41 OFFCURVE",
"495 102 OFFCURVE",
"513 189 OFFCURVE",
"513 242 QCURVE SMOOTH",
"513 568 LINE SMOOTH",
"513 600 OFFCURVE",
"506 634 OFFCURVE",
"490 650 OFFCURVE",
"471 652 OFFCURVE",
"463 652 QCURVE SMOOTH",
"455 652 OFFCURVE",
"445 651 QCURVE",
"440 651 OFFCURVE",
"429 650 OFFCURVE",
"422 650 QCURVE",
"422 667 LINE",
"616 667 LINE"
);
}
);
width = 623;
}
);
unicode = 00DC;
},
{
glyphname = Yacute;
layers = (
{
layerId = "DE113C6F-85E3-4DBE-A925-75822E2A0D50";
paths = (
{
nodes = (
"274 833 LINE",
"282 836 OFFCURVE",
"307 843 OFFCURVE",
"322 844 OFFCURVE",
"324 844 QCURVE",
"333 844 OFFCURVE",
"353 838 OFFCURVE",
"358 827 QCURVE",
"363 812 OFFCURVE",
"363 793 OFFCURVE",
"355 779 OFFCURVE",
"339 769 OFFCURVE",
"329 763 QCURVE SMOOTH",
"315 755 OFFCURVE",
"271 734 OFFCURVE",
"248 724 QCURVE SMOOTH",
"222 713 OFFCURVE",
"193 700 QCURVE",
"187 709 LINE"
);
},
{
nodes = (
"333 667 LINE",
"510 667 LINE",
"510 651 LINE",
"489 651 LINE SMOOTH",
"475 651 OFFCURVE",
"457 646 OFFCURVE",
"442 631 OFFCURVE",
"429 603 OFFCURVE",
"420 581 QCURVE SMOOTH",
"295 266 LINE",
"295 17 LINE",
"359 17 LINE",
"359 0 LINE",
"124 0 LINE",
"124 17 LINE",
"187 17 LINE",
"187 243 LINE",
"30 650 LINE",
"-23 650 LINE",
"-23 667 LINE",
"216 667 LINE",
"216 650 LINE",
"153 650 LINE",
"286 304 LINE",
"383 541 LINE SMOOTH",
"386 547 OFFCURVE",
"394 570 OFFCURVE",
"402 595 OFFCURVE",
"408 618 OFFCURVE",
"408 625 QCURVE SMOOTH",
"408 642 OFFCURVE",
"377 651 OFFCURVE",
"359 651 QCURVE SMOOTH",
"352 651 OFFCURVE",
"340 650 OFFCURVE",
"335 650 QCURVE",
"333 650 LINE"
);
}
);
width = 483;
}
);
unicode = 00DD;
},
{
glyphname = Thorn;
layers = (
{
layerId = "DE113C6F-85E3-4DBE-A925-75822E2A0D50";
paths = (
{
nodes = (
"264 547 LINE SMOOTH",
"302 547 OFFCURVE",
"386 533 OFFCURVE",
"456 493 OFFCURVE",
"502 421 OFFCURVE",
"502 364 QCURVE",
"502 363 OFFCURVE",
"502 361 QCURVE",
"502 360 LINE",
"502 358 OFFCURVE",
"502 356 QCURVE",
"502 355 LINE",
"502 355 OFFCURVE",
"502 354 QCURVE",
"502 353 LINE",
"502 353 OFFCURVE",
"502 353 QCURVE",
"502 352 LINE",
"502 351 OFFCURVE",
"502 351 QCURVE",
"502 350 LINE",
"502 350 OFFCURVE",
"502 349 QCURVE",
"502 343 LINE",
"502 341 OFFCURVE",
"502 340 QCURVE",
"502 339 LINE",
"502 338 OFFCURVE",
"502 338 QCURVE",
"502 281 OFFCURVE",
"456 209 OFFCURVE",
"386 169 OFFCURVE",
"302 155 OFFCURVE",
"264 155 QCURVE SMOOTH",
"197 155 LINE",
"197 17 LINE",
"269 17 LINE",
"269 0 LINE",
"20 0 LINE",
"20 17 LINE",
"83 17 LINE",
"83 650 LINE",
"20 650 LINE",
"20 667 LINE",
"269 667 LINE",
"269 650 LINE",
"197 650 LINE",
"197 547 LINE"
);
},
{
nodes = (
"395 401 OFFCURVE",
"372 469 OFFCURVE",
"328 512 OFFCURVE",
"297 522 QCURVE SMOOTH",
"269 531 OFFCURVE",
"197 532 QCURVE",
"197 170 LINE",
"269 170 OFFCURVE",
"297 180 QCURVE SMOOTH",
"328 190 OFFCURVE",
"372 233 OFFCURVE",
"395 301 OFFCURVE",
"395 353 QCURVE SMOOTH"
);
}
);
width = 528;
}
);
unicode = 00DE;
},
{
glyphname = germandbls;
layers = (
{
layerId = "DE113C6F-85E3-4DBE-A925-75822E2A0D50";
paths = (
{
nodes = (
"349 399 OFFCURVE",
"376 366 OFFCURVE",
"414 338 OFFCURVE",
"452 317 OFFCURVE",
"463 314 QCURVE SMOOTH",
"496 304 OFFCURVE",
"564 279 OFFCURVE",
"622 241 OFFCURVE",
"663 186 OFFCURVE",
"668 147 QCURVE",
"668 139 LINE SMOOTH",
"668 101 OFFCURVE",
"635 44 OFFCURVE",
"582 6 OFFCURVE",
"515 -12 OFFCURVE",
"481 -12 QCURVE SMOOTH",
"465 -12 OFFCURVE",
"444 -8 OFFCURVE",
"426 -1 OFFCURVE",
"407 9 OFFCURVE",
"392 15 QCURVE SMOOTH",
"381 20 OFFCURVE",
"359 27 OFFCURVE",
"348 27 QCURVE SMOOTH",
"337 27 OFFCURVE",
"328 2 OFFCURVE",
"327 -7 QCURVE",
"311 -7 LINE",
"311 183 LINE",
"327 183 LINE",
"331 140 OFFCURVE",
"348 74 OFFCURVE",
"383 30 OFFCURVE",
"440 7 OFFCURVE",
"484 7 QCURVE SMOOTH",
"501 7 OFFCURVE",
"542 14 OFFCURVE",
"578 31 OFFCURVE",
"602 60 OFFCURVE",
"602 81 QCURVE SMOOTH",
"602 109 OFFCURVE",
"558 144 OFFCURVE",
"492 173 OFFCURVE",
"416 201 OFFCURVE",
"350 245 OFFCURVE",
"306 311 OFFCURVE",
"306 362 QCURVE SMOOTH",
"306 398 OFFCURVE",
"325 445 OFFCURVE",
"354 478 OFFCURVE",
"388 502 OFFCURVE",
"417 529 OFFCURVE",
"436 564 OFFCURVE",
"436 591 QCURVE SMOOTH",
"436 610 OFFCURVE",
"417 636 OFFCURVE",
"388 652 OFFCURVE",
"354 659 OFFCURVE",
"338 659 QCURVE SMOOTH",
"291 659 OFFCURVE",
"236 621 OFFCURVE",
"208 560 OFFCURVE",
"200 485 OFFCURVE",
"200 448 QCURVE SMOOTH",
"200 17 LINE",
"264 17 LINE",
"264 0 LINE",
"11 0 LINE",
"11 17 LINE",
"74 17 LINE",
"74 510 LINE SMOOTH",
"74 562 OFFCURVE",
"118 629 OFFCURVE",
"188 667 OFFCURVE",
"275 681 OFFCURVE",
"318 681 QCURVE SMOOTH",
"343 681 OFFCURVE",
"392 673 OFFCURVE",
"430 650 OFFCURVE",
"453 612 OFFCURVE",
"453 582 QCURVE SMOOTH",
"453 548 OFFCURVE",
"420 502 OFFCURVE",
"381 466 OFFCURVE",
"349 434 OFFCURVE",
"349 414 QCURVE SMOOTH"
);
}
);
width = 694;
}
);
unicode = 00DF;
},
{
glyphname = agrave;
layers = (
{
layerId = "DE113C6F-85E3-4DBE-A925-75822E2A0D50";
paths = (
{
nodes = (
"386 709 LINE",
"380 700 LINE",
"351 713 OFFCURVE",
"325 724 QCURVE SMOOTH",
"302 734 OFFCURVE",
"257 755 OFFCURVE",
"244 763 QCURVE SMOOTH",
"233 769 OFFCURVE",
"218 779 OFFCURVE",
"210 793 OFFCURVE",
"210 812 OFFCURVE",
"215 827 QCURVE",
"220 838 OFFCURVE",
"240 844 OFFCURVE",
"249 844 QCURVE",
"251 844 OFFCURVE",
"266 843 OFFCURVE",
"291 836 OFFCURVE",
"299 833 QCURVE"
);
},
{
nodes = (
"-5 17 LINE",
"17 17 OFFCURVE",
"45 23 OFFCURVE",
"63 39 OFFCURVE",
"75 70 OFFCURVE",
"83 94 QCURVE",
"126 240 OFFCURVE",
"214 531 OFFCURVE",
"258 677 QCURVE",
"292 677 LINE",
"505 17 LINE",
"549 17 LINE",
"549 0 LINE",
"310 0 LINE",
"310 17 LINE",
"377 17 LINE",
"313 218 LINE",
"139 218 LINE",
"132 198 LINE SMOOTH",
"127 183 OFFCURVE",
"113 137 OFFCURVE",
"100 91 OFFCURVE",
"90 53 OFFCURVE",
"90 46 QCURVE SMOOTH",
"90 34 OFFCURVE",
"109 22 OFFCURVE",
"135 17 OFFCURVE",
"149 17 QCURVE SMOOTH",
"154 17 LINE",
"155 17 OFFCURVE",
"156 17 QCURVE",
"157 17 LINE",
"157 17 OFFCURVE",
"158 17 QCURVE",
"159 17 OFFCURVE",
"159 17 QCURVE",
"160 17 LINE",
"160 17 OFFCURVE",
"160 17 QCURVE",
"172 17 LINE",
"172 0 LINE",
"-5 0 LINE"
);
},
{
nodes = (
"144 235 LINE",
"308 235 LINE",
"224 497 LINE"
);
}
);
width = 536;
}
);
unicode = 00E0;
},
{
glyphname = aacute;
layers = (
{
layerId = "DE113C6F-85E3-4DBE-A925-75822E2A0D50";
paths = (
{
nodes = (
"289 833 LINE",
"297 836 OFFCURVE",
"322 843 OFFCURVE",
"337 844 OFFCURVE",
"339 844 QCURVE",
"348 844 OFFCURVE",
"368 838 OFFCURVE",
"373 827 QCURVE",
"378 812 OFFCURVE",
"378 793 OFFCURVE",
"370 779 OFFCURVE",
"354 769 OFFCURVE",
"344 763 QCURVE SMOOTH",
"330 755 OFFCURVE",
"286 734 OFFCURVE",
"263 724 QCURVE SMOOTH",
"237 713 OFFCURVE",
"208 700 QCURVE",
"202 709 LINE"
);
},
{
nodes = (
"-5 17 LINE",
"17 17 OFFCURVE",
"45 23 OFFCURVE",
"63 39 OFFCURVE",
"75 70 OFFCURVE",
"83 94 QCURVE",
"126 240 OFFCURVE",
"214 531 OFFCURVE",
"258 677 QCURVE",
"292 677 LINE",
"505 17 LINE",
"549 17 LINE",
"549 0 LINE",
"310 0 LINE",
"310 17 LINE",
"377 17 LINE",
"313 218 LINE",
"139 218 LINE",
"132 198 LINE SMOOTH",
"127 183 OFFCURVE",
"113 137 OFFCURVE",
"100 91 OFFCURVE",
"90 53 OFFCURVE",
"90 46 QCURVE SMOOTH",
"90 34 OFFCURVE",
"109 22 OFFCURVE",
"135 17 OFFCURVE",
"149 17 QCURVE SMOOTH",
"154 17 LINE",
"155 17 OFFCURVE",
"156 17 QCURVE",
"157 17 LINE",
"157 17 OFFCURVE",
"158 17 QCURVE",
"159 17 OFFCURVE",
"159 17 QCURVE",
"160 17 LINE",
"160 17 OFFCURVE",
"160 17 QCURVE",
"172 17 LINE",
"172 0 LINE",
"-5 0 LINE"
);
},
{
nodes = (
"144 235 LINE",
"308 235 LINE",
"224 497 LINE"
);
}
);
width = 536;
}
);
unicode = 00E1;
},
{
glyphname = acircumflex;
layers = (
{
layerId = "DE113C6F-85E3-4DBE-A925-75822E2A0D50";
paths = (
{
nodes = (
"412 717 LINE",
"406 708 LINE",
"382 717 OFFCURVE",
"359 728 QCURVE",
"339 736 OFFCURVE",
"296 757 OFFCURVE",
"281 765 QCURVE",
"279 764 LINE SMOOTH",
"271 760 OFFCURVE",
"262 755 QCURVE",
"261 755 LINE",
"256 753 OFFCURVE",
"252 750 QCURVE",
"250 750 LINE",
"247 748 OFFCURVE",
"244 747 QCURVE SMOOTH",
"223 736 OFFCURVE",
"203 728 QCURVE",
"180 717 OFFCURVE",
"156 708 QCURVE",
"150 717 LINE",
"237 841 LINE",
"250 848 OFFCURVE",
"266 852 OFFCURVE",
"274 852 QCURVE SMOOTH",
"291 852 OFFCURVE",
"314 844 OFFCURVE",
"325 841 QCURVE"
);
},
{
nodes = (
"-5 17 LINE",
"17 17 OFFCURVE",
"45 23 OFFCURVE",
"63 39 OFFCURVE",
"75 70 OFFCURVE",
"83 94 QCURVE",
"126 240 OFFCURVE",
"214 531 OFFCURVE",
"258 677 QCURVE",
"292 677 LINE",
"505 17 LINE",
"549 17 LINE",
"549 0 LINE",
"310 0 LINE",
"310 17 LINE",
"377 17 LINE",
"313 218 LINE",
"139 218 LINE",
"132 198 LINE SMOOTH",
"127 183 OFFCURVE",
"113 137 OFFCURVE",
"100 91 OFFCURVE",
"90 53 OFFCURVE",
"90 46 QCURVE SMOOTH",
"90 34 OFFCURVE",
"109 22 OFFCURVE",
"135 17 OFFCURVE",
"149 17 QCURVE SMOOTH",
"154 17 LINE",
"155 17 OFFCURVE",
"156 17 QCURVE",
"157 17 LINE",
"157 17 OFFCURVE",
"158 17 QCURVE",
"159 17 OFFCURVE",
"159 17 QCURVE",
"160 17 LINE",
"160 17 OFFCURVE",
"160 17 QCURVE",
"172 17 LINE",
"172 0 LINE",
"-5 0 LINE"
);
},
{
nodes = (
"144 235 LINE",
"308 235 LINE",
"224 497 LINE"
);
}
);
width = 536;
}
);
unicode = 00E2;
},
{
glyphname = atilde;
layers = (
{
layerId = "DE113C6F-85E3-4DBE-A925-75822E2A0D50";
paths = (
{
nodes = (
"384 773 OFFCURVE",
"403 796 OFFCURVE",
"408 808 QCURVE",
"408 805 LINE",
"419 804 LINE",
"416 790 OFFCURVE",
"404 757 OFFCURVE",
"386 726 OFFCURVE",
"359 703 OFFCURVE",
"341 701 QCURVE",
"339 701 OFFCURVE",
"336 701 QCURVE SMOOTH",
"326 701 OFFCURVE",
"282 714 OFFCURVE",
"253 722 QCURVE SMOOTH",
"244 724 OFFCURVE",
"212 732 OFFCURVE",
"205 732 QCURVE",
"203 732 OFFCURVE",
"202 732 QCURVE",
"190 730 OFFCURVE",
"172 708 OFFCURVE",
"167 697 QCURVE",
"155 699 LINE",
"158 712 OFFCURVE",
"170 745 OFFCURVE",
"189 776 OFFCURVE",
"216 798 OFFCURVE",
"234 801 QCURVE SMOOTH",
"237 802 OFFCURVE",
"241 802 QCURVE SMOOTH",
"251 802 OFFCURVE",
"284 792 OFFCURVE",
"304 786 QCURVE SMOOTH",
"324 780 OFFCURVE",
"358 770 OFFCURVE",
"366 770 QCURVE SMOOTH",
"369 770 OFFCURVE",
"371 771 QCURVE"
);
},
{
nodes = (
"-5 17 LINE",
"17 17 OFFCURVE",
"45 23 OFFCURVE",
"63 39 OFFCURVE",
"75 70 OFFCURVE",
"83 94 QCURVE",
"126 240 OFFCURVE",
"214 531 OFFCURVE",
"258 677 QCURVE",
"292 677 LINE",
"505 17 LINE",
"549 17 LINE",
"549 0 LINE",
"310 0 LINE",
"310 17 LINE",
"377 17 LINE",
"313 218 LINE",
"139 218 LINE",
"132 198 LINE SMOOTH",
"127 183 OFFCURVE",
"113 137 OFFCURVE",
"100 91 OFFCURVE",
"90 53 OFFCURVE",
"90 46 QCURVE SMOOTH",
"90 34 OFFCURVE",
"109 22 OFFCURVE",
"135 17 OFFCURVE",
"149 17 QCURVE SMOOTH",
"154 17 LINE",
"155 17 OFFCURVE",
"156 17 QCURVE",
"157 17 LINE",
"157 17 OFFCURVE",
"158 17 QCURVE",
"159 17 OFFCURVE",
"159 17 QCURVE",
"160 17 LINE",
"160 17 OFFCURVE",
"160 17 QCURVE",
"172 17 LINE",
"172 0 LINE",
"-5 0 LINE"
);
},
{
nodes = (
"144 235 LINE",
"308 235 LINE",
"224 497 LINE"
);
}
);
width = 536;
}
);
unicode = 00E3;
},
{
glyphname = adieresis;
layers = (
{
layerId = "DE113C6F-85E3-4DBE-A925-75822E2A0D50";
paths = (
{
nodes = (
"147 790 OFFCURVE",
"181 824 OFFCURVE",
"205 824 QCURVE SMOOTH",
"229 824 OFFCURVE",
"263 790 OFFCURVE",
"263 766 QCURVE SMOOTH",
"263 742 OFFCURVE",
"229 708 OFFCURVE",
"205 708 QCURVE SMOOTH",
"181 708 OFFCURVE",
"147 742 OFFCURVE",
"147 766 QCURVE SMOOTH"
);
},
{
nodes = (
"302 790 OFFCURVE",
"336 824 OFFCURVE",
"360 824 QCURVE SMOOTH",
"384 824 OFFCURVE",
"418 790 OFFCURVE",
"418 766 QCURVE SMOOTH",
"418 742 OFFCURVE",
"384 708 OFFCURVE",
"360 708 QCURVE SMOOTH",
"336 708 OFFCURVE",
"302 742 OFFCURVE",
"302 766 QCURVE SMOOTH"
);
},
{
nodes = (
"-5 17 LINE",
"17 17 OFFCURVE",
"45 23 OFFCURVE",
"63 39 OFFCURVE",
"75 70 OFFCURVE",
"83 94 QCURVE",
"126 240 OFFCURVE",
"214 531 OFFCURVE",
"258 677 QCURVE",
"292 677 LINE",
"505 17 LINE",
"549 17 LINE",
"549 0 LINE",
"310 0 LINE",
"310 17 LINE",
"377 17 LINE",
"313 218 LINE",
"139 218 LINE",
"132 198 LINE SMOOTH",
"127 183 OFFCURVE",
"113 137 OFFCURVE",
"100 91 OFFCURVE",
"90 53 OFFCURVE",
"90 46 QCURVE SMOOTH",
"90 34 OFFCURVE",
"109 22 OFFCURVE",
"135 17 OFFCURVE",
"149 17 QCURVE SMOOTH",
"154 17 LINE",
"155 17 OFFCURVE",
"156 17 QCURVE",
"157 17 LINE",
"157 17 OFFCURVE",
"158 17 QCURVE",
"159 17 OFFCURVE",
"159 17 QCURVE",
"160 17 LINE",
"160 17 OFFCURVE",
"160 17 QCURVE",
"172 17 LINE",
"172 0 LINE",
"-5 0 LINE"
);
},
{
nodes = (
"144 235 LINE",
"308 235 LINE",
"224 497 LINE"
);
}
);
width = 536;
}
);
unicode = 00E4;
},
{
glyphname = aring;
layers = (
{
layerId = "DE113C6F-85E3-4DBE-A925-75822E2A0D50";
paths = (
{
nodes = (
"242 701 OFFCURVE",
"204 740 OFFCURVE",
"204 769 QCURVE SMOOTH",
"204 797 OFFCURVE",
"242 835 OFFCURVE",
"271 835 QCURVE SMOOTH",
"300 835 OFFCURVE",
"338 798 OFFCURVE",
"338 769 QCURVE SMOOTH",
"338 741 OFFCURVE",
"299 701 OFFCURVE",
"271 701 QCURVE SMOOTH"
);
},
{
nodes = (
"254 805 OFFCURVE",
"232 784 OFFCURVE",
"232 769 QCURVE SMOOTH",
"232 754 OFFCURVE",
"254 732 OFFCURVE",
"270 732 QCURVE SMOOTH",
"286 732 OFFCURVE",
"308 753 OFFCURVE",
"308 769 QCURVE SMOOTH",
"308 784 OFFCURVE",
"286 805 OFFCURVE",
"270 805 QCURVE SMOOTH"
);
},
{
nodes = (
"-5 17 LINE",
"17 17 OFFCURVE",
"45 23 OFFCURVE",
"63 39 OFFCURVE",
"75 70 OFFCURVE",
"83 94 QCURVE",
"126 240 OFFCURVE",
"214 531 OFFCURVE",
"258 677 QCURVE",
"292 677 LINE",
"505 17 LINE",
"549 17 LINE",
"549 0 LINE",
"310 0 LINE",
"310 17 LINE",
"377 17 LINE",
"313 218 LINE",
"139 218 LINE",
"132 198 LINE SMOOTH",
"127 183 OFFCURVE",
"113 137 OFFCURVE",
"100 91 OFFCURVE",
"90 53 OFFCURVE",
"90 46 QCURVE SMOOTH",
"90 34 OFFCURVE",
"109 22 OFFCURVE",
"135 17 OFFCURVE",
"149 17 QCURVE SMOOTH",
"154 17 LINE",
"155 17 OFFCURVE",
"156 17 QCURVE",
"157 17 LINE",
"157 17 OFFCURVE",
"158 17 QCURVE",
"159 17 OFFCURVE",
"159 17 QCURVE",
"160 17 LINE",
"160 17 OFFCURVE",
"160 17 QCURVE",
"172 17 LINE",
"172 0 LINE",
"-5 0 LINE"
);
},
{
nodes = (
"144 235 LINE",
"308 235 LINE",
"224 497 LINE"
);
}
);
width = 536;
}
);
unicode = 00E5;
},
{
glyphname = ae;
layers = (
{
layerId = "DE113C6F-85E3-4DBE-A925-75822E2A0D50";
paths = (
{
nodes = (
"568 20 LINE",
"665 20 LINE SMOOTH",
"711 20 OFFCURVE",
"790 25 OFFCURVE",
"848 58 OFFCURVE",
"882 130 OFFCURVE",
"882 197 QCURVE",
"899 197 LINE",
"899 0 LINE",
"397 0 LINE",
"397 17 LINE",
"447 17 LINE",
"447 218 LINE",
"216 218 LINE",
"144 91 OFFCURVE",
"123 53 OFFCURVE",
"123 46 QCURVE SMOOTH",
"123 34 OFFCURVE",
"142 22 OFFCURVE",
"168 17 OFFCURVE",
"181 17 QCURVE SMOOTH",
"205 17 LINE",
"205 0 LINE",
"28 0 LINE",
"28 17 LINE",
"50 17 OFFCURVE",
"78 23 OFFCURVE",
"96 39 OFFCURVE",
"114 70 OFFCURVE",
"438 650 QCURVE",
"396 650 LINE",
"396 667 LINE",
"898 667 LINE",
"899 503 LINE",
"882 503 LINE",
"874 558 OFFCURVE",
"833 617 OFFCURVE",
"774 644 OFFCURVE",
"699 647 OFFCURVE",
"656 647 QCURVE SMOOTH",
"568 647 LINE",
"568 352 LINE",
"594 352 LINE SMOOTH",
"625 352 OFFCURVE",
"672 356 OFFCURVE",
"704 378 OFFCURVE",
"720 425 OFFCURVE",
"721 467 QCURVE",
"737 467 LINE",
"737 215 LINE",
"721 215 LINE",
"720 253 OFFCURVE",
"707 298 OFFCURVE",
"683 321 OFFCURVE",
"649 328 OFFCURVE",
"627 328 QCURVE SMOOTH",
"568 328 LINE"
);
},
{
nodes = (
"228 235 LINE",
"447 235 LINE",
"447 628 LINE"
);
}
);
width = 930;
}
);
unicode = 00E6;
},
{
glyphname = ccedilla;
layers = (
{
layerId = "DE113C6F-85E3-4DBE-A925-75822E2A0D50";
paths = (
{
nodes = (
"484 0 LINE",
"484 9 OFFCURVE",
"482 29 OFFCURVE",
"476 46 OFFCURVE",
"465 58 OFFCURVE",
"456 58 QCURVE SMOOTH",
"451 58 OFFCURVE",
"434 48 OFFCURVE",
"423 40 QCURVE SMOOTH",
"403 24 OFFCURVE",
"340 -11 OFFCURVE",
"297 -11 QCURVE SMOOTH",
"289 -11 OFFCURVE",
"281 -11 QCURVE",
"256 -38 LINE",
"278 -31 OFFCURVE",
"298 -31 QCURVE SMOOTH",
"319 -31 OFFCURVE",
"363 -43 OFFCURVE",
"399 -68 OFFCURVE",
"421 -106 OFFCURVE",
"421 -132 QCURVE SMOOTH",
"421 -161 OFFCURVE",
"398 -201 OFFCURVE",
"361 -225 OFFCURVE",
"314 -236 OFFCURVE",
"291 -236 QCURVE SMOOTH",
"276 -236 OFFCURVE",
"244 -229 OFFCURVE",
"218 -213 OFFCURVE",
"201 -188 OFFCURVE",
"201 -170 QCURVE SMOOTH",
"201 -156 OFFCURVE",
"221 -133 OFFCURVE",
"238 -133 QCURVE SMOOTH",
"252 -133 OFFCURVE",
"271 -148 OFFCURVE",
"271 -161 QCURVE SMOOTH",
"271 -175 OFFCURVE",
"253 -184 OFFCURVE",
"239 -186 QCURVE",
"240 -195 OFFCURVE",
"252 -206 OFFCURVE",
"268 -214 OFFCURVE",
"283 -217 OFFCURVE",
"288 -217 QCURVE SMOOTH",
"315 -217 OFFCURVE",
"342 -168 OFFCURVE",
"342 -136 QCURVE SMOOTH",
"342 -120 OFFCURVE",
"337 -90 OFFCURVE",
"325 -66 OFFCURVE",
"305 -52 OFFCURVE",
"290 -52 QCURVE SMOOTH",
"279 -52 OFFCURVE",
"254 -62 OFFCURVE",
"238 -76 QCURVE",
"212 -65 LINE",
"261 -8 LINE",
"223 -3 OFFCURVE",
"191 16 QCURVE",
"143 42 OFFCURVE",
"77 132 OFFCURVE",
"41 253 OFFCURVE",
"41 321 QCURVE SMOOTH",
"41 389 OFFCURVE",
"76 518 OFFCURVE",
"142 617 OFFCURVE",
"238 677 OFFCURVE",
"300 677 QCURVE SMOOTH",
"327 677 OFFCURVE",
"369 660 OFFCURVE",
"405 640 OFFCURVE",
"437 623 OFFCURVE",
"455 623 QCURVE SMOOTH",
"467 623 OFFCURVE",
"479 636 OFFCURVE",
"481 650 QCURVE",
"499 650 LINE",
"499 448 LINE",
"479 448 LINE",
"477 484 OFFCURVE",
"450 557 OFFCURVE",
"408 616 OFFCURVE",
"351 653 OFFCURVE",
"319 653 QCURVE SMOOTH",
"287 653 OFFCURVE",
"241 619 OFFCURVE",
"209 563 OFFCURVE",
"190 492 OFFCURVE",
"179 419 OFFCURVE",
"176 348 OFFCURVE",
"176 321 QCURVE SMOOTH",
"176 270 OFFCURVE",
"188 165 OFFCURVE",
"224 78 OFFCURVE",
"290 23 OFFCURVE",
"344 23 QCURVE SMOOTH",
"373 23 OFFCURVE",
"421 66 OFFCURVE",
"457 131 OFFCURVE",
"480 206 OFFCURVE",
"484 238 QCURVE",
"499 238 LINE",
"499 0 LINE"
);
}
);
width = 551;
}
);
unicode = 00E7;
},
{
glyphname = egrave;
layers = (
{
layerId = "DE113C6F-85E3-4DBE-A925-75822E2A0D50";
paths = (
{
nodes = (
"386 709 LINE",
"380 700 LINE",
"351 713 OFFCURVE",
"325 724 QCURVE SMOOTH",
"302 734 OFFCURVE",
"257 755 OFFCURVE",
"244 763 QCURVE SMOOTH",
"233 769 OFFCURVE",
"218 779 OFFCURVE",
"210 793 OFFCURVE",
"210 812 OFFCURVE",
"215 827 QCURVE",
"220 838 OFFCURVE",
"240 844 OFFCURVE",
"249 844 QCURVE",
"251 844 OFFCURVE",
"266 843 OFFCURVE",
"291 836 OFFCURVE",
"299 833 QCURVE"
);
},
{
nodes = (
"198 20 LINE",
"295 20 LINE SMOOTH",
"341 20 OFFCURVE",
"420 25 OFFCURVE",
"478 58 OFFCURVE",
"512 130 OFFCURVE",
"512 197 QCURVE",
"529 197 LINE",
"529 0 LINE",
"27 0 LINE",
"27 17 LINE",
"77 17 LINE",
"77 650 LINE",
"27 650 LINE",
"27 667 LINE",
"528 667 LINE",
"529 503 LINE",
"512 503 LINE",
"504 558 OFFCURVE",
"463 617 OFFCURVE",
"404 644 OFFCURVE",
"329 647 OFFCURVE",
"286 647 QCURVE SMOOTH",
"198 647 LINE",
"198 352 LINE",
"224 352 LINE SMOOTH",
"255 352 OFFCURVE",
"302 356 OFFCURVE",
"334 378 OFFCURVE",
"350 425 OFFCURVE",
"351 467 QCURVE",
"367 467 LINE",
"367 215 LINE",
"351 215 LINE",
"350 253 OFFCURVE",
"337 298 OFFCURVE",
"313 321 OFFCURVE",
"279 328 OFFCURVE",
"257 328 QCURVE SMOOTH",
"198 328 LINE"
);
}
);
width = 558;
}
);
unicode = 00E8;
},
{
glyphname = eacute;
layers = (
{
layerId = "DE113C6F-85E3-4DBE-A925-75822E2A0D50";
paths = (
{
nodes = (
"292 833 LINE",
"300 836 OFFCURVE",
"325 843 OFFCURVE",
"340 844 OFFCURVE",
"342 844 QCURVE",
"351 844 OFFCURVE",
"371 838 OFFCURVE",
"376 827 QCURVE",
"381 812 OFFCURVE",
"381 793 OFFCURVE",
"373 779 OFFCURVE",
"357 769 OFFCURVE",
"347 763 QCURVE SMOOTH",
"333 755 OFFCURVE",
"289 734 OFFCURVE",
"266 724 QCURVE SMOOTH",
"240 713 OFFCURVE",
"211 700 QCURVE",
"205 709 LINE"
);
},
{
nodes = (
"198 20 LINE",
"295 20 LINE SMOOTH",
"341 20 OFFCURVE",
"420 25 OFFCURVE",
"478 58 OFFCURVE",
"512 130 OFFCURVE",
"512 197 QCURVE",
"529 197 LINE",
"529 0 LINE",
"27 0 LINE",
"27 17 LINE",
"77 17 LINE",
"77 650 LINE",
"27 650 LINE",
"27 667 LINE",
"528 667 LINE",
"529 503 LINE",
"512 503 LINE",
"504 558 OFFCURVE",
"463 617 OFFCURVE",
"404 644 OFFCURVE",
"329 647 OFFCURVE",
"286 647 QCURVE SMOOTH",
"198 647 LINE",
"198 352 LINE",
"224 352 LINE SMOOTH",
"255 352 OFFCURVE",
"302 356 OFFCURVE",
"334 378 OFFCURVE",
"350 425 OFFCURVE",
"351 467 QCURVE",
"367 467 LINE",
"367 215 LINE",
"351 215 LINE",
"350 253 OFFCURVE",
"337 298 OFFCURVE",
"313 321 OFFCURVE",
"279 328 OFFCURVE",
"257 328 QCURVE SMOOTH",
"198 328 LINE"
);
}
);
width = 558;
}
);
unicode = 00E9;
},
{
glyphname = ecircumflex;
layers = (
{
layerId = "DE113C6F-85E3-4DBE-A925-75822E2A0D50";
paths = (
{
nodes = (
"412 717 LINE",
"406 708 LINE",
"382 717 OFFCURVE",
"359 728 QCURVE",
"339 736 OFFCURVE",
"296 757 OFFCURVE",
"281 765 QCURVE",
"279 764 LINE SMOOTH",
"271 760 OFFCURVE",
"262 755 QCURVE",
"261 755 LINE",
"256 753 OFFCURVE",
"252 750 QCURVE",
"250 750 LINE",
"247 748 OFFCURVE",
"244 747 QCURVE SMOOTH",
"223 736 OFFCURVE",
"203 728 QCURVE",
"180 717 OFFCURVE",
"156 708 QCURVE",
"150 717 LINE",
"237 841 LINE",
"250 848 OFFCURVE",
"266 852 OFFCURVE",
"274 852 QCURVE SMOOTH",
"291 852 OFFCURVE",
"314 844 OFFCURVE",
"325 841 QCURVE"
);
},
{
nodes = (
"198 20 LINE",
"295 20 LINE SMOOTH",
"341 20 OFFCURVE",
"420 25 OFFCURVE",
"478 58 OFFCURVE",
"512 130 OFFCURVE",
"512 197 QCURVE",
"529 197 LINE",
"529 0 LINE",
"27 0 LINE",
"27 17 LINE",
"77 17 LINE",
"77 650 LINE",
"27 650 LINE",
"27 667 LINE",
"528 667 LINE",
"529 503 LINE",
"512 503 LINE",
"504 558 OFFCURVE",
"463 617 OFFCURVE",
"404 644 OFFCURVE",
"329 647 OFFCURVE",
"286 647 QCURVE SMOOTH",
"198 647 LINE",
"198 352 LINE",
"224 352 LINE SMOOTH",
"255 352 OFFCURVE",
"302 356 OFFCURVE",
"334 378 OFFCURVE",
"350 425 OFFCURVE",
"351 467 QCURVE",
"367 467 LINE",
"367 215 LINE",
"351 215 LINE",
"350 253 OFFCURVE",
"337 298 OFFCURVE",
"313 321 OFFCURVE",
"279 328 OFFCURVE",
"257 328 QCURVE SMOOTH",
"198 328 LINE"
);
}
);
width = 558;
}
);
unicode = 00EA;
},
{
glyphname = edieresis;
layers = (
{
layerId = "DE113C6F-85E3-4DBE-A925-75822E2A0D50";
paths = (
{
nodes = (
"155 790 OFFCURVE",
"189 824 OFFCURVE",
"213 824 QCURVE SMOOTH",
"237 824 OFFCURVE",
"271 790 OFFCURVE",
"271 766 QCURVE SMOOTH",
"271 742 OFFCURVE",
"237 708 OFFCURVE",
"213 708 QCURVE SMOOTH",
"189 708 OFFCURVE",
"155 742 OFFCURVE",
"155 766 QCURVE SMOOTH"
);
},
{
nodes = (
"310 790 OFFCURVE",
"344 824 OFFCURVE",
"368 824 QCURVE SMOOTH",
"392 824 OFFCURVE",
"426 790 OFFCURVE",
"426 766 QCURVE SMOOTH",
"426 742 OFFCURVE",
"392 708 OFFCURVE",
"368 708 QCURVE SMOOTH",
"344 708 OFFCURVE",
"310 742 OFFCURVE",
"310 766 QCURVE SMOOTH"
);
},
{
nodes = (
"198 20 LINE",
"295 20 LINE SMOOTH",
"341 20 OFFCURVE",
"420 25 OFFCURVE",
"478 58 OFFCURVE",
"512 130 OFFCURVE",
"512 197 QCURVE",
"529 197 LINE",
"529 0 LINE",
"27 0 LINE",
"27 17 LINE",
"77 17 LINE",
"77 650 LINE",
"27 650 LINE",
"27 667 LINE",
"528 667 LINE",
"529 503 LINE",
"512 503 LINE",
"504 558 OFFCURVE",
"463 617 OFFCURVE",
"404 644 OFFCURVE",
"329 647 OFFCURVE",
"286 647 QCURVE SMOOTH",
"198 647 LINE",
"198 352 LINE",
"224 352 LINE SMOOTH",
"255 352 OFFCURVE",
"302 356 OFFCURVE",
"334 378 OFFCURVE",
"350 425 OFFCURVE",
"351 467 QCURVE",
"367 467 LINE",
"367 215 LINE",
"351 215 LINE",
"350 253 OFFCURVE",
"337 298 OFFCURVE",
"313 321 OFFCURVE",
"279 328 OFFCURVE",
"257 328 QCURVE SMOOTH",
"198 328 LINE"
);
}
);
width = 558;
}
);
unicode = 00EB;
},
{
glyphname = igrave;
layers = (
{
layerId = "DE113C6F-85E3-4DBE-A925-75822E2A0D50";
paths = (
{
nodes = (
"218 709 LINE",
"212 700 LINE",
"183 713 OFFCURVE",
"157 724 QCURVE SMOOTH",
"134 734 OFFCURVE",
"89 755 OFFCURVE",
"76 763 QCURVE SMOOTH",
"65 769 OFFCURVE",
"50 779 OFFCURVE",
"42 793 OFFCURVE",
"42 812 OFFCURVE",
"47 827 QCURVE",
"52 838 OFFCURVE",
"72 844 OFFCURVE",
"81 844 QCURVE",
"83 844 OFFCURVE",
"98 843 OFFCURVE",
"123 836 OFFCURVE",
"131 833 QCURVE"
);
},
{
nodes = (
"31 667 LINE",
"280 667 LINE",
"280 650 LINE",
"208 650 LINE",
"208 17 LINE",
"280 17 LINE",
"280 0 LINE",
"31 0 LINE",
"31 17 LINE",
"94 17 LINE",
"94 650 LINE",
"31 650 LINE"
);
}
);
width = 308;
}
);
unicode = 00EC;
},
{
glyphname = iacute;
layers = (
{
layerId = "DE113C6F-85E3-4DBE-A925-75822E2A0D50";
paths = (
{
nodes = (
"164 833 LINE",
"172 836 OFFCURVE",
"197 843 OFFCURVE",
"212 844 OFFCURVE",
"214 844 QCURVE",
"223 844 OFFCURVE",
"243 838 OFFCURVE",
"248 827 QCURVE",
"253 812 OFFCURVE",
"253 793 OFFCURVE",
"245 779 OFFCURVE",
"229 769 OFFCURVE",
"219 763 QCURVE SMOOTH",
"205 755 OFFCURVE",
"161 734 OFFCURVE",
"138 724 QCURVE SMOOTH",
"112 713 OFFCURVE",
"83 700 QCURVE",
"77 709 LINE"
);
},
{
nodes = (
"31 667 LINE",
"280 667 LINE",
"280 650 LINE",
"208 650 LINE",
"208 17 LINE",
"280 17 LINE",
"280 0 LINE",
"31 0 LINE",
"31 17 LINE",
"94 17 LINE",
"94 650 LINE",
"31 650 LINE"
);
}
);
width = 308;
}
);
unicode = 00ED;
},
{
glyphname = icircumflex;
layers = (
{
layerId = "DE113C6F-85E3-4DBE-A925-75822E2A0D50";
paths = (
{
nodes = (
"202 719 LINE",
"191 716 OFFCURVE",
"168 708 OFFCURVE",
"151 708 QCURVE SMOOTH",
"143 708 OFFCURVE",
"127 712 OFFCURVE",
"114 719 QCURVE",
"27 843 LINE",
"33 852 LINE",
"57 842 OFFCURVE",
"80 832 QCURVE SMOOTH",
"100 823 OFFCURVE",
"142 803 OFFCURVE",
"158 795 QCURVE",
"173 803 OFFCURVE",
"216 823 OFFCURVE",
"236 832 QCURVE SMOOTH",
"259 842 OFFCURVE",
"283 852 QCURVE",
"289 843 LINE"
);
},
{
nodes = (
"31 667 LINE",
"280 667 LINE",
"280 650 LINE",
"208 650 LINE",
"208 17 LINE",
"280 17 LINE",
"280 0 LINE",
"31 0 LINE",
"31 17 LINE",
"94 17 LINE",
"94 650 LINE",
"31 650 LINE"
);
}
);
width = 308;
}
);
unicode = 00EE;
},
{
glyphname = idieresis;
layers = (
{
layerId = "DE113C6F-85E3-4DBE-A925-75822E2A0D50";
paths = (
{
nodes = (
"18 790 OFFCURVE",
"52 824 OFFCURVE",
"76 824 QCURVE SMOOTH",
"100 824 OFFCURVE",
"134 790 OFFCURVE",
"134 766 QCURVE SMOOTH",
"134 742 OFFCURVE",
"100 708 OFFCURVE",
"76 708 QCURVE SMOOTH",
"52 708 OFFCURVE",
"18 742 OFFCURVE",
"18 766 QCURVE SMOOTH"
);
},
{
nodes = (
"173 790 OFFCURVE",
"207 824 OFFCURVE",
"231 824 QCURVE SMOOTH",
"255 824 OFFCURVE",
"289 790 OFFCURVE",
"289 766 QCURVE SMOOTH",
"289 742 OFFCURVE",
"255 708 OFFCURVE",
"231 708 QCURVE SMOOTH",
"207 708 OFFCURVE",
"173 742 OFFCURVE",
"173 766 QCURVE SMOOTH"
);
},
{
nodes = (
"31 667 LINE",
"280 667 LINE",
"280 650 LINE",
"208 650 LINE",
"208 17 LINE",
"280 17 LINE",
"280 0 LINE",
"31 0 LINE",
"31 17 LINE",
"94 17 LINE",
"94 650 LINE",
"31 650 LINE"
);
}
);
width = 308;
}
);
unicode = 00EF;
},
{
glyphname = eth;
layers = (
{
layerId = "DE113C6F-85E3-4DBE-A925-75822E2A0D50";
paths = (
{
nodes = (
"27 667 LINE",
"234 667 LINE SMOOTH",
"304 667 OFFCURVE",
"430 635 OFFCURVE",
"525 558 OFFCURVE",
"581 428 OFFCURVE",
"581 331 QCURVE SMOOTH",
"581 236 OFFCURVE",
"528 109 OFFCURVE",
"437 33 OFFCURVE",
"316 0 OFFCURVE",
"247 0 QCURVE SMOOTH",
"27 0 LINE",
"27 17 LINE",
"84 17 LINE",
"84 317 LINE",
"14 317 LINE",
"14 359 LINE",
"84 359 LINE",
"84 649 LINE",
"27 649 LINE"
);
},
{
nodes = (
"202 649 LINE",
"202 359 LINE",
"317 359 LINE",
"317 317 LINE",
"202 317 LINE",
"202 17 LINE",
"274 17 OFFCURVE",
"372 56 OFFCURVE",
"432 136 OFFCURVE",
"458 257 OFFCURVE",
"458 339 QCURVE SMOOTH",
"458 406 OFFCURVE",
"430 520 OFFCURVE",
"373 603 OFFCURVE",
"286 650 OFFCURVE",
"227 650 QCURVE"
);
}
);
width = 616;
}
);
unicode = 00F0;
},
{
glyphname = ntilde;
layers = (
{
layerId = "DE113C6F-85E3-4DBE-A925-75822E2A0D50";
paths = (
{
nodes = (
"412 773 OFFCURVE",
"431 796 OFFCURVE",
"436 808 QCURVE",
"436 805 LINE",
"447 804 LINE",
"444 790 OFFCURVE",
"432 757 OFFCURVE",
"414 726 OFFCURVE",
"387 703 OFFCURVE",
"369 701 QCURVE",
"367 701 OFFCURVE",
"364 701 QCURVE SMOOTH",
"354 701 OFFCURVE",
"310 714 OFFCURVE",
"281 722 QCURVE SMOOTH",
"272 724 OFFCURVE",
"240 732 OFFCURVE",
"233 732 QCURVE",
"231 732 OFFCURVE",
"230 732 QCURVE",
"218 730 OFFCURVE",
"200 708 OFFCURVE",
"195 697 QCURVE",
"183 699 LINE",
"186 712 OFFCURVE",
"198 745 OFFCURVE",
"217 776 OFFCURVE",
"244 798 OFFCURVE",
"262 801 QCURVE SMOOTH",
"265 802 OFFCURVE",
"269 802 QCURVE SMOOTH",
"279 802 OFFCURVE",
"312 792 OFFCURVE",
"332 786 QCURVE SMOOTH",
"352 780 OFFCURVE",
"386 770 OFFCURVE",
"394 770 QCURVE SMOOTH",
"397 770 OFFCURVE",
"399 771 QCURVE"
);
},
{
nodes = (
"21 17 LINE",
"51 17 OFFCURVE",
"85 20 OFFCURVE",
"100 37 OFFCURVE",
"103 72 OFFCURVE",
"103 105 QCURVE SMOOTH",
"103 637 LINE",
"90 650 LINE",
"21 650 LINE",
"21 667 LINE",
"222 667 LINE",
"512 191 LINE",
"512 567 LINE SMOOTH",
"512 599 OFFCURVE",
"509 633 OFFCURVE",
"497 648 OFFCURVE",
"474 650 OFFCURVE",
"454 650 QCURVE SMOOTH",
"432 650 LINE",
"432 667 LINE",
"613 667 LINE",
"613 650 LINE",
"590 650 LINE SMOOTH",
"570 650 OFFCURVE",
"546 648 OFFCURVE",
"534 633 OFFCURVE",
"531 599 OFFCURVE",
"531 567 QCURVE SMOOTH",
"531 -5 LINE",
"481 -5 LINE",
"122 589 LINE",
"122 122 LINE SMOOTH",
"122 82 OFFCURVE",
"124 39 OFFCURVE",
"139 20 OFFCURVE",
"173 17 OFFCURVE",
"205 17 QCURVE",
"205 0 LINE",
"21 0 LINE"
);
}
);
width = 626;
}
);
unicode = 00F1;
},
{
glyphname = ograve;
layers = (
{
layerId = "DE113C6F-85E3-4DBE-A925-75822E2A0D50";
paths = (
{
nodes = (
"386 709 LINE",
"380 700 LINE",
"351 713 OFFCURVE",
"325 724 QCURVE SMOOTH",
"302 734 OFFCURVE",
"257 755 OFFCURVE",
"244 763 QCURVE SMOOTH",
"233 769 OFFCURVE",
"218 779 OFFCURVE",
"210 793 OFFCURVE",
"210 812 OFFCURVE",
"215 827 QCURVE",
"220 838 OFFCURVE",
"240 844 OFFCURVE",
"249 844 QCURVE",
"251 844 OFFCURVE",
"266 843 OFFCURVE",
"291 836 OFFCURVE",
"299 833 QCURVE"
);
},
{
nodes = (
"358 680 OFFCURVE",
"453 619 OFFCURVE",
"522 520 OFFCURVE",
"560 395 OFFCURVE",
"560 332 QCURVE SMOOTH",
"560 268 OFFCURVE",
"522 145 OFFCURVE",
"453 48 OFFCURVE",
"358 -12 OFFCURVE",
"301 -12 QCURVE SMOOTH",
"243 -12 OFFCURVE",
"147 49 OFFCURVE",
"79 149 OFFCURVE",
"41 275 OFFCURVE",
"41 340 QCURVE SMOOTH",
"41 402 OFFCURVE",
"82 524 OFFCURVE",
"153 620 OFFCURVE",
"247 680 OFFCURVE",
"301 680 QCURVE SMOOTH"
);
},
{
nodes = (
"271 664 OFFCURVE",
"225 631 OFFCURVE",
"193 576 OFFCURVE",
"174 507 OFFCURVE",
"163 434 OFFCURVE",
"159 363 OFFCURVE",
"159 335 QCURVE SMOOTH",
"159 306 OFFCURVE",
"162 235 OFFCURVE",
"172 162 OFFCURVE",
"190 92 OFFCURVE",
"221 37 OFFCURVE",
"267 4 OFFCURVE",
"300 4 QCURVE SMOOTH",
"333 4 OFFCURVE",
"379 38 OFFCURVE",
"409 93 OFFCURVE",
"425 164 OFFCURVE",
"433 237 OFFCURVE",
"435 308 OFFCURVE",
"435 336 QCURVE SMOOTH",
"435 361 OFFCURVE",
"432 429 OFFCURVE",
"422 501 OFFCURVE",
"405 573 OFFCURVE",
"375 629 OFFCURVE",
"333 664 OFFCURVE",
"303 664 QCURVE SMOOTH"
);
}
);
width = 595;
}
);
unicode = 00F2;
},
{
glyphname = oacute;
layers = (
{
layerId = "DE113C6F-85E3-4DBE-A925-75822E2A0D50";
paths = (
{
nodes = (
"305 833 LINE",
"313 836 OFFCURVE",
"338 843 OFFCURVE",
"353 844 OFFCURVE",
"355 844 QCURVE",
"364 844 OFFCURVE",
"384 838 OFFCURVE",
"389 827 QCURVE",
"394 812 OFFCURVE",
"394 793 OFFCURVE",
"386 779 OFFCURVE",
"370 769 OFFCURVE",
"360 763 QCURVE SMOOTH",
"346 755 OFFCURVE",
"302 734 OFFCURVE",
"279 724 QCURVE SMOOTH",
"253 713 OFFCURVE",
"224 700 QCURVE",
"218 709 LINE"
);
},
{
nodes = (
"358 680 OFFCURVE",
"453 619 OFFCURVE",
"522 520 OFFCURVE",
"560 395 OFFCURVE",
"560 332 QCURVE SMOOTH",
"560 268 OFFCURVE",
"522 145 OFFCURVE",
"453 48 OFFCURVE",
"358 -12 OFFCURVE",
"301 -12 QCURVE SMOOTH",
"243 -12 OFFCURVE",
"147 49 OFFCURVE",
"79 149 OFFCURVE",
"41 275 OFFCURVE",
"41 340 QCURVE SMOOTH",
"41 402 OFFCURVE",
"82 524 OFFCURVE",
"153 620 OFFCURVE",
"247 680 OFFCURVE",
"301 680 QCURVE SMOOTH"
);
},
{
nodes = (
"271 664 OFFCURVE",
"225 631 OFFCURVE",
"193 576 OFFCURVE",
"174 507 OFFCURVE",
"163 434 OFFCURVE",
"159 363 OFFCURVE",
"159 335 QCURVE SMOOTH",
"159 306 OFFCURVE",
"162 235 OFFCURVE",
"172 162 OFFCURVE",
"190 92 OFFCURVE",
"221 37 OFFCURVE",
"267 4 OFFCURVE",
"300 4 QCURVE SMOOTH",
"333 4 OFFCURVE",
"379 38 OFFCURVE",
"409 93 OFFCURVE",
"425 164 OFFCURVE",
"433 237 OFFCURVE",
"435 308 OFFCURVE",
"435 336 QCURVE SMOOTH",
"435 361 OFFCURVE",
"432 429 OFFCURVE",
"422 501 OFFCURVE",
"405 573 OFFCURVE",
"375 629 OFFCURVE",
"333 664 OFFCURVE",
"303 664 QCURVE SMOOTH"
);
}
);
width = 595;
}
);
unicode = 00F3;
},
{
glyphname = ocircumflex;
layers = (
{
layerId = "DE113C6F-85E3-4DBE-A925-75822E2A0D50";
paths = (
{
nodes = (
"431 717 LINE",
"425 708 LINE",
"401 717 OFFCURVE",
"378 728 QCURVE",
"358 736 OFFCURVE",
"315 757 OFFCURVE",
"300 765 QCURVE",
"298 764 LINE SMOOTH",
"293 761 OFFCURVE",
"288 759 QCURVE SMOOTH",
"286 758 LINE SMOOTH",
"283 757 OFFCURVE",
"281 755 QCURVE",
"280 755 LINE",
"275 753 OFFCURVE",
"271 750 QCURVE",
"269 750 LINE",
"266 748 OFFCURVE",
"263 747 QCURVE SMOOTH",
"242 736 OFFCURVE",
"222 728 QCURVE",
"199 717 OFFCURVE",
"175 708 QCURVE",
"169 717 LINE",
"256 841 LINE",
"269 848 OFFCURVE",
"285 852 OFFCURVE",
"293 852 QCURVE SMOOTH",
"310 852 OFFCURVE",
"333 844 OFFCURVE",
"344 841 QCURVE"
);
},
{
nodes = (
"358 680 OFFCURVE",
"453 619 OFFCURVE",
"522 520 OFFCURVE",
"560 395 OFFCURVE",
"560 332 QCURVE SMOOTH",
"560 268 OFFCURVE",
"522 145 OFFCURVE",
"453 48 OFFCURVE",
"358 -12 OFFCURVE",
"301 -12 QCURVE SMOOTH",
"243 -12 OFFCURVE",
"147 49 OFFCURVE",
"79 149 OFFCURVE",
"41 275 OFFCURVE",
"41 340 QCURVE SMOOTH",
"41 402 OFFCURVE",
"82 524 OFFCURVE",
"153 620 OFFCURVE",
"247 680 OFFCURVE",
"301 680 QCURVE SMOOTH"
);
},
{
nodes = (
"271 664 OFFCURVE",
"225 631 OFFCURVE",
"193 576 OFFCURVE",
"174 507 OFFCURVE",
"163 434 OFFCURVE",
"159 363 OFFCURVE",
"159 335 QCURVE SMOOTH",
"159 306 OFFCURVE",
"162 235 OFFCURVE",
"172 162 OFFCURVE",
"190 92 OFFCURVE",
"221 37 OFFCURVE",
"267 4 OFFCURVE",
"300 4 QCURVE SMOOTH",
"333 4 OFFCURVE",
"379 38 OFFCURVE",
"409 93 OFFCURVE",
"425 164 OFFCURVE",
"433 237 OFFCURVE",
"435 308 OFFCURVE",
"435 336 QCURVE SMOOTH",
"435 361 OFFCURVE",
"432 429 OFFCURVE",
"422 501 OFFCURVE",
"405 573 OFFCURVE",
"375 629 OFFCURVE",
"333 664 OFFCURVE",
"303 664 QCURVE SMOOTH"
);
}
);
width = 595;
}
);
unicode = 00F4;
},
{
glyphname = otilde;
layers = (
{
layerId = "DE113C6F-85E3-4DBE-A925-75822E2A0D50";
paths = (
{
nodes = (
"412 773 OFFCURVE",
"431 796 OFFCURVE",
"436 808 QCURVE",
"436 805 LINE",
"447 804 LINE",
"444 790 OFFCURVE",
"432 757 OFFCURVE",
"414 726 OFFCURVE",
"387 703 OFFCURVE",
"369 701 QCURVE",
"367 701 OFFCURVE",
"364 701 QCURVE SMOOTH",
"354 701 OFFCURVE",
"310 714 OFFCURVE",
"281 722 QCURVE SMOOTH",
"272 724 OFFCURVE",
"240 732 OFFCURVE",
"233 732 QCURVE",
"231 732 OFFCURVE",
"230 732 QCURVE",
"218 730 OFFCURVE",
"200 708 OFFCURVE",
"195 697 QCURVE",
"183 699 LINE",
"186 712 OFFCURVE",
"198 745 OFFCURVE",
"217 776 OFFCURVE",
"244 798 OFFCURVE",
"262 801 QCURVE SMOOTH",
"265 802 OFFCURVE",
"269 802 QCURVE SMOOTH",
"279 802 OFFCURVE",
"312 792 OFFCURVE",
"332 786 QCURVE SMOOTH",
"352 780 OFFCURVE",
"386 770 OFFCURVE",
"394 770 QCURVE SMOOTH",
"397 770 OFFCURVE",
"399 771 QCURVE"
);
},
{
nodes = (
"358 680 OFFCURVE",
"453 619 OFFCURVE",
"522 520 OFFCURVE",
"560 395 OFFCURVE",
"560 332 QCURVE SMOOTH",
"560 268 OFFCURVE",
"522 145 OFFCURVE",
"453 48 OFFCURVE",
"358 -12 OFFCURVE",
"301 -12 QCURVE SMOOTH",
"243 -12 OFFCURVE",
"147 49 OFFCURVE",
"79 149 OFFCURVE",
"41 275 OFFCURVE",
"41 340 QCURVE SMOOTH",
"41 402 OFFCURVE",
"82 524 OFFCURVE",
"153 620 OFFCURVE",
"247 680 OFFCURVE",
"301 680 QCURVE SMOOTH"
);
},
{
nodes = (
"271 664 OFFCURVE",
"225 631 OFFCURVE",
"193 576 OFFCURVE",
"174 507 OFFCURVE",
"163 434 OFFCURVE",
"159 363 OFFCURVE",
"159 335 QCURVE SMOOTH",
"159 306 OFFCURVE",
"162 235 OFFCURVE",
"172 162 OFFCURVE",
"190 92 OFFCURVE",
"221 37 OFFCURVE",
"267 4 OFFCURVE",
"300 4 QCURVE SMOOTH",
"333 4 OFFCURVE",
"379 38 OFFCURVE",
"409 93 OFFCURVE",
"425 164 OFFCURVE",
"433 237 OFFCURVE",
"435 308 OFFCURVE",
"435 336 QCURVE SMOOTH",
"435 361 OFFCURVE",
"432 429 OFFCURVE",
"422 501 OFFCURVE",
"405 573 OFFCURVE",
"375 629 OFFCURVE",
"333 664 OFFCURVE",
"303 664 QCURVE SMOOTH"
);
}
);
width = 595;
}
);
unicode = 00F5;
},
